<svg enable-background="new 0 0 24 24" viewBox="0 0 24 24" xmlns="http://www.w3.org/2000/svg"><path d="m0 22c0 1.105.896 2 2 2h20c1.105 0 2-.896 2-2v-17h-24z" fill="#ebebeb"/><g fill="#8c8c8c"><circle cx="19.5" cy="9.5" r="1.5"/><circle cx="19.5" cy="14.5" r="1.5"/><circle cx="14.5" cy="9.5" r="1.5"/><circle cx="14.5" cy="14.5" r="1.5"/><circle cx="14.5" cy="19.5" r="1.5"/><circle cx="9.5" cy="9.5" r="1.5"/><circle cx="9.5" cy="14.5" r="1.5"/><circle cx="9.5" cy="19.5" r="1.5"/><circle cx="4.5" cy="9.5" r="1.5"/><circle cx="4.5" cy="14.5" r="1.5"/><circle cx="4.5" cy="19.5" r="1.5"/></g><path d="m22 0h-20c-1.104 0-2 .896-2 2v3h24v-3c0-1.104-.896-2-2-2z" fill="#46a046"/></svg>