<svg xmlns="http://www.w3.org/2000/svg" viewBox="0 0 58 58"><path d="M54.8 0H3.2A3.2 3.2 0 0 0 0 3.2v51.6A3.2 3.2 0 0 0 3.2 58H31V35.57h-7.55V26.8H31v-6.46c0-7.5 4.58-11.57 11.26-11.57A64.2 64.2 0 0 1 49 9.1v7.83h-4.6c-3.64 0-4.35 1.72-4.35 4.26v5.6h8.7l-1.13 8.78H40V58h14.8a3.2 3.2 0 0 0 3.2-3.2V3.2A3.2 3.2 0 0 0 54.8 0z" fill="#46a046"/><path d="M40 58V35.57h7.57l1.13-8.78H40v-5.6c0-2.54.7-4.26 4.35-4.26H49V9.1a64.2 64.2 0 0 0-6.75-.34C35.56 8.76 31 12.84 31 20.33v6.46h-7.55v8.78H31V58z" fill="#fff"/></svg>