<svg xmlns="http://www.w3.org/2000/svg" width="504" height="504" fill="#46a046"><path d="M251.92.16c68.418 0 76.997.3 103.866 1.528 26.813 1.213 45.126 5.472 61.15 11.7 16.565 6.436 30.615 15.05 44.62 29.056s22.62 28.054 29.057 44.62c6.228 16.023 10.487 34.336 11.7 61.15l1.516 103.867-1.516 103.866c-1.224 26.813-5.483 45.126-11.7 61.15-6.437 16.565-15.052 30.615-29.057 44.62s-28.054 22.62-44.62 29.057c-16.023 6.228-34.336 10.487-61.15 11.7C328.916 503.7 320.337 504 251.92 504s-76.996-.3-103.878-1.517c-26.813-1.224-45.126-5.483-61.15-11.7-16.565-6.437-30.614-15.052-44.62-29.057s-22.62-28.054-29.056-44.62c-6.218-16.023-10.477-34.336-11.7-61.15L0 252.08l1.527-103.878C2.74 121.4 7 103.076 13.227 87.052c6.436-16.565 15.05-30.614 29.056-44.62s28.054-22.62 44.62-29.056c16.023-6.218 34.336-10.477 61.15-11.7C174.923.46 183.502.16 251.92.16zm0 45.4c-67.266 0-75.234.258-101.798 1.47-24.562 1.12-37.9 5.224-46.778 8.674-11.76 4.57-20.15 10.03-28.966 18.845s-14.275 17.206-18.845 28.966c-3.45 8.878-7.554 22.216-8.674 46.778L45.4 252.08l1.47 101.797c1.12 24.562 5.224 37.9 8.674 46.778 4.57 11.76 10.03 20.15 18.845 28.966s17.206 14.275 28.966 18.845c8.878 3.45 22.216 7.554 46.778 8.674 26.56 1.213 34.528 1.47 101.798 1.47l101.797-1.47c24.562-1.12 37.9-5.224 46.778-8.674 11.76-4.57 20.15-10.03 28.966-18.845s14.275-17.206 18.845-28.966c3.45-8.878 7.554-22.216 8.674-46.778l1.47-101.797-1.47-101.798c-1.12-24.562-5.224-37.9-8.674-46.778-4.57-11.76-10.03-20.15-18.845-28.966s-17.206-14.275-28.966-18.845c-8.878-3.45-22.216-7.554-46.778-8.674L251.92 45.55zm0 77.155c71.446 0 129.364 57.92 129.364 129.365S323.367 381.444 251.92 381.444 122.555 323.527 122.555 252.08s57.918-129.365 129.365-129.365zm0 213.338c46.377 0 83.973-37.595 83.973-83.973s-37.595-83.974-83.973-83.974-83.974 37.597-83.974 83.974 37.596 83.973 83.974 83.973zm164.707-218.448c0 16.696-13.535 30.23-30.23 30.23s-30.23-13.534-30.23-30.23 13.535-30.23 30.23-30.23 30.23 13.535 30.23 30.23z"/></svg>