<svg xmlns="http://www.w3.org/2000/svg" width="559" height="104"><path d="M51.16 9.955c0-.144-1.152-.144-1.296 0 .288.144.576.144.864.144.144 0 .432 0 .432-.144zm3.456.72c.288-.144 1.152-.432.288-.576-.432 0-.576.432-.288.576zm-14.4 0c0 .144-.144.144-.288.144s-.288-.144-.576-.432c.144 0 .864.144.864.288zm22.896 3.456c-.576.144.864 2.016.864 2.304 0 .144-.144.432-.288.432-.144.432 0 .432-.288.576-.864.432-1.152-.72-1.584-1.152-.72-.72-2.304-.864-3.168-1.008-1.44-.144-2.592-.432-4.032-.432-1.152-.144-2.592-.144-3.888-.144-1.296.144-2.736 0-4.176.144-.432 0-.72 0-.432.432 0 .432.576.864.864 1.152.864.864.864 1.728.432 3.024-1.44 4.32-4.032 8.64-6.192 12.672-1.152 2.16-2.304 4.464-5.04 8.064-.432.864-.576 2.016-1.152 3.024-.72 1.008-1.296 2.16-1.872 3.312-2.016 4.176-4.32 8.208-6.192 12.384-1.296 2.304-2.304 4.896-3.312 7.2-1.296 2.304-2.448 4.752-3.168 7.2-.144.144-.288.576-.288.72.144.288.144 0 .432.144.432.288.432 0 .144.432-.144.288-.288-.144-.144.288 0-.288.576.288.576.288.864.288 2.448-.432 3.168-.576l3.6-.432c.72-.144 1.584-.288 2.16-.288.144 0 1.296 0 .72-.432-.144-.144-1.152.144-1.296.144-.432-.144-.432-.432 0-.72.432-.144 1.296 0 1.872 0s1.296 0 1.872-.144h1.872c.72-.144 1.44 0 2.16-.144.576 0 1.152-.144 1.728 0 .72.144 1.296.144 2.016.144 1.008 0 2.16.144 3.168.864s1.44 2.016 2.448 2.736c.144.144 1.008.72.72 1.008s-.432-.432-.576-.288c-.144.288.576.864.576 1.152.144.432-.432.864-.864.864-.72 0-.72-.432-1.152-.72-.288-.576-.864-.72-1.296-.864-3.312-.72-6.912-.72-10.224-.288-3.456.288-6.912 1.008-10.224 1.296-3.024.288-6.192 1.152-9.216 2.016L9.688 82.1c-1.584.576-2.736 1.44-4.032 2.016-.72.288-1.44.432-1.872.72-.72.288-.72.576-1.728.432-.576 0-1.008-.144-1.008-.72 0-.288 0-.432-.144-.72-.288-.288-.576-.432-.576-.864-.144-.144-.144-.432-.144-.72s-.288-.576-.144-.864c0-.432.864-.864 1.152-1.152 1.152-.864 2.88-1.44 4.32-1.728.576-.144 1.296-.576 1.872-.576.288 0 .432.144.72 0 .144 0 .288-.432.576-.576 1.008-.576 2.736-.864 3.888-1.008.864-.144 1.728-.432 2.592-.576.72-.144.288-.288.432-1.152.288-.72.432-1.584.72-2.304.144-.864.72-1.584.864-2.304.432-1.008.864-2.88 1.584-3.6.288-.288.432.144.576-.288s-.144-.288-.288-.576c0-.288.72-1.584.864-1.44s-.144.432 0 .576c0 0 .432-.576.432-.864 0-.144-.288 0-.288-.288 0 0 .288-.432.432-.432.288-.288.72-.288.72-.864 0-.432-.432.432-.432.432 0-.576-.144-.72.288-1.008.144-.144.288 0 .288-.288.144-.144 1.296-1.584 1.008-1.872-.288-.144-.288.72-.576.576-.144-.144.864-1.728.864-1.728.144-.432.288-1.008.576-1.296.144-.144.288-.144.576-.288l1.008-1.728 1.296-2.448c.576-.864.864-1.728 1.152-2.448l.288-.72c-.144-.144-.144-.288-.144-.432.144 0 .288-.144.432-.144.576-.576 1.008-1.44 1.296-2.16.432-.72.72-1.44.72-2.16.432 0 .72-.576.864-.864 0-.576-.288-.144-.288-.144-.144-.576.288-.576.432-.72.576-.288.864-1.008.864-1.584.144-.144.576-.432.576-.72s-.576.144-.288-.432c.144-.144.432-.144.72-.432 1.584-1.584 2.016-2.592 1.872-2.736s-.432.576-.432.72c-.144-.432.432-1.584.72-2.016.432-.576 1.152-.576 1.296-1.44 0-.144-.288-.288-.144-.288.144-.288.576-.576.72-.72s.288-.864.288-1.008c0-.288-.144-.288 0-.72 0-.288.288-.576.432-.864.288-.288.288-.72.432-1.008.288-.864.864-1.584 1.152-2.304l2.16-4.32c.432-.576.576-1.152.864-1.872.432-.72.72-1.584 1.152-2.304.288-.864.432-1.728.864-2.304.144-.288.864-1.152.432-1.584-.288-.288-1.584 0-1.872 0-1.008.144-1.872.144-2.736.432-1.728.288-3.456.144-5.328.576-1.44.288-3.312.72-4.752 1.44-.72.288-1.44.864-2.016.864s-1.008-.144-1.44-.144c-.432.144-1.008.432-1.44.144-.576-.288-.432-.864-.576-1.44 0-.144-.288-.288-.288-.72 0-.288.144-.864.288-1.296 0-.72.144-.864.864-1.152.576-.576 1.44-.864 2.448-1.152 1.584-.576 3.456-.72 5.04-1.296.72-.144 1.44-.144 2.304-.288h1.008c.288 0 .288-.144.576-.144s.432.144.576.144c.288 0 1.296-.288 1.152 0-.288.288-1.728 0-1.584.72 0 .288 1.584 0 1.872 0 .432 0 .72-.288 1.152-.144h.288c.144 0 .144-.144.288-.144.432 0 .432.144.864 0 .576-.144.72-.144 1.296-.144.864.144 1.872 0 2.88-.144h3.024c.864 0 1.728-.144 2.592-.144.432 0 .864.288 1.584.144l1.152-.144c.576 0 1.296.288 2.16.432.288 0 1.008.144 1.296 0 .144-.288 0-.432.288-.576l.288.144c.144 0 .288-.288.288-.288.144 0 .72.288.72.288.576-.288.864 0 1.296.144l.864.288c.864.288 1.44 1.584 2.016 2.304 0 0 .864.72.72.864-.288.144-.432-.288-.576-.288zm-7.488-1.296c.144-.288-.288-.144-.432-.288-.72-.288-1.296-.144-2.016-.144-.288 0-2.592 0-2.592.144 0 .288.864.144 1.008.144 1.152.144 2.16.288 3.168.288.144 0 .72 0 .864-.144zm-9.36.144c.144 0 .432-.288.144-.288-.144 0-.288.144-.144.288zm12.384.288c.576.144.576-.144 0-.288-.72-.144-1.728-.432-2.304-.144.144.432.864.288 1.152.288.144 0 .864.288 1.152.144zM36.04 36.74c.144.288.576-.144.432-.288s-.432.288-.432.288zm-2.16 1.152v.144c-.144 0-1.728 1.584-1.584 1.728s1.872-1.728 1.584-1.872zm-.144 2.592c0-.144.288-.288.144-.576-.288.288-.432.72-.432.72-.72.288-.72 2.016 0 .432v-.432c.144 0 .144-.144.288-.144zm-2.016.576c.144 0 0 .144 0 .144l-.288.288s0-.432.288-.432zm.432 2.448c.288-.288.576-1.152.576-1.152-.144-.144-.72 1.008-.576 1.152zm-1.872 3.456c.288-.432 1.44-1.872 1.152-2.304-.144-.288-.576.576-.576.72-.288.576-.576 1.008-.72 1.44-.432.72-1.152 1.728-1.152 2.736v.144c-.72.144-1.008 1.152-1.296 1.728-.432.576-.72 1.152-.864 1.872-.864 1.584-1.872 3.168-2.736 4.896s-1.584 3.6-2.592 5.472l-1.152 2.736c-.144.144-.864 1.584-.144 1.008.288-.288.576-1.152.864-1.584.144-.72.576-1.44.864-1.872.576-.864.864-1.872 1.152-2.736.288-.72.864-1.584 1.152-2.304 1.008-1.728 1.872-3.456 2.736-5.328.72-1.584 1.584-3.168 2.592-4.608.288-.576.432-1.296.72-2.016zm-.864 3.744c.144 0 .432-.576.288-.576s-.432.576-.288.576zm-.72 1.728c.144 0 .432-.864.432-1.008-.144.144-.72.864-.432 1.008zm-1.728 2.88s.288.144.288-.144-.288.144-.288.144zm-.576 1.44v-.144c-.288-.288-.432 1.296 0 .144zm-1.584 2.592c.144 0 .432-.144.144-.288-.144 0-.144.144-.144.288zm-3.456 1.728c.144-.144.288-.432.288-.576-.288.144-.288.288-.288.576zm2.304.576c.144.144.288 0 .432-.144 0-.288-.432 0-.432.144zm-.144.576s.288.288.288 0-.288 0-.288 0zm-2.16 4.32c.144.288.288-.144.144 0h-.144zm-2.592 1.008c0-.576-.432 0-.432 0s.288.288.432 0zm.144 2.016c.288.432.864-1.152.864-1.44-.288-.576-1.008 1.296-.864 1.44zm-.72 2.592c-.288-.144.288-2.016.576-2.16v-.144c.144.288-.432 2.304-.576 2.304zM34.6 73.17s-.576.144-.432.144c.144.144.72.144.72 0-.144-.144-.144-.144-.288-.144zm-1.872.288s-.432-.144-.144.144c.144.144.432-.144.576 0 0 0 .72 0 .432-.288-.144-.144-.72 0-.864.144zm-1.008.144c.144 0 .432 0 .576-.144 0-.144-.432-.144-.576.144zm0 0c0 0-.144-.144-.288-.144-.144.144.144.288.288.144zm-4.608-.144c.432 0 1.008-.144 1.44 0 .576.144.144.288-.288.288-.288 0-1.296.288-1.44.144-.432-.432.144-.432.288-.432zm-2.016.432c.288 0 1.296-.432 1.44 0 0 .288-1.872.432-2.304.576-.288-.144-1.296.144-1.008-.144.432-.432 1.44-.288 1.872-.432zm5.76.432c-.72 0-1.152-.144-1.728.288.576.144 1.152-.144 1.728-.144.72-.144 1.584-.144 2.16-.144s1.44-.288 2.016-.288l-.288-.288-.576.144c-.576 0-1.296 0-1.728.144-.576 0-1.152.144-1.584.288zm9.648-.288c-.288 0-2.448-.288-2.448-.144 0 .288 2.16.432 2.592.432.72-.144.576-.288-.144-.288zm-3.888-.144c0 .144-.864 0-.72.144 0 .144 1.44.144 1.44 0s-.72-.144-.72-.144zm-9.648.72c-.144-.288-3.312.432-3.312.576s.288.144.288.144c.576 0 1.296-.144 1.872-.288.144 0 1.44 0 1.152-.432zm8.208.144c-.144 0-.144.288-.144.288.144.144.432.288.576 0-.144 0-.288-.288-.432-.288zm-5.904.576c0-.288-.432.144-.432.144.144 0 .288.144.432-.144zm.72.144c.144-.144.576-.288.144-.288s0 .144-.144.288zm-7.056 0c.576-.144 0-.432-.288 0h.288zm5.472 0s-.288.144 0 .144c.432 0-.144-.288 0-.144zm-2.88.288c0 .144.288.144.432 0 0-.144-.576-.144-.432 0zm-1.44.432c.144 0 .576-.288 0-.288-.288.144-.144.144 0 .288zm-1.152-.144c-.432-.144-1.008.288-.432.288 0 0 .576-.144.432-.288zm21.888-10.656c-.144 0-.432-.288-.576-.288h-.432c-.288 0-.288 0-.576-.432 0-.144 0-.432-.144-.576l-.432-.288c-.144-.144.144-.144 0-.144-.72-1.152-.72-3.168-.288-4.32l.288-.72c.144-.144.288-.144.288-.288.144-.288 0-.864.144-1.152.288-1.008 2.592-4.32 2.88-5.472.144-.432.432-.432.72-1.008l.576-1.44c2.016-4.032 4.464-7.92 5.904-12.24.144-.576.288-1.152.576-1.44l.432-.576.288-.576c.288-.144.432-.144.72.144.144 0 .144.288.144.288.144.144.288-.144.432 0l.432.864c.288.288.72.288.864.576.144.144 0 .576 0 .864 0 .432.432.72.288 1.152 0 .576-.288 1.152-.288 1.584l-.144 1.008.144.144c0 .288-.144 0-.432.288-.288.144-.144.144-.288.576l-.288 1.296c0 .432 0 .432.144.72l.144.288c0 .288-.288 0-.288.288s.72-.288.72-.288l.288-.432.432-.288.288-.432c.288-.144.576-.144.72-.288.144 0 .144-.576.288-.576.144-.144.144.144.432 0l.432-.288c0-.288-.144-.432 0-.72l.288-.288c.144-.144.288 0 .432 0 .144-.144.576-.432.72-.72.288-.432.144-.864.576-1.008-.144.144.288.144.432.144s.432-.288.576-.432l.432-.432c.144-.288 0-.576.288-.576 0 .144.288-.144.288-.144H63.4l.72-.576.864-.432c.144-.144.432-.144.576-.144.144-.144.144-.144.144-.288.576-.432 1.44-1.152 2.16-1.44.288 0 .144.288.288.144l.432-.288c.288-.288.576-.288.864-.432.72-.288 1.584-1.296 2.304-.72.288.288.288.432.576.576h.432l.432.432c.288.144.72.144 1.008.432.144.288.144.576.432.864.144.144.576.288.72.432s.432.72.432.864c.432.864-.144 1.872-.432 2.592l-1.584 4.032c-.144.432-.288 1.008-.432 1.296-.288.288-.288.288-.432.576v.576l-.576.864c-.288.576-.576 1.008-.72 1.584 0 .288 0 .72-.144 1.008-.144.144-.288.144-.288.288-.144.144-.144.432-.144.72L70.6 51.86c-.576 1.584-.864 3.312-.576 5.04 0 .576 0 1.296.288 1.728l.432.576c.72.432 2.448-.432 3.168-.72.864-.288 1.728-.72 2.448-1.152l.864-.576c.144-.144.72-.144.864-.288 0 0 0-.288.144-.288.144-.144.288 0 .288-.144l.288-.288.576-.288.864-.72c.576-.288.72-.576 1.152-1.008l.864-.864c.144 0 .72-.576.864-.576.576.144-1.008 1.44-1.296 1.728s-.576.288-.864.432c-.144.144-.432.576-.72.72l-.72.576c-.288.288-.72.288-1.008.432l-.288.432-.432.144-.72.288c.144 0-.144.288-.288.288l-.432.288c-.144.288-.144.432-.432.576-.144.144-.432.144-.576.288.432 0 .72-.144 1.008-.432l.864-.432c.432-.144.288 0 .72-.288l1.44-.72.72-.288.576-.288c.432-.288.72-.864 1.152-.72-.144.288-.72.72 0 .576.144 0 .864-.576 1.008-.864s-.144-.576.144-.864c.144-.144.432-.288.72-.432l.72-.72.864-.576s.144-.288.288-.144c.288.144-.144.288-.144.288l-.288.144a.31.31 0 0 0-.288.288l-.432.432c-.432.432-.72.72-.576 1.296-.432.432-.72.72-1.296 1.152 0 0-.576.144-.432.576s1.872-1.296 2.16-1.44c.288-.288.864-.432 1.152-.864.432-.432 1.008-.576 1.44-1.152.144-.288.288-.72.72-1.008l.864-.432.432-.576-.72.576c-.288.288-.576.288-.864.576l-.72.72-.288-.144c-.144-.288.288-.288.576-.432l.864-1.008c.432-.576 1.152-.864 1.584-1.44l.576-.72c.144-.288.432-.288.72-.432.432-.288.72-.576 1.152-1.008l.432-.432c.288-.288.288-.432.432-.72.288-.144.576-.144.72-.288s0-.432.144-.576c0-.144.288.288.288.144l.288-.432c.144-.288.288-.432.432-.576.432-.432.72-.864 1.296-1.152.432-.144.288-.288.576-.576.144-.144.288 0 .432-.144l.144-.144c.432-.288.432-.72 1.008-.72-.432 0-.864 1.728-1.152 2.016-.432.576-1.008.864-1.44 1.296l-.576.72c-.432.432-.432.864-.864 1.296-.288.288-.576.288-.864.576 0 0-.576.432-.288.288l-.288.432-.576.576-.72.576-.432.576c-.288.432-1.152.576-1.584 1.296-.144.432-.144.72-.432 1.152-.144.288-.576.432-.864.72s-.72.576-.864.864c-.288.432-.432.864-.72 1.152l-.576.864c0 .144.144.288 0 .432s-.144 0-.288.144c-.432.432-1.296 1.008-1.584 1.584-.144.288-.144.576-.288.72-.432.576-.144-.144-.432-.144s-.72.432-.72.72h.144l-1.728 1.584-.864.864c-.432.144-.864.288-1.152.576-.432.288-.864.576-1.296.72l-.72.288-.576.288c-.864.288-1.728.288-2.736.288-.72 0-1.152-.144-1.728-.432-.432-.288-1.152-.144-1.584-.576l-1.728-1.44c-.576-.432-.72-1.008-1.152-1.728-.864-1.152-1.296-2.592-1.584-4.032-.144-.432 0-.864-.144-1.152 0-.288-.288-.576-.288-.864-.144-.144 0-.288-.144-.576 0-1.44-.288-2.736 0-4.176 0-1.152.576-2.16.72-3.168S66.424 44.37 67 43.65c.432-.72.576-1.584.864-2.304.144-.432 1.008-1.728-.144-1.152-.576.288-.864 1.008-1.44 1.152v-.144c-.72 0-1.152.72-1.584 1.296-.288.144-.72.288-.864.432s-.144.432-.288.576l-.432.288-.72.864a2.48 2.48 0 0 0-.864.864c-.144.432-.432.72-.864 1.152-.144.144-.576.576-.576.72-.144.144 0 .288 0 .432l-.432.864-.432.432c-.144 0-.288 0-.432.144s0 .288-.144.432-.288.144-.432.144c-.288.288-.576.576-.72.864-.288.432-.288.864-.432 1.152-.144.144-.432 0-.576.288 0 .144.144.288 0 .432 0 .144-.144.288-.288.432-.72.864-1.584 1.44-2.16 2.304-.432.576-1.008.72-1.296 1.152-1.728 2.88-1.872 3.312-2.16 3.6l-1.008 1.152c-.288.288-.576.72-1.008 1.008-.288.288-.432.288-.72.72l-.864.72c-.432.576-.288 1.44-1.008 1.728-.288.144-.72.288-1.152 0zm16.272-23.472l.144-.576c.144 0 .432 0 .576-.144 0 0 .864-.72.864-.576 0-.144-.288 0 0-.288l.144-.144c.144-.432.144-.432.576-.72.288-.144.432 0 .72-.288l1.728-1.296c.288-.144.576-.288.864-.576.144-.288 0-.432.432-.432v.144l.432-.432c.144 0 0-.144.144-.288-.144.144.432 0 .432 0l.432-.288c.432-.144.432 0 .432-.576 0 .432-.432.432-.72.432.144-.432.72-.576 1.152-.576l-.288.144s1.152-.144 1.152-.288c.144-.144 0-.288-.144-.288.288-.144.432-.288.576-.432-.576 0-1.008.432-1.584.72-.72.288-1.44.432-2.016.72-.432.288-1.296.864-1.728 1.296-.144.288-.288.576-.576.72-.576.288-1.008.144-1.44.576-.144.288-.288.72-.432.864l-.864.72c-.288.288-.576.576-.72.864l-.144.432s-.72.432-.432.432l.288.144zm-.576-1.584c.288 0 .432-.144.432-.288s-.432.288-.432.288zm6.192.576c.288 0 .432-.288.72-.576-.288.144-.576.144-.72.576zm28.224 1.44c0-.288.576-.432.864-.432l-.864.432zm1.152-.144c.288 0 .288-.144.432-.288h-.288c-.144.144-.432.288-.144.288zM59.656 43.22c.288-.144 1.44-.864.72-1.008-.288 0-.576.144-.72.432-.144.144 0 .576 0 .576zm32.688 1.152c0 .144.864-.144.864-.432-.288 0-.432.288-.72.288l-.144.144zm-4.608 5.76c.144 0 1.44-1.296 1.584-1.44.432-.432 1.296-1.584 1.872-1.296-.432 0-.432.576-.72.72 0 0 0 .144-.144.288-.144 0-.144-.288-.432 0-.144 0 0 .432-.144.576s-.432.144-.576.144c-.432.432-.576 1.008-1.296 1.008h-.144zm-.576-1.152c.288 0 1.008-.432.72-.72-.288-.432-.576.576-.72.72zm-.432 2.304c.288 0 .432-.432.144-.432s-.432.432-.144.432zm75.168-34.272c.144.576.144.432-.144.864-.432.432-.144.432-.72.288-.864.144-.72.144-.72-.432-.144-.576-.144-.72-.576-1.008-1.44-1.44-3.744-.864-5.616-1.296-.432-.144-1.008-.432-1.44-.432s-1.008.144-1.584 0l-1.728.432c-.432.144-.72-.864-1.152-1.008-.432 0-.864.288-1.44.288-.432.72-.864 0-1.296 0-1.152 0-2.016.288-3.168.144-1.872-.288-3.456.432-5.328.288-.288 0-.144-.144-.432-.144s-.576.288-1.008.288c-.864.288-2.016.288-3.024.432-.432.144-1.008.144-1.44.144s-.72.288-1.44.432c-.72 0-1.44.144-2.16.288l-4.608 1.152c-1.728.432-3.6.576-5.328 1.152-1.584.576-3.024.864-4.32 1.584-1.008.432-2.16.432-3.168.72-1.296.432-1.728.288-2.304 1.296-1.728 2.304-2.016 3.456-2.16 3.888l-1.296 2.592c-.864 1.584-1.584 3.456-2.592 5.04l-.864 2.016c-.432.72-1.584 3.168-1.872 4.032-2.304 6.768-2.16 7.056-2.592 9.072-1.152 3.744-2.592 7.488-2.88 11.52 0 .864-.288 2.016-.144 3.024.144.72.576.432 1.296.144.864-.288 1.584-.432 2.304-.864.864-.432 1.584-.864 2.304-1.296.144.864 1.152-.288 1.44-.576.576-.432 1.296-.72 1.872-1.296 1.152-.864 2.304-1.872 3.456-2.88l1.728-1.296c.288-.144.864-1.008 1.296-.864.576.144-2.016 2.016-2.304 2.304-1.008.72-.72 1.872-1.44 2.88-.576.72-1.584 1.584-2.448 2.016-1.152.72-2.016 1.728-3.024 2.592-1.152.864-2.16 1.728-3.168 2.592-1.728 1.584-4.896.72-6.192-1.152-1.872-2.736-1.728-6.48-1.296-9.504.864-6.048 2.88-11.664 6.768-21.888.864-2.304 2.016-4.464 2.88-6.624.72-1.44 1.008-3.456 1.584-4.176-.576 0-1.008.144-1.44.144-2.592.576-5.184.72-6.912.864-1.728 0-5.04-.72-5.76-2.448-.288-.72-.864-2.448-.144-3.024.432-.432.864.144 1.296.144.432.144.864.144 1.44.144h2.016c.432-.144 1.152-.288 1.728-.144.288.144.432.288.864.432.432 0 .864-.144 1.296-.288 1.584-.144 3.456-.864 5.04-.576 1.008.144 2.016-.432 3.168-.72 1.008 0 2.016-.288 3.312-.576 1.008-.144-.432-.144.432-.288.144-.144-2.304.144-2.304-.432l1.008-1.728c.144-.288 1.728-3.312 2.88-4.752 1.296-1.44 1.584-2.592 3.168-4.464.432-.576 1.728-2.736 2.16-3.168.72-1.44 1.584-1.44 1.872-2.88.432-.144 2.016.576 2.304 1.008.432 1.008.864 1.584.72 2.736-.144.864-1.296 3.312-1.728 4.176l-2.304 4.176c-1.728 3.6-1.152 3.024-.864 3.168s.144.144 0 .288c-.432.144-2.16.432-1.584 1.44.432.432 1.584 0 1.728-.144.288-.288-.432-.432.432-.432.144 0 1.44.144 1.44-.144 0 0-.288-.288-.144-.288.288 0 .432.144.576.144.432 0 .864-.288 1.296-.288 1.008-.144 1.872.144 2.88-.144.576-.144 1.296-.576 1.872-.864l2.016-.432 1.584-.144c.288 0 .576-.432.864-.432l1.008-.144c.288 0 .432 0 .72.288-.144 0-.144.144 0 .288l1.008-.144c.576-.288.288-.144.432-.576s0-.576.432-.72c.288-.288.576.288.864.288h1.44c.144-.144.144-.432.144-.432s0-.144.144-.144c.144-.144.432-.288.72-.144.432.144.864.288 1.44.288 2.016 0 3.888-.72 5.904-.72 1.152 0 2.448-.576 3.6-.288.576.144 1.152 0 1.584 0s.864 0 1.296.144.864-.144 1.44-.144l1.44.288c.432-.144.432-.288.864-.144.432 0 .864.288 1.296.288s.72 0 1.008-.432c.144-.144.144-.432.144-.576.144-.144-.144-.144.288-.288.144 0 1.008 0 1.152.144.432 0 .288 0 .72.432.432.144.72 0 1.152 0 .72.144 1.584.72 2.16 1.296.864.576 1.152 1.008 1.728 1.872.288.432.72.864 1.008 1.44s0 .432.144 1.008zm-8.928-6.912l.288.144c.144-.144-.288-.432-.288-.144zm-10.08.432c-.144.144-.72.288-.864.144l-.144-.144c0-.288 1.152-.144 1.008 0zm10.08.144c-.144 0-.864 0-.72.144.288.288 1.152.144.72-.144zm1.296.864c.288-.144 0-.288-.144-.288 0 .144-.288.288.144.288zm-28.512 1.296c-.288.144-.144 0-.288-.144.288 0 .576-.144.864 0-.144.144-.432.144-.576.144zm17.712.432c.576-.144-.576 0-.576 0-.144 0-1.296-.144-1.296.144.144.432 1.584.144 1.872-.144zm-4.608.288c0 .288 1.584 0 2.016 0-.432-.144-1.872-.288-2.016 0zm8.352.432c.432.144 1.152 0 1.584-.144l-1.44-.288s-2.16.288-2.016.432c.288.288.576 0 1.008-.144.288 0 .432 0 .864.144zm-21.024-.288c-.288.144.432.144.432.144-.144-.288-.288-.288-.432-.144zm-24.624 4.176c-.288 0 .576-.288.576-.288.288-.144.864-.288 1.008-.288-.288.288-1.008.72-1.584.576zm7.632 0c.288-.576-1.728-.144-2.304 0l-2.304.864c-.864.144-1.872.144-2.736.432 0 0-.864.144-.72.432.288.144.576-.144.72-.288h1.296l1.152-.288c.288 0 .576.144.864.144.432-.144.72-.432 1.008-.576 1.008-.432.72.288 1.728.288.576 0 1.008-.432 1.296-1.008zm-15.84 26.928c.144-.288 1.44-2.16.576-3.6-.288.144-.432 3.312-.576 3.6zm-1.152 2.88c-.288-.144.144-.432.144-.432s.288.432-.144.432zm-1.008 4.032c.432-1.44-.864.576-.288.72.144.144.288-.72.288-.72zm-1.152 4.032c.144-.144.288-.432.144-.432s-.288.288-.144.432zm9.216 6.624c0-.288-.432 0-.576.144 0 .144.576 0 .576-.144zm20.448 10.224c-2.304.288-3.888.432-5.904-.432-1.44-.72-2.592-1.728-3.744-2.592-1.152-1.008-2.16-2.592-2.736-4.032-.576-2.016-1.008-4.032-1.152-5.904 0-1.872.144-4.032.72-5.616 1.44-4.032 3.168-8.64 7.056-10.8.432-.144.864-.288 1.296-.576.432-.144.288-.432.432-1.008.144-1.152.144-2.304.72-3.312.432-.864.72-1.584 1.296-2.304.288-.288 1.008-.576.72-.72.144-.432.576-.576.864-.864.576-.432 1.008-.864 1.584-1.44.432-.432.72-.72 1.296-1.152.432-.288.72-.432.576.144 0 .288.864-.576 1.008-.576l1.008-.72c1.008-.432 1.152-.432 2.16-.288.576.144 1.296 0 1.872.144 1.44.288 2.88.432 4.32 1.008 1.152.576 1.872 1.584 2.592 2.736 1.44 2.448 1.296 5.04 1.008 7.776 0 .432-.432 1.728-.144 2.016.144.576.432.144 0 3.168.432-.432 2.016-.864 2.592-1.008.288 0 .72 0 .864-.144l.288-.288c.144.144.288 0 .144-.288h.432c.144 0-.288-.288.288-.288.144 0 .288.288.576.288.144 0 .864-.576.72-.144 0-.144-1.152.576-1.296.576-.72.576-2.016.576-2.304 1.44-.432-.288-4.176 1.152-4.032 1.44.144.144 1.296-.288 1.44-.432l.432.144.288-.432c.576.144.576.432.864.432-.144 0-.576.432-.576.432 0 .144.288 0 .576 0 .288.432-.144.432-.288.432 0 .144-1.152.144-1.008.288-.144.144.288 0 .288 0 .144.144-.576.432-.432.576.432.432 2.16-.864 2.304-1.008.432-.288 1.296-.432 2.016-.576-1.008 1.008.72.72 1.008.432l1.44-1.296c.144-.288-1.008.72-1.152.576 0 0 1.008-1.008 1.152-1.008 0 0 .72-.288.864-.144s-.576.432-.576.576c0 .432 1.152-.288 1.152-.144.288.288-1.008 1.296-1.296 1.44l-1.872 1.008c-.864.576-1.728.864-2.736 1.296-.864.288-1.008 1.008-1.728 1.152-.864.288-1.584.72-2.304.864l-.72.288c-1.296 2.88-2.448 5.904-3.888 8.784s-4.32 5.472-6.768 7.632c-1.152 1.152-2.016 2.016-3.6 2.448zm5.04-23.04c1.152 0 2.016-.144 2.88-.432 1.008-.288 1.728-.576 2.592-.72.576-.288 1.44-.576 1.872-1.152.288-.144.72-2.016 1.008-2.016.576 0-.576 1.152-.144 1.584.288.144.144-.864.432-.864.144 0-.144.576 0 .72.72.432 1.152-2.592 1.296-2.88.144-1.152.288-2.304.288-3.312.144-1.008.144-2.16-.144-3.312-.144-.288-.576-2.448-1.008-2.016-.144.144.432.864.432 1.008 0 .432-.288.576-.288.72.144.432.576 1.584.288 2.016 0 0-.144-.144-.144 0 .288.432.432.144.432-.144.288.288 0 .432 0 .576-.144.432-.144.72-.144 1.296a7.23 7.23 0 0 1-.288 1.728c-.144-.432-.432-.288-.576-.576-.144-.432 0-.864.144-1.296 0-1.008 0-2.016-.288-2.88-.144-.864-.288-1.872-.576-2.592-.144-.288-.72-.72-.72-1.008h.144c-.432-.288-.576-.864-1.008-1.152-.864-.288-1.728.288-2.448.576-1.872.432-3.168 1.008-4.176 2.736-.432.864-1.008 1.728-1.584 2.448-.432.864-.432 1.296-.72 2.304-.288.288-.576.864-.576 1.296 0 .288.288.576.288.864-.144 0-.432.432-.432.576-.144.432-.144.72-.144 1.152-.144 1.44.288 2.88 1.44 3.744.576.576 1.152 1.008 1.872 1.008zm24.624-7.632c.144.144.72-.288.864-.432-.144 0-1.152.144-.864.432zm-5.184 1.584c-.288-.144.864-.576 1.152-.72.72-.288 1.296-.72 2.16-1.008.432-.144 1.296 0 1.152.144.144.288-3.888 1.152-4.464 1.584zm-2.304 4.176c-.432-.288.72-.432.72-.432.288 0 1.872-1.008 1.872-1.152-.144-.72-4.752 1.872-4.752 1.296 0-.288 1.008-.72 1.152-.72l.72-.144s.144-.144.288-.144.288-.288.432-.432.864-.144 1.152-.432c.144.144.144-.144.144-.288.144 0 .576 0 .864-.144.72-.144 1.296-.72 1.872-.864.288-.288.576-.432.864-.576 0-.288 0-.288.288-.576.144 0 .432.144.576 0l.432-.288c0-.144.72 0 .72.144 0-.144-.288-.432 0-.432.144 0 .432.144.576 0 .432-.432.576-.576 1.152-.72.144 0-.144.432-.432.576-.72.288-.864 1.008-1.584 1.584-.576.144-1.008.576-1.44 1.008-.288.288 0 .576-.144.72s-.432.144-.576.144c-1.152.72-2.736.864-3.744 1.584-.144 0-.864.432-1.152.288zm-8.64-4.752c.288-.144.288-.576.576-.576-.576-.432-.576.288-.576.576zm0 .576c.144 0 .144-.432 0-.576 0 0-.144.576 0 .576zm9.936.144s.72 0 .72-.288c-.144.144-.864.144-.72.288zm-10.08 1.008v-.72c.432-.432.432.432.288.72-.144.144-.288.288-.288 0zm8.064-.144c.144.144 1.008-.144.864-.288s-1.152.144-.864.288zm1.728.72c.432 0-.432-.432-.144-.144l.144.144zM117.4 69.14c2.736-1.008 4.464-2.88 6.336-4.896.432-.288.576-.72.72-1.008 0-.144.144-.144.288-.144.288-.288.432-.432.72-.864.576-.864 1.44-2.016 1.728-2.88h-.288l.288-.576c.144 0 0 .432 0 .432.72-.72 1.152-2.016 1.584-2.736.144-.432 1.296-2.16 1.008-2.592-.288-.144-1.44 0-1.728 0l-2.16-.432c-1.152-.288-2.448-.576-3.6-1.152-.864-.432-1.728-1.008-2.448-1.728l-1.152-1.008c-.432-.432-.576-1.008-1.008-1.296s-.864-1.296-1.296-1.296c-.576.144-1.296 2.16-1.584 2.592-.72 1.584-1.728 3.168-2.16 4.896-.288.864-.72 1.728-.72 2.592-.144.864-.432 1.728-.432 2.736v1.872c-.144.72.144 1.008.288 1.44s0 .864 0 1.152c.144.864.432 1.584.864 2.304.288.864 1.008 1.872 1.728 2.448.864 1.008 2.016.72 3.024.144zm17.28-20.304c0-.144-.144 0-.288-.144-.288.144 0 .864.288.144zm3.888 0c.144-.144-.144-.144-.144-.144-.144.288.144.144.144.144zm-2.16.576c.144-.144 0-.288-.144-.432-.144.144-.432.288-.288.288l.432.144zm-10.656 13.392c.144 0 .144-.432.288-.288.288 0 .288.288.432.288.864-.144 1.44-1.872 1.728-2.448.432-.72.864-1.728 1.296-2.304.144-.144.288 0 .432-.288v-.288c.144-.144.144-.432.144-.432.144-.288.432 0 .288-.576.144 0 1.296-2.016.864-2.016l.432-.288c0-.576-.864-.144-1.008-.144-.576.144-.432.288-.864 1.008-.144.432-.432.72-.72 1.296v.288c.576.576-.144 1.44-.288.72.288 0 .288-.288.288-.576-.144.288-.288.288-.288.576-.288.288 0 .432-.144.72 0 .144-.432.432-.576.432-.144.144-.144.432-.288.576l-1.152 2.16c-.144 0-.576.576-.576.576.144.576.432-.144.432 0 .432.144.432.144 0 .432 0 0-1.152.288-.72.576zm3.888-6.48s.288-.432.144-.432l-.144.432zm-2.016 3.6c.144 0 .144 0 .144-.144 0-.432-.288.288-.144.144zm-.144.72c.144-.144.144-.144.144-.288-.144-.432-.288.288-.144.288zm-.576.864c0-.144.144-.144.144-.144-.144-.288-.288.144-.144.144zm-3.024 3.312c.432 0 1.872-1.872 1.584-2.016-.288 0-1.44 2.016-1.584 2.016zm-1.152 1.152c.144.144.432-.288.432-.432-.144-.288-.576.432-.432.432zM238.072 20.9c-.576 2.736-1.872 5.328-4.032 7.344l-1.872 1.728c.144 0-.432 1.008-.864.72l-.144.144-.576.72v-.144l-1.008.864-1.152.864c-2.304 2.16-5.04 3.888-6.912 5.04-7.056 3.744-14.256 6.912-21.888 9.504-1.296.432-4.176.576-4.464 2.016-.288 1.296 1.008 2.88 1.584 3.888 2.88 6.192 5.328 12.384 8.64 18.432 2.592 4.752 5.184 9.648 9.792 12.672 2.736 1.584 4.896 2.88 8.208 3.168 3.456.432 7.488-.144 9.504-3.456.288-.576 1.008-3.168 2.016-3.168.864.144 0 2.592-.288 3.024-1.728 3.888-6.48 5.904-10.512 6.192-.864 0-1.44.144-1.872.144l1.44-.144c-8.208.576-14.832-4.896-19.008-11.376-5.184-8.064-8.928-17.28-12.96-25.92-.576.576 0 1.872-.72 1.872.288.288-.432.576-.432.72h.576c0 .144-1.296 4.032-1.44 4.32 0-.144 0-.288-.144-.432 0 1.44-.576 2.88-1.008 4.464-.144 1.008-.576 2.016-.72 2.88l.288.432-.432.432-.288 1.728c-.432 1.584-1.152 3.024-1.296 4.608-.144.864 0 1.584-.144 2.304-.432 2.16-2.448.72-3.456-.432-1.728-1.872.288-6.768.864-8.928 1.008-3.6 2.016-7.344 3.312-10.944.576-1.584 2.88-5.472 0-5.76-1.152-.144-2.16 0-3.456-.432-1.872-.72-2.88-1.728-4.176-3.312 2.16.576 4.176.72 6.336.576.576 0 3.024 0 3.312-.576.144-.432-.576-.72-.576-1.152 0-.72.72-1.008 1.296-1.296.864-.288 1.008 0 1.44-.864.288-.576.288-1.44.576-2.016 1.152-3.888 2.304-7.92 3.888-11.664 1.584-3.6 2.16-7.632 3.6-11.376.288-.72 1.44-2.304 1.008-3.168-.864-1.008-2.736.864-3.312 1.296-3.312 2.448-7.2 4.32-10.656 6.624-2.736 2.016-5.616 4.464-7.2 7.488-1.008 2.016-2.592 5.184-4.608 2.16-2.16-3.312.864-5.904 3.168-8.208 1.44-1.44 3.024-2.736 4.752-4.032 4.32-2.88 8.64-5.472 12.96-8.208.288 0 .432-.144.72 0 1.296-1.152 6.48-3.312 7.488-3.6 7.344-2.736 15.264-4.608 23.04-3.312 2.736.432 5.328 1.296 7.488 2.88 4.32 3.168 5.184 7.632 4.32 12.672zM209.56 7.65c-2.736.576-5.472 1.728-8.064 2.736 1.152-.432.144.144.144 0 0 .144.144.144.288.144 1.152.432 3.168-.72 4.032-1.152 2.016-.72 4.032-1.44 6.192-2.016s4.608-.864 6.912-1.152c1.728-.144 4.608.576 6.192-.288-1.008-.864-3.168-.144-4.464-.144-.864.144-1.728.144-2.592.144-.576.144-1.728.576-2.16.144.288.72-2.736.576-3.024.576-1.152.144-2.304.72-3.456 1.008zm5.472-2.16c-.288 0-.864.144-.864.288.288 0 1.008 0 .864-.288zM211 6.5c-.288-.144-.576.288-.432.144.144 0 .432-.144.432-.144zm-2.592.72c0-.144-1.008.288-1.008.288.288 0 .864.144 1.008-.288zm-7.344 19.152c-.576 2.592-1.584 5.04-2.304 7.488l-.72 1.872c0 .288 0 .72-.144.864-.576.576-.288 0-.864 0 .144.72-.144.432-.576.576l.288.288-.288.432a1.1 1.1 0 0 1 .72-.288c0 .576-1.008 5.184-1.872 5.184.288-.576.576-1.152.576-2.16l-.144.432c-.72-.288 1.008-1.44.288-2.304-.864.288-.72 2.016-.864 2.592s-1.008 1.872-.432 2.016c-.864.576-.144 1.008.288 1.008.144.144 0 .432 0 .576h.144c.72.144 2.304-.576 3.024-.864l2.736-1.296c2.016-.72 3.888-1.584 5.904-2.304 4.032-1.44 7.776-3.744 11.376-5.904 5.76-3.456 12.528-8.064 15.552-14.4 1.152-2.448 1.872-5.616.72-8.208-1.44-2.736-5.328-3.456-8.208-3.744-3.744-.432-7.488.288-11.088 1.008-2.016.288-4.032.864-6.048 1.584-1.008.288-2.448.432-3.456 1.008-1.44 1.008-.72 2.736-1.008 4.32-.288 1.728-.864 3.456-1.584 5.04-.432 1.44-1.152 3.024-1.584 4.176 0 .144-.288.864-.432 1.152v-.144zm1.728-17.424s-.576.144-.432.288.72-.144.432-.288zm-3.024 1.44c-.288-.144-.72.288-.864.432l.864-.432zm-1.584 2.304c.864-.432 2.016-.576 2.448-1.584-2.304 1.008-4.752 2.016-7.056 3.312-1.584.864-3.168 1.872-4.752 3.024-.576.288-6.336 3.888-6.624 4.752-.144-.288-.432-.432 0 .144 0-.864 5.472-3.744 6.192-4.176a106.95 106.95 0 0 1 5.472-3.168l4.32-2.304zM231.736 28.1c.288-.288.72-.288 1.008-.576.864-.864 1.44-2.016 2.304-3.024.432-.576 1.008-1.872 1.584-1.728.288-.576 1.008-2.304 1.008-3.168-.72-.144-1.008 2.304-1.584 2.592-1.152.576.144-1.872-.288-2.304-.288-.288-1.584 2.88-2.16 3.744.576-.144 1.728-.576 1.584-.432-1.44.72-2.16 2.592-3.168 3.6-.288.144-1.008 1.152-1.44 1.008-.288-.288.72-.864.72-1.296-1.152-.144-2.448 2.016-3.168 2.736-1.44 1.152-2.88 2.304-4.464 3.312-3.168 2.016-6.48 4.176-9.792 5.76-3.888 1.872-7.776 3.6-11.664 5.184-1.872.864-3.744 1.44-5.616 2.16-.576.288-2.16 1.44-2.736 1.008.288.288 3.168.432 3.168.144.144.288-2.448.576-2.448 1.008s.864.144.864.144c.144-.144.432-.144.72-.288 0 .144.144.144 0 .288.144-.144 1.008-.288.288-.432 4.32-1.872 14.976-5.328 16.56-6.192l6.768-3.6c.576-.288 2.16-.72 2.448-1.44.144-.432 1.728-.864 2.16-1.296.144 0 1.44-1.584 1.008-1.584 0 0-3.312 2.16-3.312 2.016.144-.432.288-.72.288-1.152 1.44-1.296 2.736-2.16 3.312-2.16-.288 0 .576.864.576.576 0 .72-.72.144-1.008.432 1.296.864 2.304-.432 3.168-1.296.576-.432 2.016-1.296 2.016-2.16l-.72.288c-.576-.144 1.44-.864 1.296-.72.288-.288.432-.72.72-1.152zm2.16-5.904c.432-.144 1.152-1.728 1.008-2.16-.432.432-1.152 1.44-1.008 2.16zm-40.032 15.12c-.576 1.728-2.016 4.608-1.584 6.48.144-.288 1.584-2.16 1.584-2.448 0 .864-.144 1.728-.288 2.592l.864-2.016c.144-.144.288-.432.144-.432l.432-2.304c.432-.432.72-1.152.432-1.728 0 .144-.432.144-.576 0s-.144-.432 0-.72c.144-.72.432-1.44.72-2.016l.288 1.296c.576-.288.144-1.152 0-1.872 0-.288.144-.576.144-.864l2.16-6.768c.432-1.728 1.728-3.888 1.44-5.76-1.008 0-3.168 9.36-3.744 10.512-.72 2.016-1.44 4.032-2.016 6.048zm39.744-14.256c-.144-.288-.288 0-.288.144.144.144.144 0 .288-.144zm-52.704.288c.144.144.288-.432.144-.144 0 0-.288.144-.144.144zm50.112 1.872c.144-.288.576-.432.432-.576 0 .144-.432.432-.432.576zm1.152.144s.432-.432.288-.576c-.432 0-.576.432-.288.576zm-.576.288c-.72 0-.144.72 0 .432s.288-.432 0-.432zm1.152 3.312c.288 0 1.008-.288.864-.72 0-.288-.72.72-.864.72zm-3.024-.432s-.288.288 0 .288c.576 0 0-.432 0-.288zm1.008.432s.576-.144.432-.288-1.008.144-.432.288zm-2.448.576c-.144 0-.432.576-.288.576.288 0 .576-.432.288-.576zm-30.816 1.296c.432 0 .288-.864.288-.864-.288 0-.288.72-.288.864zm29.808-.432c0 .144.144.432.288.144 0 0-.144-.288-.288-.144zm1.152.72c.288 0 .432-.144.288-.288-.288 0-.432 0-.288.288zm-.72.576c.144 0 .288-.144.288-.144 0-.288-.576.144-.288.144zm-30.816 1.296c-.288 0-.576.864-.288.864.288-.144.288-.72.288-.864zm29.952 1.152c0 .144.72-.576 1.008-.864-.288.144-1.008.576-1.008.864zm-6.336 1.44c.864-.288 1.008.432.576.864-.144.288-.576.144-.864.144-.144.144-.288.432-.432.432-.72.432-2.592 1.872-3.6 1.728h-.144c0-.144-.144-.144-.144-.144v-.144c.144-.72 1.728-1.44 2.304-1.44.576-.144 1.008 0 1.44-.432.288-.144.576-.864.864-1.008zm-24.624 1.296c.144 0 .288-.432.144-.576l-.144.576zm24.192 0c.144.144.432.432.576.288 0-.288-.432-.432-.576-.288zm0 .432c-.144 0-.144-.144-.288-.144 0 .144-.144.432.288.144zm-26.064 3.456c-.288 0-.288-1.152.144-1.152h-.288c0-.288.432-2.016.864-2.016.288 0-.288 3.168-.72 3.168zm2.448-2.736l-.432.576c.288 0 .432-.576.72-.576h-.288zm17.28 2.016c.576 0 .72-.72.864-.864-.288 0-1.44.72-.864.864zm-3.888-.288c-.288-.144-1.728.576-1.584.576.288 0 1.296-.288 1.584-.576zm3.312.288c0 .144 0 .288.144.144s-.144-.288-.144-.144zm-1.152.576c.144.288.72.144.864 0 .288-.72-.864 0-.864 0zm-4.896.288c0-.288-.432.288-.576.288.144 0 .576 0 .576-.288zm3.744.144c-.144.432.576-.144.864-.144-.288-.144-.864 0-.864.144zm-.576.288c.576 0 .144.432-.288.72s-1.296.144-1.872.144c.432-.144 1.728-1.008 2.16-.864zm-15.84.576c0-.144-.144-.432.144-.432 0 .144-.144.288-.144.432zm11.232.576s.432-.144.288-.288c-.144 0-.432.144-.288.288zm-10.368.576c0-.144-.144-.288-.144-.432 0 .288-.144.576.144.432zm11.808-.432c-.432.432.288.288.288.288 0-.144 0-.288-.288-.288zm-2.016.576s.864 0 .72.288a.44.44 0 0 1-.576 0c-.144-.144.144 0-.144-.288zm-10.08.864c.288 0 .288-.288.144-.432-.144.144-.288.288-.144.432zm9.072 0c-.144 0-.288.288-.144.432.288 0 .288-.432.144-.432zm-2.592 1.008c-.288 0 .144.144.288 0 0-.144-.144-.144-.288 0zm-1.584.72c.144 0 .288 0 .432-.144-.576-.864-1.152.144-.432.144zm-.864 0c.144.144.432.432.432.144 0 0-.432-.288-.432-.144zm2.016.144c.288.144.288.144.432-.144-.144.144-.288 0-.432.144zm-3.456.576c.144 0 1.296-.144 1.296-.432-.576-.144-.864.144-1.296.432zm.576.576c-.144-.144.288.432.288.144s-.144-.288-.288-.144zm-.288 0c.144-.144-.288 0-.144 0 0 .144.144 0 .144 0zm-1.728.576c0-.144 0-.144.288-.144-.144 0-.144.144-.288.144zm-9.072 1.152s1.44-.288 1.584-.72c0-.288-4.608.288-5.04.288.288 1.008 2.448-.288 3.168.288l.288.144zm2.016 5.616c.288-.72.72-1.584 1.008-2.592.432-1.584-.288-1.872-1.008-.288-.864 2.016-1.296 4.176-1.872 6.336-.72 2.592-1.296 5.184-2.16 7.776-.432 1.296-.72 2.592-1.008 4.032-.144.864-.576 1.872-.576 2.88 0-.432.288-.432.144.144 1.008-2.016 1.008-4.752 1.728-6.768.72-2.592 1.872-5.04 2.592-7.632.432-1.296.432-2.592 1.152-3.888zm1.584-2.304c.144-.144.144-.432.144-.432 0 .144-.288.576-.144.432zm-.576 1.728c0-.144.432-.576.144-.72 0 .288-.576.432-.144.72zm6.48 6.48l-1.584-3.6a38.5 38.5 0 0 0-1.872-3.312c3.456 6.912 6.048 14.256 9.792 21.024.288.432 6.336 9.936 9.072 11.952-.288.144.288.576.72.432-.144 0-.432-.144-.72-.432l.576.144c-1.584-.72-2.592-2.448-3.744-3.888-.288-.288-2.736-4.464-2.88-4.464l.288-.144c-1.008-.288-1.728-2.304-2.304-3.168-.72-1.152-1.008-2.304-1.728-3.6-.864-1.728-1.584-3.312-2.304-5.04-.432-1.152-1.296-1.872-1.728-2.88-.288-.432-.144-.864-.288-1.44-.288-.576-1.008-1.008-1.296-1.584zm-9.072-5.04c.432 0-.288-.576-.144-.144 0 0 0 .144.144.144zm-.432 1.152c-.144-.144-.288.432-.144.432 0-.144 0-.288.144-.432zm-.72 2.304c-.144.144-.288.288-.144.432.144 0 .144-.288.144-.432zm-.432 2.016s-.288-.144-.144.288c.144-.144.144-.144.144-.288zm17.568 11.232c-1.44-3.024-2.592-6.192-4.608-9.072 1.008 2.016 1.584 4.032 2.592 5.904l1.728 2.88c-.288-.72-.864-2.016.288.288zm.864 1.728c0-.144-.144-.576-.432-.432l.432.432zm.72 1.008c.144-.144-.144-.432-.288-.576.144.144.144.432.288.576zm.864 1.296c-.432 0-.432-.864-.72-1.152.288 1.008.576 2.736 1.44 3.312h.144c.864.432-.576-2.592-.864-2.592v.432zm3.744 5.04c-.576-.72-1.44-1.152-1.872-2.016.576 1.152 2.016 4.464 3.456 4.608-.432.144-.576.288.288 0h.144c-.576 0-.576-1.008-.864-1.008v.144l-1.152-1.728zm3.744 4.32c0-.432-1.296-1.152-1.584-.72.72 0 .864 1.152 1.584.72zm43.344-31.392c.432-.72.288.432.432.576l-.864 2.016c-.432.144-.864.432-.864 1.008-.576.288-.72.864-1.008 1.152-.432.432-.72 1.008-.432 1.728-.144.144-.432.432-.72.576-.288-.144-.288 0-.432.144l-1.008.864c-.144.72-.72 1.008-1.296 1.44-.864.576-1.584 1.296-2.304 1.872a15.31 15.31 0 0 0-2.16 2.16c-.288.144-.72.144-.864.576-.144.288-.576.576-1.008.576-.144.144-.288.432-.432.72-.864.576-1.584 1.296-2.448 1.728l-1.872 1.008c-.432.288-.864.288-1.152.432l-1.872.432c-.576 0-1.296.144-1.728.144l-1.296-.144c-.576-.144-1.296 0-1.728-.432-1.008 0-1.728-.576-2.592-1.152l-1.584-1.296c-.288-.144-.288-.432-.576-.576-1.008-.72-1.728-1.872-2.304-2.88l-.576-1.296c-.432-1.296-.864-2.592-1.008-3.888l.288-2.16c0-.576.432-1.44.432-2.16.144-.576.432-1.152.576-1.728 0-.288.144-.576.144-.864l1.152-2.448 1.008-1.728c.432-1.152 1.008-2.304 1.728-3.456.432-.432.576-1.008 1.008-1.296l.288-.432c0-.144 0-.432.144-.576l2.016-3.024 1.008-1.152c.864-.72 1.44-1.584 2.448-2.16.576-.576 1.008-1.008 1.872-1.152.144-.144.288-.288.432-.576l.288-.288c1.008-.288 1.872-.72 3.024-.288l1.152.432 2.016 1.296c.144.144.288.288.288.432l.576 1.152c.288.288.144.72 0 1.152l-.144.432c.144.144.144.288.144.432 0 .576-.144 1.152-.432 1.584l-1.008 2.016-.288.864c-.144.864-.576 1.584-1.008 2.304l-.72 1.152c-.288.432-.864 1.008-1.296 1.44-.288 0-.432.288-.432.576 0 .144 0 .288-.144.432l-.72.864c-.144 0-.288.144-.432.288-.432.72-1.152 1.44-1.728 2.016l-.576.576c-.144.144-.144.288-.288.288-.576.288-1.152 1.008-1.728 1.296-.432 0-.576.432-.864.576-.864.576-1.728 1.008-2.592 1.296s-1.584.432-2.16.576c-.432 0-.576.288-.576.576l-.288 1.008c-.288 1.296-.288 2.592-.144 3.888.144.432.144.72.288 1.008l.432 1.152c.144.72.576 1.296 1.296 1.872.432.432 1.008.432 1.728.576.576-.144 1.296 0 1.872-.144 1.296-.144 2.304-.432 3.6-.864 1.008-.288 1.872-.72 2.88-1.152l.864-.288.288-.144c.144 0 .288 0 .432-.144.432-.288.72-.576 1.296-.72.288-.576 1.008-.72 1.296-1.296.144-.288.576-.432 1.008-.576.432-.288.864-.576 1.152-1.008 0-.144.144 0 .288 0 .432-.144.432-.288.432-.432.144 0 .144 0 0-.144l.144-.576c0-.144.144-.288.432-.432 1.008-.72 2.16-1.584 3.024-2.592.144 0 .144-.144.144-.144.288-.144.576-.288 1.008-.72.288 0 .576-.288.864-.576s.576-.72.576-1.152c0-.288 0-.432.288-.288s.432-.144.432-.288c.288-.144.432-.288.432-.432.144-.144 0-.144 0-.144.144-.144 0-.144-.144 0s-.144.288-.288.576l-.288-.144s-.144 0-.144-.144c.288-.144.432-.72.864-1.008.144-.144.144-.432.288-.288s0 .288 0 .432v.144h.144c.144-.144.288-.432.288-.576.144-.144.72 0 1.008-.144.144-.144.72-.432.864-.432l-.288.576c-.432.864-.864.72-1.008 1.152l-.72.72-.864 1.008c0 .144 0 .288-.144.288l-1.872 2.16.144.288h.144c.288 0 .432-.144.576-.432l.576-1.296.432-.288c.288-.144.432-.432.72-.72.288-.432.72-.864 1.152-1.296l1.296-1.872zm-27.648 1.152v.576c0 .144 0 .144.144.144 0-.144.144-.144.144-.144.72-.432 1.728-1.008 2.304-1.44l2.16-1.584c1.152-1.008 2.448-2.016 3.6-3.168 1.008-1.152 1.728-2.016 2.448-3.168l.144-.144c0-.576.288-.72.576-1.008 0 0 .144-.144.144-.288.432-.576.864-1.152 1.008-2.016 0-.144.144-.144.288-.288l.576-1.584c.144-.288.144-.72.144-1.152.144-.864-.144-1.44-.576-2.16-.144-.432-.864-.576-1.152-.288l-2.16 1.008-.432.432c0 .432-.288.72-.432 1.152-.144.288-.288.576-.576.72-.288.432-.864 1.008-1.008 1.584l-.432.432c-.864 1.008-1.584 1.872-2.304 3.024l-.864 1.152c-.144.864-.72 1.584-1.008 2.448l-1.152 2.16-1.584 3.6zm22.176 3.024s-.144.144-.288.144h-.144v-.144c.144-.288.288-.144.432 0zm-.864 3.168c0-.144.144-.288.144-.432-.288-.144-.432.144-.576.288l-.288.432c-.432.144-.72.72-1.008 1.008v.288s.144.144.144 0c.288 0 .72-.144.864-.576l.72-1.008zm-2.592.576c.288 0 .432-.288.72-.432.144-.144.144-.288.144-.432-.144.144-.144.288-.144.432-.432 0-.432 0-.72.432zm45.072-18.288c1.152.576.72 1.44.288 1.872a21.09 21.09 0 0 1-4.32 1.584c-1.152.144-2.304.576-3.456 1.008-1.008.288-2.304.576-3.312 1.152-1.152.432-2.16.72-3.168 1.008s-2.16 1.008-3.168 1.296c-1.296.576-2.16.864-3.024 1.44l-.864.72c-.432 0-.864.432-1.296.576-.432 0-.72 0-1.008.288-.144 0-.144.432-.288.576h-.288c-.432 0-.576-.144-1.008.144l-.432.432c-.288.144-.576.576-.864.864.144-.144.432-.144.288.288-.432.72.432 1.872.72 2.592 1.872 4.464 3.312 9.216 1.728 14.112-.864 2.304-1.728 4.464-3.168 6.48-1.296 1.44-2.736 2.592-4.176 4.032-1.728 1.584-3.6 3.024-5.328 4.464-2.016 1.296-4.032 2.16-5.904 3.456-2.016 1.008-4.032 2.304-6.048 3.312-2.16 1.008-4.32 2.016-6.48 3.168-3.888 2.016-8.496 4.176-13.104 5.04-2.016.288-4.608 0-5.904-1.728-.72-1.008-1.152-2.304-.72-3.312.144-.432.72-2.304 1.296-2.448.144.432-.144 2.016.288 2.16.288-.144 1.008-2.016 1.008-2.448.576-.576 1.152-1.872 1.728-2.448l1.008-.432c.288-.288.432-.72.576-.72.144-.288.576-.576.864-.288s-.432.288-.576.576c-.144.144-1.152 1.44-.576 1.44.432.144.432-.72.432-.864l1.008-.72c.576-.576.864-1.152.432-1.728 1.152-.144 1.872-1.008 2.16-1.872.288-.576.288-.72.576-.864a.63.63 0 0 0 .432.144c.144-.288.432-.576.576-.576.432-.576.576-.864.864-1.44.432-.288 1.008-.864 1.44-1.152l1.728-1.44c.288-.576.432-.864.72-1.152 0 0 .288 0 .432-.144l.72-.288c.144-.144.576 0 .576 0 .288-.288 0-.72.288-.72.288-.576.72-.432 1.152-.576l1.584-1.296c1.152-.864 2.016-1.872 3.024-2.88.288-.288.576-.864 1.152-1.152.288-.288.72-.432.72-.864 0-.288.288-.72.432-.576.144-.144.432-.144.576-.288.288-.144.144-.432.288-.576.144-.288.432-.144.576-.432s.144-.432.432-.864c.288-.576 1.152-.72 1.728-1.152l.432-.432c0-.432-.432-.576.144-.72.144-.288.144.288.432.288.432.144 0 0 .576-.288.864-.432 1.584-1.008 1.872-2.16l.144-.144 1.008.144c.576-.432 0-.432 0-.576.144-.576-.288-.144.288-.576l1.296-.72c-.144.288-.144.288.144.432.144-.144.432-.432.432-.72-.144.144-.432.144-.576.144.144-.72.72-.72 1.296-1.008.144-.144 1.872-.72 1.296-1.008.72-.144 1.008-1.584 1.872-1.44 1.008.144-.288.576-.72 1.008l-1.728 1.728c-.72.576-1.44 1.296-2.016 2.016-.288.144-1.584 1.152-1.152 1.44.288.144 1.008-.576.144.432-.432.144-1.008.864-1.296 1.008-.432-.144-.144-.432-.144-.432.288-.144 1.152-.72.864-.864-.432-.432-.864 0-.864.432s-1.008.576-1.296.864c-.288 0-.576.72-1.008.864-.72.864-1.584 1.44-2.448 2.304-.432.144-1.008.432-1.44.72l-.72 1.152c-1.872 1.584-3.744 3.168-5.472 5.04-.144.144-.864.72-.864 1.152.144.288 1.008-.72 1.152-.72l1.44-1.152c.144-.432.576-1.152 1.152-1.008-.144.72-.72 1.152-1.296 1.584l-1.872 1.728c-.72.432-1.296 1.296-1.872 1.728-.72.432-1.152 1.008-1.728 1.44-.72.432-.432-.144 0-.576.144-.144 1.152-.864.72-.864-.288-.288-1.44.864-1.584 1.152-.72.864 0 .432.288.864 0 .288-1.584 1.728-1.872 2.016-.576.72-1.44 1.44-2.16 2.304l-1.44 1.728c-.864.576-1.152 1.296-1.728 2.016-1.152 1.296-2.304 2.736-3.312 4.32-.432.576-1.008 1.584-.864 2.304 0 .864.864.432 1.584.144 3.744-1.008 7.2-2.736 10.944-4.464 3.312-1.728 6.336-4.032 9.936-5.328.432.72-6.48 4.176-7.488 4.608-1.44.864-3.168 1.584-4.752 2.448-.432 0-3.744 1.44-3.456 1.728 0 .288 6.624-2.88 7.344-3.168 1.152-.576 2.16-1.152 3.168-1.584 1.296-.864 2.448-1.296 3.744-2.16.432-.432 1.152-1.008 1.872-1.296.432-.144 1.008-.432 1.44-.864 1.152-.576 2.304-1.44 3.456-2.304 1.008-.576 2.448-1.296 3.312-2.016-.144-.144.144-.432 0-.576l.72-.576c.432-.288 1.008-.576 1.296-1.008 1.008-.72 1.872-1.584 2.736-2.448l2.448-2.736c.288-.432 1.152-1.152 1.296-1.584s-.144-.576.288-1.008c0-.288.576-.864.864-1.296l.72-1.584c.864-2.736 1.296-5.472.864-8.208-.144-1.44-.864-2.736-1.296-3.888-.288-.576-.288-1.008-.72-1.44-.576-.576-.72-.144-1.008.144-.72.288-1.008.864-1.44 1.296-.144.144-.432.144-.576.432-.288 0-.432.288-.576.432h-.864c-.288-.288-.288-.288 0-.72.72-.72 1.872-1.008 2.736-2.016.432-.432.864-1.008.576-1.44h-1.152c.144-.576.576-.576.288-1.152-.288-.72-.864-1.296-1.296-1.728-1.008-1.44-1.728-2.736-2.448-4.176-1.296-2.88-1.584-5.904.144-8.784 1.296-2.016 3.456-4.032 5.328-5.472 2.16-1.584 4.608-3.024 7.344-3.6.72 0 1.296-.432 2.016-.288.576-.144.864 0 1.44.144 1.152.432 2.016.576 2.736 1.296.432.288 1.152.864 1.008 1.44.144.432-.72.72-1.008 1.008.288-.144-1.584.864-2.448.288-.432-.288-2.592.72-3.744 1.44-1.296.576-2.448 1.44-3.6 2.304-1.008.576-2.16 1.296-2.88 2.16-.864.72-1.584 1.728-2.16 2.736-.576 1.152-.72 2.592-.576 3.744 1.152 4.608 2.016 5.04 2.88 6.336.144 0 1.584-.72 2.736-1.296.864-.144 2.16.432 2.736 0 .144-.288.288-.432.576-.72.288-.144.72-.144 1.008-.288.288 0 .72 0 1.008-.144l.576-.72c.288-.432.576-.432.72-.864.432-.144.432-.432.864-.576-.576.576.432 0 1.152-.576 0 .144.144.432.432.144.144 0 .144-.288.144-.288.576-.432.576 0 .864 0 .576.288.72.288 1.44 0 .288-.144.576-.576.864-.432.432-.144.864-.144 1.296-.288 1.872-.576 3.744-1.44 5.472-2.016.288-.144 2.88-.576 2.88-.864-.144-.432-1.872 0-2.016.288-.864 0-1.872 1.008-2.448.576-.72-.288 1.152-.72 1.44-.864.144-.144 2.736-.576 2.88-.864-.144-.576-1.728.144-2.16.144.576-.576 1.728-.432 2.448-.72l1.44-.432c.432 0 .432-.576.72-.576.432-.144.864.288 1.008.432zm-11.376 3.312c-.144.144-.432 0-.432 0h-.144c0-.144 2.016-.576 2.16-.72.144.144-1.008.432-1.584.72zm2.88-.288c.288.144-.288.288-.288.288h-.864c.144-.144 1.008-.576 1.152-.288zm-1.152.288c-.288 0-1.296 0-1.44.144.288 0 1.152.432 1.44-.144zm-3.024 1.296c.288-.144.288-.288.576-.288-.288-.432-1.008.144-.576.288zm-2.304 0c-.144-.288-.864.144-.432.144-.144.144.576 0 .432-.144zm1.296.288c-.144 0-.288.144-.288 0s.288-.576.288-.288c.144.144.144.288 0 .288zm-4.752 1.152c.144.144.288-.288.432-.432-.288.288-.576.288-.432.432zm.288 1.008c0-.144.144-.144.144-.144 0-.288-.288.144-.144.144zm-2.448.72c.144 0 .288-.144.288-.144.144-.144-.144-.144-.288.144zm-4.176 1.152s.576.144.432 0c.432.144-.144-.432-.432 0zm-6.336 7.632c-.144 0-.576.576-.576.576.288.144.432-.432.576-.576zm-1.584.432c.144 0-.432-.144 0 .288v-.288zm-6.768 2.88c-.144.144-.144.144-.144 0-.288-.288 2.88-2.448 3.312-2.448-1.008.864-2.016 1.728-3.168 2.448zm7.344-2.304l.144-.144s-.432.288-.144.144zm-2.16 1.728c-.144.144.144.144.144 0 0-.288 0-.288-.144 0zm-7.92 2.736c-.144 0-.288.288-.288.288.144.144.288-.288.288-.288zm-2.736 2.592s.432-.576.288-.576c-.144-.144-.864.432-.288.576zm-1.44 1.008s-.72.288-.72.576c.144-.144.576-.144.72-.576zm3.744 1.152s.432-.576.576-.288-.576.576-.72.576l.144-.288zm-2.016 1.728c.576-.576.576-.144.288.432l-1.44 1.152c-.432.288-.72 0-.144-.432.288-.432 1.008-.576 1.296-1.152zm-5.904.864c.144-.288-.288.288-.576.288.288.144.576 0 .576-.288zm-7.056 6.624c-.144.144 0-.432 0-.432 0-.144.432-.576.576-.72l2.016-1.728a11.51 11.51 0 0 1 1.872-1.872c.144-.144 1.152-1.152 1.296-1.008.144 0-1.584 1.872-1.872 2.16l-.432.576s.144 0 .144.144l-.432.432c-.288.144-.576.72-.864.72-.432.288-.576-.144-.864.288-.288.288-.288.432-.432.72-.288.288-.72.432-1.008.72zm29.952-4.896c0-.288.288-.576.144-.576-.144-.288-.432.576-.144.576zm-19.584-.144h-.144c-.144.288-.144.576.144 0zm-1.728 1.584c.144.432.864-.72 1.152-.72-.432 0-1.44.576-1.152.72zm-1.008 1.44c-.144.144-.288.144-.432 0 .144-.144.72-1.152 1.152-1.008s-.432.72-.72 1.008zm-2.304-.288c-.144 0-.72.576-.432.576.432.144.576-.864.432-.576zm-2.16 1.728c.288.144.72 0 .864-.288.432-.288-.72.144-.864.288zm-13.248 11.088c-.144 0 .432-.576.432-.72l1.44-1.728c.864-1.296 2.016-2.592 3.168-3.6 1.008-1.008 1.728-2.16 2.88-3.024.576-.576 1.008-.864 1.584-.864.576-.144.432-.144.432.432-.432 1.008-1.728 1.296-2.304 2.16-.72.864-1.728 2.016-2.448 2.736-.576.432-1.008.864-1.584 1.008l-.432.432c-.144 0 0 .288-.144.288-.288.576-1.152 1.008-1.44 1.44l-1.44 1.584c-.144.144-.144 0-.144-.144zm34.992-8.64c.144-.288-.432.432-.144.144.144 0 .144 0 .144-.144zm-26.352 3.6c-.144.432.576-.288.288-.144-.144 0-.144.144-.288.144zm17.712 4.608c.432-.144 0-.288-.288-.288-.576.432 0 .432.288.288zm-29.52 3.024c-.144-.288-.72.432-.576.576.144-.144.576-.432.576-.576zm23.328.72c.144 0-.576-.144-.576.144-.144.288.576 0 .576-.144zm-24.48.72c-.144-.144-.144.432-.144.432s.288-.288.144-.432zm-1.008 1.872l.288-.288c0-.432-.288.144-.288.288zm7.488 4.032c.576-.288-.864-.576-1.152-.144-.432.576.864.288 1.152.144zm-2.736.72c.144-.144.144-.144 0-.144-.144-.144-.288 0 0 .144zm93.312-37.008c.432 0 .864-.144.864 0-.432.72-1.728 2.592-1.152 3.168-.864.72-2.736 3.024-3.024 3.312-1.872 1.872-5.616 5.472-8.352 4.608 0 .144 0 .144-.144 0h-.144c-2.592-.864-5.04-2.16-6.048-4.752-.576-1.584-2.16-6.048-.72-7.488.432 1.152-.72 4.032.288 5.04.864 0 0 .144.144.432.576 0 .288 1.44.72 1.728.288-.288-.432-2.16-.432-2.736 0-1.296.72-2.736.288-4.032l-.144.144c-.288 0-.144-.576 0-.864l-.72-.288c.288-.432.72-.864.576-1.008-.432-.432 1.296-4.464 1.584-4.176.144 0-.432 1.44-.432 1.584.144-.288 1.008-1.44.864-1.872-.288-.432-.576.432-.576-.72 0-.432.432-1.008.576-1.44.144-.288.864-4.176 1.008-4.176-1.44 0-.288 3.888-1.872 4.032.576 1.584-.864 3.888-1.296 5.472l.288-2.16c.288-1.152.288-2.448 1.008-3.456 0-.432 1.008-2.304-.288-1.44-.432.288-.576 1.44-.72 2.016-.432 1.008-1.152 1.872-1.872 2.736-2.88 4.032-5.616 8.496-9.792 11.376-3.456 2.448-7.488.288-8.496-3.6-1.152-4.608.864-10.368 2.16-14.688.72-2.304 1.872-4.608 2.736-6.768.432-1.296 1.44-3.6 2.016-5.04.288-.72 1.296-.288 2.016.144.288.144.72-.432 1.008-.144s.288.432.576.72-.144 1.296-.432 2.16c-.144.864-.72 1.872-1.152 2.592l-1.008 2.736c-1.584 4.464-2.736 8.064-4.032 12.528-.432 1.44-.432 2.448-.432 3.888 0 .864-.288 2.592.288 3.168 1.728 1.728 6.624-5.184 7.632-6.192.288-.288.576-.864.864-1.152.144-.144.576 0 .72-.144s.144-.432.288-.576c.288-.288 1.296-2.016 1.44-2.016v.144c.144-.72 1.728-1.296 1.44-1.728l1.008-1.152c1.296.72-.576.864-.576.864-.144.288.576.288.432.432l-.144.288c-.144.432-.576.72-1.008.864.432.864-1.008 1.44-.864 2.16 0 .144.576.288.576.72 0 0-.288 1.152-.576.864-.144 0 .144-.288 0-.432-.288-.144-.144.144-.432.144 0-.432-.144-.864-.288-1.152 0 .288-1.008 1.584.288 1.296-.288.144-.432.288-.432.576.144.288.576-.432.864-.144 0 .288-.72.864-.288 1.152.864-.864 1.44-2.16 2.16-3.168 1.008-1.584 2.16-2.88 3.024-4.464.864-1.728 1.872-3.312 2.592-5.184.72-1.44 1.152-3.024 1.872-4.608.576-1.008.576-1.296 1.008-2.736.288-.576.72-3.168 1.584-3.168h1.584c.288.144 1.008 1.008 1.152 1.008-.144 0 .864.576.72.432.432.432.288 0 .432.72 0 .864-.432 1.872-.864 2.736l-2.16 4.896-1.296 3.6c-.144.576-.432.72-.576 1.44 0 .72-.432 1.44-.576 2.016-1.008 3.168-2.736 11.232-2.304 14.256.576 3.168 2.592 3.744 5.184 2.16 1.44-1.008 2.88-2.16 4.32-3.312l1.584-1.44c.144-.288 2.016-1.44 2.448-1.584h-.432c.144-.288.432-.576.72-.72l-.144-.144.432-.288c.144 0 .144.144.144.144h.432v-.144c0-.288.288-.288.288 0zM304.888 44.66c-.144-.144-.288-.144-.432 0 0 .576.288 0 .432 0zm2.16.576c-.144 0-.288.144-.144.432.288 0 .432-.432.144-.432zm-23.328 3.6c-.144.144-.864.432-.288.72l.288-.72zm20.736 3.456c0 .288-.72 2.304-.432 2.304.432 0 .576-2.016.576-2.016.288.288-.144-.288-.144-.288zm-22.32 1.008l.144-.864c-.144.144-.432.864-.144.864zm15.12 1.584l.288-.288c.144 0 .144.144.144.288-.144.144-.288.144-.432 0zm6.768-.144c0 .288-1.008 2.592-1.296 2.88 0 .576.144.288.144.144.288-.432.864-1.872 1.152-2.304v-.72zm-22.896 1.872c.144-.144.432-.72.432-.864h-.144v-.432l-.432.864c0 .144 0 .288.144.432zm20.88-.576c.144-.144.144-.288.144-.432-.288 0-.144.432-.144.432zM280.84 58.05c.144-.288.288-1.152.288-1.296-.288 0-.576 1.152-.432 1.296h.144zm20.88 5.616l.72-3.024c.144-.432 1.008-1.872.72-2.16-.432-.72-.576.288-.72.72-.288.72-.72 4.32-1.44 4.32l-.144 1.44c.432.288.288.576.144 1.008h-.144v.144l.144-.144.288-.144c-.288.432-.144 1.008-.144 1.584 0 .144.432-.864.432-1.152.144-.864 0-1.728.144-2.592zm-21.168-4.752v.144c.288 0 .72-.576.144-.864l-.144.72zm20.448.72c-.144.288.432-.432.576-.72 0-.432-.576.288-.576.72zm-20.016-.144c.144-.144-.432-.288-.432-.288v.432l.432-.144zm-.576 2.304c.576.144.144-1.728.144-1.872-.144.432-.288 1.008-.288 1.296 0 .144 0 .576.144.576zm39.6-.432l-.864.864c.288.288 1.008 0 1.008-.432-.144 0 0-.288-.144-.432zm-26.496 1.728c.576 0 1.008-1.008 1.44-1.296 0-.288-1.008 0-1.152.144s-.144.864-.288 1.152zm5.76-.576c-.144 0-.288 0 0 .144.432-.144-.144-.72 0-.144zm1.152.288c.144.288.432.288.432.144s-.288-.288-.432-.144c.144-.432-.144-.288-.144-.288l.144.288zm.576.288h-.144c.144-.144.72-.432.288-.432l-.288.432c-.144 0-.144.432-.144.432.288-.144.288-.144.288-.432zm17.568-.144l.432.432h.144v-.144c0-.144-.288-.288-.576-.288zm-18.864.864c.288 0 .288 0 .432-.288-.144-.144-.144 0-.432.288zm1.152-.288s-.144 0-.144.288c.144 0 .432 0 .144-.288zm-.864 1.008c.144 0 0-.288 0-.576-.144.144-.432.144 0 .576zm-.288.432c.432 0 .288-.72 0-.432v.432zm0 1.296c-.288-.288 0-1.008.288-.576 0 .144 0 .432-.144.576h-.144zm18.144.576c0-.144 0-.432.288-.144 0 0-.144 0-.288.144zm24.336-33.264c.72-.144 1.44 1.44 1.584 1.728v1.584c-.144.72-.72 1.584-1.152 2.16-.72-.432-.72-.72-.72-1.296 0-.288-.144-1.728-.432-1.728-.864 0-2.016 1.008-2.448 2.016-.576.144-1.152 1.584-1.584 1.872.576-.432-.288.576-.432.576s-.288.288-.432.576c-.288.576-1.872 1.728-2.016 2.304l-1.008 1.152-1.152 1.296c-.144.144-.288.72-.576 1.008-.432.864-.864 1.44-1.44 2.16s-.864 1.44-1.44 2.16c-.576 1.152-1.008 2.16-2.16 3.168-.288.288-.576 1.152-.72 1.584-.72 1.44-3.312 8.064-4.032 9.504-.576 1.152-1.008 2.304-1.152 3.6-.288.432-.432 1.008-.576 1.584l-.432.288c-.288-.144-.576-.288-.72 0-.144.144-.288.288-.576.144l-.576-.432c-.432-.144-.864-.432-1.296-.72-.288-.144-.432-.288-.432-.432-.288-.288-.576-1.008-.72-1.44 0-.144 0-.432.144-.576.432-1.728.72-3.168 3.312-9.936l.432-1.44c.144-.576.432-1.008.288-1.44 0-.576.144-.864.288-1.152 0-.144.288-1.008.432-1.296v-.576l.576-2.448c0-.576.144-1.008.288-1.728v-.288c.432-.864.72-2.16.72-3.024l.72-2.016c.144-1.728.576-3.456.576-5.184-.144-.288 0-.72 0-1.296s.288-.72.72-.72l1.296.432c.288 0 .432.144 1.008.144.288 0 .576 0 .576.432l.432.432c.72.72 1.008 1.584.864 2.736.144.72.144 1.872 0 2.88-.144.72-.864 1.296-.864 2.592 0 .144-.144.72-.288.864-.288.576-.576 2.016-.72 2.592v.144h.144c.288-.288.432-.576.432-.864.432-.432 1.296-1.872 1.872-2.304.144.144 0 .288-.144.432-.288.72-1.152 2.16-1.44 2.736-.144.576 0 .576-.144 1.008 0 .144-.144.144 0 .288 0 0 .144 0 .144-.144.576-.432 1.296-1.44 1.728-2.448 0 0 0-.144.144-.144.864-.864 1.44-2.016 2.304-3.024.864-.864.288.144 1.008-.72l.864-1.296c-.144-.432.144-.72.288-.864l.288-.288h.144c.288.144 0 0 0 .432 0 .144-.144.432-.576.576v.144c.144.144.288.144.288 0h.144c-.144-.288 1.152-2.016 1.584-2.016.144-.288.432-.864.432-1.008.144-.288.144-.288.288-.288v.144l.72-1.296c.576-.864 1.152-1.008 1.296-1.584 0-.144 1.152-1.152 1.152-1.152.288-.288.288-.576 1.296-1.152.432-.144.72-.144 1.152.144.144.144.288.288.432.144zm-9.792 7.488c-.432.144-.432 0-.288 0 .72-1.008 1.44-1.872 2.448-2.88 0-.144.288-.288.432-.576l.432-.288c.432-.576 1.296-1.296 1.584-1.44.144.144.576-.288.288.288l-1.44 1.152c-.432.576-1.44 1.44-2.016 2.16l-.864.864v.144l-.576.576zm2.448-1.872c-.144 0-.144 0-.288.144l-.72 1.152h-.144c.72-1.584 3.024-3.6 2.304-2.736l-.144.288c-.288.432-.432.72-1.008 1.152zm1.008 1.152c.432-.144 1.296-1.44 1.008-1.152-.288.432-.72.864-1.008 1.152zm.576-1.152c.144-.144 0-.144-.288 0v.144c0 .144-.432.576-.576.72h-.144c0 .144 0 .144.144.288l.864-1.152zm-5.328 3.744c-.72.576-1.008 1.44-1.728 2.016h-.288v-.288s.144-.144.288-.144c.576-1.008 1.296-2.016 2.16-2.88l.432-.288c-.288.288-.432 1.008-.864 1.584zm.144 2.592c.432-.288.72-.72 1.152-1.152l1.296-1.872.144-.144h-.144c-.432.864 0-.576-.576.288-.144.288-.144.432-.432.72 0 0-.144 0-.288.288 0 .432-.432.576-.576.72-.144.432-.432.72-.72 1.152v.144c.144 0 .144 0 .144-.144zm34.128-11.952c.72-.144 1.44 1.44 1.584 1.728v1.584c-.144.72-.72 1.584-1.152 2.16-.72-.432-.72-.72-.72-1.296 0-.288-.144-1.728-.432-1.728-.864 0-2.016 1.008-2.448 2.016-.576.144-1.152 1.584-1.584 1.872.576-.432-.288.576-.432.576s-.288.288-.432.576c-.288.576-1.872 1.728-2.016 2.304l-1.008 1.152-1.152 1.296c-.144.144-.288.72-.576 1.008-.432.864-.864 1.44-1.44 2.16s-.864 1.44-1.44 2.16c-.576 1.152-1.008 2.16-2.16 3.168-.288.288-.576 1.152-.72 1.584-.72 1.44-3.312 8.064-4.032 9.504-.576 1.152-1.008 2.304-1.152 3.6-.288.432-.432 1.008-.576 1.584l-.432.288c-.288-.144-.576-.288-.72 0-.144.144-.288.288-.576.144l-.576-.432c-.432-.144-.864-.432-1.296-.72-.288-.144-.432-.288-.432-.432-.288-.288-.576-1.008-.72-1.44 0-.144 0-.432.144-.576.432-1.728.72-3.168 3.312-9.936l.432-1.44c.144-.576.432-1.008.288-1.44a2.23 2.23 0 0 1 .288-1.152c0-.144.288-1.008.432-1.296v-.576l.576-2.448c0-.576.144-1.008.288-1.728v-.288c.432-.864.72-2.16.72-3.024l.72-2.016c.144-1.728.576-3.456.576-5.184-.144-.288 0-.72 0-1.296s.288-.72.72-.72l1.296.432c.288 0 .432.144 1.008.144.288 0 .576 0 .576.432l.432.432c.72.72 1.008 1.584.864 2.736.144.72.144 1.872 0 2.88-.144.72-.864 1.296-.864 2.592 0 .144-.144.72-.288.864-.288.576-.576 2.016-.72 2.592v.144h.144c.288-.288.432-.576.432-.864.432-.432 1.296-1.872 1.872-2.304.144.144 0 .288-.144.432-.288.72-1.152 2.16-1.44 2.736-.144.576 0 .576-.144 1.008 0 .144-.144.144 0 .288 0 0 .144 0 .144-.144.576-.432 1.296-1.44 1.728-2.448 0 0 0-.144.144-.144.864-.864 1.44-2.016 2.304-3.024.864-.864.288.144 1.008-.72l.864-1.296c-.144-.432.144-.72.288-.864l.288-.288h.144c.288.144 0 0 0 .432 0 .144-.144.432-.576.576v.144c.144.144.288.144.288 0h.144c-.144-.288 1.152-2.016 1.584-2.016.144-.288.432-.864.432-1.008.144-.288.144-.288.288-.288v.144l.72-1.296c.576-.864 1.152-1.008 1.296-1.584 0-.144 1.152-1.152 1.152-1.152.288-.288.288-.576 1.296-1.152.432-.144.72-.144 1.152.144.144.144.288.288.432.144zm-9.792 7.488c-.432.144-.432 0-.288 0 .72-1.008 1.44-1.872 2.448-2.88 0-.144.288-.288.432-.576l.432-.288c.432-.576 1.296-1.296 1.584-1.44.144.144.576-.288.288.288l-1.44 1.152c-.432.576-1.44 1.44-2.016 2.16l-.864.864v.144l-.576.576zm2.448-1.872c-.144 0-.144 0-.288.144l-.72 1.152h-.144c.72-1.584 3.024-3.6 2.304-2.736l-.144.288c-.288.432-.432.72-1.008 1.152zm1.008 1.152c.432-.144 1.296-1.44 1.008-1.152-.288.432-.72.864-1.008 1.152zm.576-1.152c.144-.144 0-.144-.288 0v.144c0 .144-.432.576-.576.72h-.144c0 .144 0 .144.144.288l.864-1.152zm-5.328 3.744c-.72.576-1.008 1.44-1.728 2.016h-.288v-.288s.144-.144.288-.144c.576-1.008 1.296-2.016 2.16-2.88l.432-.288c-.288.288-.432 1.008-.864 1.584zm.144 2.592c.432-.288.72-.72 1.152-1.152l1.296-1.872.144-.144h-.144c-.432.864 0-.576-.576.288-.144.288-.144.432-.432.72 0 0-.144 0-.288.288 0 .432-.432.576-.576.72-.144.432-.432.72-.72 1.152v.144c.144 0 .144 0 .144-.144zm41.616 8.496c.432-.72.288.432.432.576l-.864 2.016c-.432.144-.864.432-.864 1.008-.576.288-.72.864-1.008 1.152-.432.432-.72 1.008-.432 1.728-.144.144-.432.432-.72.576-.288-.144-.288 0-.432.144l-1.008.864c-.144.72-.72 1.008-1.296 1.44-.864.576-1.584 1.296-2.304 1.872a15.31 15.31 0 0 0-2.16 2.16c-.288.144-.72.144-.864.576-.144.288-.576.576-1.008.576-.144.144-.288.432-.432.72-.864.576-1.584 1.296-2.448 1.728l-1.872 1.008c-.432.288-.864.288-1.152.432l-1.872.432c-.576 0-1.296.144-1.728.144l-1.296-.144c-.576-.144-1.296 0-1.728-.432-1.008 0-1.728-.576-2.592-1.152l-1.584-1.296c-.288-.144-.288-.432-.576-.576-1.008-.72-1.728-1.872-2.304-2.88l-.576-1.296c-.432-1.296-.864-2.592-1.008-3.888l.288-2.16c0-.576.432-1.44.432-2.16.144-.576.432-1.152.576-1.728 0-.288.144-.576.144-.864l1.152-2.448 1.008-1.728c.432-1.152 1.008-2.304 1.728-3.456.432-.432.576-1.008 1.008-1.296l.288-.432c0-.144 0-.432.144-.576l2.016-3.024 1.008-1.152c.864-.72 1.44-1.584 2.448-2.16.576-.576 1.008-1.008 1.872-1.152.144-.144.288-.288.432-.576l.288-.288c1.008-.288 1.872-.72 3.024-.288l1.152.432 2.016 1.296c.144.144.288.288.288.432l.576 1.152c.288.288.144.72 0 1.152l-.144.432c.144.144.144.288.144.432 0 .576-.144 1.152-.432 1.584l-1.008 2.016-.288.864c-.144.864-.576 1.584-1.008 2.304l-.72 1.152c-.288.432-.864 1.008-1.296 1.44-.288 0-.432.288-.432.576 0 .144 0 .288-.144.432l-.72.864c-.144 0-.288.144-.432.288-.432.72-1.152 1.44-1.728 2.016l-.576.576c-.144.144-.144.288-.288.288-.576.288-1.152 1.008-1.728 1.296-.432 0-.576.432-.864.576-.864.576-1.728 1.008-2.592 1.296s-1.584.432-2.16.576c-.432 0-.576.288-.576.576l-.288 1.008c-.288 1.296-.288 2.592-.144 3.888.144.432.144.72.288 1.008l.432 1.152c.144.72.576 1.296 1.296 1.872.432.432 1.008.432 1.728.576.576-.144 1.296 0 1.872-.144 1.296-.144 2.304-.432 3.6-.864 1.008-.288 1.872-.72 2.88-1.152l.864-.288.288-.144c.144 0 .288 0 .432-.144.432-.288.72-.576 1.296-.72.288-.576 1.008-.72 1.296-1.296.144-.288.576-.432 1.008-.576.432-.288.864-.576 1.152-1.008 0-.144.144 0 .288 0 .432-.144.432-.288.432-.432.144 0 .144 0 0-.144l.144-.576c0-.144.144-.288.432-.432 1.008-.72 2.16-1.584 3.024-2.592.144 0 .144-.144.144-.144.288-.144.576-.288 1.008-.72.288 0 .576-.288.864-.576s.576-.72.576-1.152c0-.288 0-.432.288-.288s.432-.144.432-.288c.288-.144.432-.288.432-.432.144-.144 0-.144 0-.144.144-.144 0-.144-.144 0s-.144.288-.288.576l-.288-.144s-.144 0-.144-.144c.288-.144.432-.72.864-1.008.144-.144.144-.432.288-.288s0 .288 0 .432v.144h.144c.144-.144.288-.432.288-.576.144-.144.72 0 1.008-.144.144-.144.72-.432.864-.432l-.288.576c-.432.864-.864.72-1.008 1.152l-.72.72-.864 1.008c0 .144 0 .288-.144.288L391 59.635l.144.288h.144c.288 0 .432-.144.576-.432l.576-1.296.432-.288c.288-.144.432-.432.72-.72.288-.432.72-.864 1.152-1.296l1.296-1.872zm-27.648 1.152v.576c0 .144 0 .144.144.144 0-.144.144-.144.144-.144.72-.432 1.728-1.008 2.304-1.44l2.16-1.584c1.152-1.008 2.448-2.016 3.6-3.168 1.008-1.152 1.728-2.016 2.448-3.168l.144-.144c0-.576.288-.72.576-1.008 0 0 .144-.144.144-.288.432-.576.864-1.152 1.008-2.016 0-.144.144-.144.288-.288l.576-1.584c.144-.288.144-.72.144-1.152.144-.864-.144-1.44-.576-2.16-.144-.432-.864-.576-1.152-.288l-2.16 1.008-.432.432c0 .432-.288.72-.432 1.152-.144.288-.288.576-.576.72-.288.432-.864 1.008-1.008 1.584l-.432.432c-.864 1.008-1.584 1.872-2.304 3.024l-.864 1.152c-.144.864-.72 1.584-1.008 2.448l-1.152 2.16-1.584 3.6zm22.176 3.024s-.144.144-.288.144h-.144v-.144c.144-.288.288-.144.432 0zm-.864 3.168c0-.144.144-.288.144-.432-.288-.144-.432.144-.576.288l-.288.432c-.432.144-.72.72-1.008 1.008v.288s.144.144.144 0c.288 0 .72-.144.864-.576l.72-1.008zm-2.592.576c.288 0 .432-.288.72-.432.144-.144.144-.288.144-.432-.144.144-.144.288-.144.432-.432 0-.432 0-.72.432zm22.32 7.056c-1.584 0-3.312.144-5.04-.144l-2.304-.288c-.864-.144-1.584-.864-2.448-1.296-1.872-.864-3.024-2.448-4.464-4.032-.864-1.296-1.152-2.304-1.44-3.6-.72-3.024-.432-5.76.288-8.496.432-1.584 1.008-3.168 1.728-4.464 1.152-2.448 2.448-4.464 4.176-6.48l3.024-3.6 3.6-3.456c1.296-1.296 2.88-2.448 4.32-3.6.72-.576 1.44-.576 2.448-1.296.432-.288.864-.144 1.44-.144 1.152 0 2.304 0 3.312.576 1.296.576 2.16 1.296 3.024 2.16.72.576 1.152 1.584 1.152 2.592s-.288 1.872-.288 2.88l-.144.288c-.576.864-.864 1.152-1.584 1.872-.72.576-1.728 1.008-2.448.432-.432-.288-.432-.432-.144-.576l.432-.576c.72-.576 1.296-1.728 1.296-2.592 0-.576 0-1.008.288-1.728-.432-.72-.432-1.728-.864-2.448s-.576-.576-1.008-.288c-1.44.72-2.736 1.584-4.176 2.592l-1.152 1.008c-.72 1.296-1.728 2.016-2.736 3.024-.144.144-.288.288-.432 1.008-1.296.864-2.448 2.16-3.168 3.312-.864 1.152-1.728 2.448-2.592 3.456l-.288.432-.288.72c-.72.432-.864 1.296-1.584 2.16-.432 1.584-.864 3.312-1.728 4.608-.288.432-.576 1.008-.576 1.584l-.144.72c-.144.576-.432 1.584-.432 2.448l.144 2.88.432 1.584c.432.72.72 1.44 1.584 2.16.144.288.432.288.864.432 1.728.576 3.312.288 5.04-.288.72-.144 1.44-.144 2.304-.432l3.888-1.872 3.168-1.44c.144 0 .288 0 .288-.144V60.5c.288-.144.576-.576 1.008-.576h.432c.72-.72 1.728-1.296 2.592-2.016.288.288.576.576.864.144.72-.72 1.872-1.008 2.448-1.872l.288-.144c.864-.288.864-.288 1.152-1.008-.288 0-.432.288-.72.288s-.432 0-.432-.288c0-.144 0 0 .288-.288l.432-.288 3.024-3.024 3.168-3.312 1.152-1.008h.288c.288 0 .144 0 0 .144-1.008 1.008-2.016 2.016-2.736 3.024l-.576.864-.864.432-.864 1.008c-.432.432-1.152 1.152-1.728 2.016.432 0 .72-.432.864-.72l.576-.576c.72-.432 1.152-1.008 1.728-1.584.144-.144.288-.288.288-.576.72-.432 1.008-.864 1.296-1.296.144-.288.144-.144.288-.144.288 0 .288.288 0 .288l-2.88 3.312c-.72.72-1.296 1.296-2.16 2.304-.144.144-.432.432-.144.72s.576-.144.72-.288l3.888-3.888c1.008-1.008 1.872-2.16 2.592-3.168l.72-1.008c.144-.432.576-.432.864.144 0 1.296-.864 2.016-1.152 2.304l-1.008.864c-.144 0-.288.144-.576 0-.144.288-.288.72.288.72.432 0 .288.288.144.576-.432.72-.864 1.728-1.728 2.16-.72.432-1.008 1.008-1.44 1.584s-.864 1.44-1.44 1.872l-.288.432c-.144.288-.288 1.152-.864 1.152s-.576.432-.864.72l-1.728 1.728c-.432.432-.864.864-1.44 1.152l-1.296.864c-1.008.576-2.016 1.44-3.024 2.016l-.576.432c-.288.576-.72.576-1.152.576-.72-.288-1.008 0-1.584.144-.432.288-.576.576-1.008.432s-.576 0-.864.144l-3.024 1.008zm21.744-19.728v-.144c.432-.432 1.152-1.008 1.296-1.584.288-.432.432-.432 1.008-.432 0 .288-.576.144-.864.72-.144.576-.72 1.008-1.44 1.44zm-1.152 4.752c.144-.144.288-.432.144-.864-.144 0-.576 0-.576.144s0 .576.432.72zm-9.792 3.888c.288.288.72-.144.72-.576-.288 0-.432.432-.72.576zm82.08-40.896c.144.576.144.432-.144.864-.432.432-.144.432-.72.288-.864.144-.72.144-.72-.432-.144-.576-.144-.72-.576-1.008-1.44-1.44-3.744-.864-5.616-1.296-.432-.144-1.008-.432-1.44-.432s-1.008.144-1.584 0l-1.728.432c-.432.144-.72-.864-1.152-1.008-.432 0-.864.288-1.44.288-.432.72-.864 0-1.296 0-1.152 0-2.016.288-3.168.144-1.872-.288-3.456.432-5.328.288-.288 0-.144-.144-.432-.144s-.576.288-1.008.288c-.864.288-2.016.288-3.024.432-.432.144-1.008.144-1.44.144s-.72.288-1.44.432c-.72 0-1.44.144-2.16.288l-4.608 1.152c-1.728.432-3.6.576-5.328 1.152-1.584.576-3.024.864-4.32 1.584-1.008.432-2.16.432-3.168.72-1.296.432-1.728.288-2.304 1.296-1.728 2.304-2.016 3.456-2.16 3.888l-1.296 2.592c-.864 1.584-1.584 3.456-2.592 5.04l-.864 2.016c-.432.72-1.584 3.168-1.872 4.032-2.304 6.768-2.16 7.056-2.592 9.072-1.152 3.744-2.592 7.488-2.88 11.52 0 .864-.288 2.016-.144 3.024.144.72.576.432 1.296.144.864-.288 1.584-.432 2.304-.864.864-.432 1.584-.864 2.304-1.296.144.864 1.152-.288 1.44-.576.576-.432 1.296-.72 1.872-1.296 1.152-.864 2.304-1.872 3.456-2.88l1.728-1.296c.288-.144.864-1.008 1.296-.864.576.144-2.016 2.016-2.304 2.304-1.008.72-.72 1.872-1.44 2.88-.576.72-1.584 1.584-2.448 2.016-1.152.72-2.016 1.728-3.024 2.592-1.152.864-2.16 1.728-3.168 2.592-1.728 1.584-4.896.72-6.192-1.152-1.872-2.736-1.728-6.48-1.296-9.504.864-6.048 2.88-11.664 6.768-21.888.864-2.304 2.016-4.464 2.88-6.624.72-1.44 1.008-3.456 1.584-4.176-.576 0-1.008.144-1.44.144-2.592.576-5.184.72-6.912.864-1.728 0-5.04-.72-5.76-2.448-.288-.72-.864-2.448-.144-3.024.432-.432.864.144 1.296.144.432.144.864.144 1.44.144h2.016c.432-.144 1.152-.288 1.728-.144.288.144.432.288.864.432.432 0 .864-.144 1.296-.288 1.584-.144 3.456-.864 5.04-.576 1.008.144 2.016-.432 3.168-.72 1.008 0 2.016-.288 3.312-.576 1.008-.144-.432-.144.432-.288.144-.144-2.304.144-2.304-.432l1.008-1.728c.144-.288 1.728-3.312 2.88-4.752 1.296-1.44 1.584-2.592 3.168-4.464.432-.576 1.728-2.736 2.16-3.168.72-1.44 1.584-1.44 1.872-2.88.432-.144 2.016.576 2.304 1.008.432 1.008.864 1.584.72 2.736-.144.864-1.296 3.312-1.728 4.176l-2.304 4.176c-1.728 3.6-1.152 3.024-.864 3.168s.144.144 0 .288c-.432.144-2.16.432-1.584 1.44.432.432 1.584 0 1.728-.144.288-.288-.432-.432.432-.432.144 0 1.44.144 1.44-.144 0 0-.288-.288-.144-.288.288 0 .432.144.576.144.432 0 .864-.288 1.296-.288 1.008-.144 1.872.144 2.88-.144.576-.144 1.296-.576 1.872-.864l2.016-.432 1.584-.144c.288 0 .576-.432.864-.432l1.008-.144c.288 0 .432 0 .72.288-.144 0-.144.144 0 .288l1.008-.144c.576-.288.288-.144.432-.576s0-.576.432-.72c.288-.288.576.288.864.288h1.44c.144-.144.144-.432.144-.432s0-.144.144-.144c.144-.144.432-.288.72-.144.432.144.864.288 1.44.288 2.016 0 3.888-.72 5.904-.72 1.152 0 2.448-.576 3.6-.288.576.144 1.152 0 1.584 0s.864 0 1.296.144.864-.144 1.44-.144l1.44.288c.432-.144.432-.288.864-.144.432 0 .864.288 1.296.288s.72 0 1.008-.432c.144-.144.144-.432.144-.576.144-.144-.144-.144.288-.288.144 0 1.008 0 1.152.144.432 0 .288 0 .72.432.432.144.72 0 1.152 0 .72.144 1.584.72 2.16 1.296.864.576 1.152 1.008 1.728 1.872.288.432.72.864 1.008 1.44s0 .432.144 1.008zm-8.928-6.912l.288.144c.144-.144-.288-.432-.288-.144zm-10.08.432c-.144.144-.72.288-.864.144l-.144-.144c0-.288 1.152-.144 1.008 0zm10.08.144c-.144 0-.864 0-.72.144.288.288 1.152.144.72-.144zm1.296.864c.288-.144 0-.288-.144-.288 0 .144-.288.288.144.288zm-28.512 1.296c-.288.144-.144 0-.288-.144.288 0 .576-.144.864 0-.144.144-.432.144-.576.144zm17.712.432c.576-.144-.576 0-.576 0-.144 0-1.296-.144-1.296.144.144.432 1.584.144 1.872-.144zm-4.608.288c0 .288 1.584 0 2.016 0-.432-.144-1.872-.288-2.016 0zm8.352.432c.432.144 1.152 0 1.584-.144l-1.44-.288s-2.16.288-2.016.432c.288.288.576 0 1.008-.144.288 0 .432 0 .864.144zM466.6 13.7c-.288.144.432.144.432.144-.144-.288-.288-.288-.432-.144zm-24.624 4.176c-.288 0 .576-.288.576-.288.288-.144.864-.288 1.008-.288-.288.288-1.008.72-1.584.576zm7.632 0c.288-.576-1.728-.144-2.304 0L445 18.74c-.864.144-1.872.144-2.736.432 0 0-.864.144-.72.432.288.144.576-.144.72-.288h1.296l1.152-.288c.288 0 .576.144.864.144.432-.144.72-.432 1.008-.576 1.008-.432.72.288 1.728.288.576 0 1.008-.432 1.296-1.008zm-15.84 26.928c.144-.288 1.44-2.16.576-3.6-.288.144-.432 3.312-.576 3.6zm-1.152 2.88c.432 0 .144-.432.144-.432s-.432.288-.144.432zm-1.008 4.032c.432-1.44-.864.576-.288.72.144.144.288-.72.288-.72zm-1.152 4.032c.144-.144.288-.432.144-.432s-.288.288-.144.432zm9.216 6.624c0-.288-.432 0-.576.144 0 .144.576 0 .576-.144zm19.44-32.544c.144-.432-.72.144-.72-.72v-.288c0-1.44 0-1.584 1.008-3.024.288-.432.288-.432.864-.432.144 0 .288 0 .432.144.72.72 1.296.864 2.016 1.296l.576.288c.144 0 .288 0 .432.288.432.288.72.576 1.296.432.432-.144.432 0 0 .288 0 1.008-1.008 1.872-1.008 2.592-.144.144-1.296.72-1.296.72 0 .288-.576.288-.576.864-1.152 0-1.584-.576-1.872-1.152-.432.144-.288-.864-.576-.72-.576.432-.576 0-.576-.576zm17.28 21.888l.288 2.16c0 .144-.144.432-.576.576-.144 0-.288-.144-.432-.432 0 0 0-.144.288 0l.576-.576-.72.288c-.432.288-1.152.864-1.296 1.296-.432.576-.72.864-1.296 1.152-.576.864-.864 1.44-1.584 1.728-.576.288-.864.864-1.296 1.152-.288.576-.576 1.008-1.008 1.44-.72.288-1.44 1.152-1.872 1.584l.144.432c.432-.432.576-.432.72-.72l.432-.576c.288-.432.72-.288 1.008 0-.288.432-.576 1.008-1.44 1.296-.144 0-.144.144-.144.288l-.288.432c-.432-.432-.72.288-.72.432-.576.72-1.152 1.008-1.296 1.584-.432.144-.864.288-1.152.576-.144.576-.72.864-1.008 1.152-.864.144-1.584.864-2.16 1.584-.864.576-1.728 1.152-2.88 1.296l-1.296.432c-.576.288-1.296.288-1.872.576-.432.144-1.152 0-1.584-.288-.576-.144-1.008-.576-1.584-.288l-.864-.432c-1.008-.72-2.016-1.44-2.88-2.304-.432-.144-.576-.864-1.008-1.44-.144-.432-.432-.72-.864-.864.144-.288-.144-.288 0-.432-.288-1.008-.144-2.16 0-3.168l.144-.144c-.144.144 0 .144 0 .144 0 .432.432 0 .576.432h.144c0-.288.288-.72.432-.864.144-1.008.72-2.448.864-3.456.288-.864.864-1.584.864-2.448l.72-.864c.144-.576.432-1.008.576-1.44-.144-.72.288-1.44.432-1.872.144-.576.432-1.152.288-1.584.576-.432.864-1.296 1.008-1.44.432-.864.576-1.44.72-2.16 0-.432.432-.864.432-1.296-.432.432-.576 1.152-.72 1.728l-.288.144-.144-.288s0-.144-.144-.144l-.144.144c-.144 0-.288.432-.432.576-.288 0-.144-.288-.144-.576.432-.288.576-1.152 1.008-1.728v-.72c0-.432.576-.864 1.296-.864 0-.288 0-.432-.288-.432-.288-.144-.288-.144-.144-.288.288 0 .288-.288.288-.288.144-.144.144-.288.144-.432v-.288c0-.144 0-.144.144-.288.432-.432.72-.576 1.008-1.008-.144-.432 0-.432.144-.432s.432 0 .288-.144c.144-.144 0-.288-.288-.288s-.144-.288-.144-.432c.576-.864 1.008-1.728 1.008-1.584.288.144.288-.144 1.008 0 0 .144 1.728.72 1.728.576 0 .144 1.584 1.008 1.584.864.144.144 0 .144 0 .288l-.288 1.44c-.576 1.728-1.152 4.752-1.44 5.04v.144c0 .432 0 1.008-.432 1.152-.144 0-.288.288-.288.432-.432 1.584-.864 3.168-1.728 4.752-.288.576-.432 1.296-1.008 1.728v.72c-.576 1.296-.864 2.736-1.296 4.176l-.864 2.016v.144c-.72 1.152-.576 2.448-1.008 3.6 0 .576-.288 1.008-.144 1.584.144.288.144.72.576.288.864-.144 1.872-.72 2.736-1.296.432-.144.864-.432 1.296-.432.288 0 .144-.144.144-.144.288-.288.432-.72.72-.72.432 0 .576.288.72.576 0 .576.288.576.576.288.144-.576.864-.72 1.296-1.008L463 60.643l1.584-1.296c.288-.288.432-.288.576.144.288.288.288.576 0 .72l-1.296 1.44c-.144.144-.432.144-.72.288s-.864.72-.432.72c.144 0-.288.288-.144.288.144.144.432.144.432-.144.288-.576.72-.288 1.008-.576.72-.144.864-.432 1.296-.72.72-.288 1.008-1.008 1.44-1.584.144-.144.432-.576.72-.432.432.144.432-.144.72-.576 0 0 .288-.144.288-.288.288-.288.72-1.152 1.584-1.728.144.144.432.144.432-.144.288-.864 1.008-1.152 1.728-1.296.144.144.432 0 .576 0 0 .432-.432.432-.576.72-.144.144-.144.288 0 .288 0 .288.144 0 .144 0 .72-.72 1.296-1.584 2.304-2.304.288-.288.144-.144 0-.288 0 0-.144 0-.288.144-.432.288-.72.432-1.008.864-.144.144-.288.576-.576.576 0-.432 0-.432-.432-.144l.576-.864c.144 0 0 .144.144.144l.72-.432c.144-.432.432-.576.72-.72.144 0 .144-.144.144-.144.144-.576.432-.864.576-1.152.144 0 .288-.144.432-.144.144-.288 0-.576.288-.432s0 .576 0 .72c.288-.144.432-.288.432-.576zM454.36 40.483c.144-.432 0 .144 0 .432h-.144l.144-.432zm1.296.288c-.432.288-.432.432-.288.576 0 0-.144.288 0 .288.288 0 .576-.144.432-.432 0 0 0-.288-.144-.432zm-1.44.288v-.144.144zm0 0v.288-.288zm0 .288v.144l-.144.144.144-.288zm-2.304 5.904c.144-.144.432-.288.144-.432.288 0 .432-.288.576-.144.288-.144.144.144 0 .144 0 .144-.144.288-.144.576-.288.144-.432-.144-.576-.144zm.144.72c.144.576-.432 1.008-.288 1.584l-.72 1.728s.144.144 0 .144a.87.87 0 0 1-.576.72c0-.432-.144-.576-.288-.72v-.288c.576-1.152.72-2.016 1.152-2.88 0-.144.144-.288.144-.288 0-.144.288-.288.432-.144.432 0 .144.144.144.144zm21.888 2.88c-.432.432-.576 1.008-.864 1.152.144-.576.288-1.008.864-1.152zm2.448.432v-.144c-.288.144-.144.288 0 .144zm0 0h.144c0 .144 0 .288-.144.432v-.432zm-3.312.72c-.72.144-1.152.864-1.44 1.152-.432.432-.432.288-.288.72v-.144l1.728-1.728zm-23.904 1.872c.144-.144-.288-.144-.144-.288s.432-.432.576-.432h.144l-.144.576s-.144.144-.432.144zm22.176 0h-.144l-.576.288.288.144c.144-.144.432-.288.432-.432zm1.728.288l-.144.144v.144l.288-.288h-.144zm2.448.432c.288-.144.288-.144 0 .144.144.144-.144.144-.288.432 0 .144-.144.144-.288.288l.144-.576c.144-.288.288-.432.432-.288zm-5.328.432c.144 0 .144-.288.144-.288l.144-.144s-.144-.144-.288.144l-.144.144c-.144 0-.288.144-.144.288 0 0 .288 0 .288-.144zm2.016.432s0-.144.144-.144l-.144.144zm-2.16 5.472a16.57 16.57 0 0 0 3.456-3.6c.288-.144.576-.576.864-1.008v-.288c-.144-.144-.288-.144-.432 0-.144 0-.144.144-.144.432s-.144.432-.576.576c-.72.288-.864.576-1.152 1.584v.144c-.288.144-.576.144-1.008.288-.432.432-1.008.576-.864 1.296v.144c-.432 0-.576-.144-.576.144-.144.144.144.144.144.576 0-.288.288-.288.288-.288zm-1.152-4.32l-.144-.288c0-.144-.288 0-.288 0 0 .432 0 .288-.288.576-.144.144-.144.144-.144.288.144 0 .144 0 .288-.144.288-.288.432-.144.576-.432zm1.872 1.584l-.288.144c-.144-.144-.144-.144.144-.288v-.288c-.432-.576.144-.72.288-.72V56.9c.144 0 .432-.432.576 0 0 0 .144 0 .144-.144.144.144.144.144.144.288-.288.144-.864.72-1.008 1.152zm-4.608.864c-.144.144-.144.144-.288.144-.144-.144.144-.288.144-.288l.288-.432c.288-.144.432-.144 0-.144-.144-.144.144-.576.288-.72.288-.288.144.288.288.288l.144.144c0 .432-.432.72-.864 1.008zm1.296-1.296c.144.144 0 .144 0 .144-.144.144-.144.144-.432.144 0-.144 0-.144.288-.288 0 0 .144-.144.144 0zm-19.008 0v.144c-.288.144-.432.288-.72.288 0-.288.576-.288.72-.432zm-1.152 2.448s0 .144-.144.144l.144-.72c.144-.288 0-.576.144-.432.288.144.144.144 0 .432l-.144.576zm12.672 2.304c-.144-.144-.144-.144-.144-.288s.288-.144.576-.144c0 .288-.144.72-.432.432zm-12.672.432c-.144 0-.144.144 0 .288.288-.144 0-.288 0-.288zm0 0s.288-.144.288-.288c0 0-.144-.288-.144 0-.288-.144-.288-.144 0 .144l-.144.144zm11.088.144c0-.144.144-.144.144-.144.288 0 .432 0 .432.432l-.288.144c-.288-.144-.144-.432-.288-.432zm22.176 9.504c-2.304.288-3.888.432-5.904-.432-1.44-.72-2.592-1.728-3.744-2.592-1.152-1.008-2.16-2.592-2.736-4.032-.576-2.016-1.008-4.032-1.152-5.904 0-1.872.144-4.032.72-5.616 1.44-4.032 3.168-8.64 7.056-10.8.432-.144.864-.288 1.296-.576.432-.144.288-.432.432-1.008.144-1.152.144-2.304.72-3.312.432-.864.72-1.584 1.296-2.304.288-.288 1.008-.576.72-.72.144-.432.576-.576.864-.864.576-.432 1.008-.864 1.584-1.44.432-.432.72-.72 1.296-1.152.432-.288.72-.432.576.144 0 .288.864-.576 1.008-.576l1.008-.72c1.008-.432 1.152-.432 2.16-.288.576.144 1.296 0 1.872.144 1.44.288 2.88.432 4.32 1.008 1.152.576 1.872 1.584 2.592 2.736 1.44 2.448 1.296 5.04 1.008 7.776 0 .432-.432 1.728-.144 2.016.144.576.432.144 0 3.168.432-.432 2.016-.864 2.592-1.008.288 0 .72 0 .864-.144l.288-.288c.144.144.288 0 .144-.288h.432c.144 0-.288-.288.288-.288.144 0 .288.288.576.288.144 0 .864-.576.72-.144 0-.144-1.152.576-1.296.576-.72.576-2.016.576-2.304 1.44-.432-.288-4.176 1.152-4.032 1.44.144.144 1.296-.288 1.44-.432l.432.144.288-.432c.576.144.576.432.864.432-.144 0-.576.432-.576.432 0 .144.288 0 .576 0 .288.432-.144.432-.288.432 0 .144-1.152.144-1.008.288-.144.144.288 0 .288 0 .144.144-.576.432-.432.576.432.432 2.16-.864 2.304-1.008.432-.288 1.296-.432 2.016-.576-1.008 1.008.72.72 1.008.432l1.44-1.296c.144-.288-1.008.72-1.152.576 0 0 1.008-1.008 1.152-1.008 0 0 .72-.288.864-.144s-.576.432-.576.576c0 .432 1.152-.288 1.152-.144.288.288-1.008 1.296-1.296 1.44l-1.872 1.008c-.864.576-1.728.864-2.736 1.296-.864.288-1.008 1.008-1.728 1.152-.864.288-1.584.72-2.304.864l-.72.288c-1.296 2.88-2.448 5.904-3.888 8.784s-4.32 5.472-6.768 7.632c-1.152 1.152-2.016 2.016-3.6 2.448zm5.04-23.04c1.152 0 2.016-.144 2.88-.432 1.008-.288 1.728-.576 2.592-.72.576-.288 1.44-.576 1.872-1.152.288-.144.72-2.016 1.008-2.016.576 0-.576 1.152-.144 1.584.288.144.144-.864.432-.864.144 0-.144.576 0 .72.72.432 1.152-2.592 1.296-2.88.144-1.152.288-2.304.288-3.312.144-1.008.144-2.16-.144-3.312-.144-.288-.576-2.448-1.008-2.016-.144.144.432.864.432 1.008 0 .432-.288.576-.288.72.144.432.576 1.584.288 2.016 0 0-.144-.144-.144 0 .288.432.432.144.432-.144.288.288 0 .432 0 .576-.144.432-.144.72-.144 1.296a7.23 7.23 0 0 1-.288 1.728c-.144-.432-.432-.288-.576-.576-.144-.432 0-.864.144-1.296 0-1.008 0-2.016-.288-2.88-.144-.864-.288-1.872-.576-2.592-.144-.288-.72-.72-.72-1.008h.144c-.432-.288-.576-.864-1.008-1.152-.864-.288-1.728.288-2.448.576-1.872.432-3.168 1.008-4.176 2.736-.432.864-1.008 1.728-1.584 2.448-.432.864-.432 1.296-.72 2.304-.288.288-.576.864-.576 1.296 0 .288.288.576.288.864-.144 0-.432.432-.432.576-.144.432-.144.72-.144 1.152-.144 1.44.288 2.88 1.44 3.744.576.576 1.152 1.008 1.872 1.008zm24.624-7.632c.144.144.72-.288.864-.432-.144 0-1.152.144-.864.432zm-5.184 1.584c-.288-.144.864-.576 1.152-.72.72-.288 1.296-.72 2.16-1.008.432-.144 1.296 0 1.152.144.144.288-3.888 1.152-4.464 1.584zm-2.304 4.176c-.432-.288.72-.432.72-.432.288 0 1.872-1.008 1.872-1.152-.144-.72-4.752 1.872-4.752 1.296 0-.288 1.008-.72 1.152-.72l.72-.144s.144-.144.288-.144.288-.288.432-.432.864-.144 1.152-.432c.144.144.144-.144.144-.288.144 0 .576 0 .864-.144.72-.144 1.296-.72 1.872-.864.288-.288.576-.432.864-.576 0-.288 0-.288.288-.576.144 0 .432.144.576 0l.432-.288c0-.144.72 0 .72.144 0-.144-.288-.432 0-.432.144 0 .432.144.576 0 .432-.432.576-.576 1.152-.72.144 0-.144.432-.432.576-.72.288-.864 1.008-1.584 1.584-.576.144-1.008.576-1.44 1.008-.288.288 0 .576-.144.72s-.432.144-.576.144c-1.152.72-2.736.864-3.744 1.584-.144 0-.864.432-1.152.288zm-8.64-4.752c.288-.144.288-.576.576-.576-.576-.432-.576.288-.576.576zm0 .576c.144 0 .144-.432 0-.576 0 0-.144.576 0 .576zm9.936.144s.72 0 .72-.288c-.144.144-.864.144-.72.288zm-10.08 1.008v-.72c.432-.432.432.432.288.72-.144.144-.288.288-.288 0zm8.064-.144c.144.144 1.008-.144.864-.288s-1.152.144-.864.288zm1.728.72c.432 0-.432-.432-.144-.144l.144.144zM478.264 69.14c2.736-1.008 4.464-2.88 6.336-4.896.432-.288.576-.72.72-1.008 0-.144.144-.144.288-.144.288-.288.432-.432.72-.864.576-.864 1.44-2.016 1.728-2.88h-.288l.288-.576c.144 0 0 .432 0 .432.72-.72 1.152-2.016 1.584-2.736.144-.432 1.296-2.16 1.008-2.592-.288-.144-1.44 0-1.728 0l-2.16-.432c-1.152-.288-2.448-.576-3.6-1.152-.864-.432-1.728-1.008-2.448-1.728l-1.152-1.008c-.432-.432-.576-1.008-1.008-1.296s-.864-1.296-1.296-1.296c-.576.144-1.296 2.16-1.584 2.592-.72 1.584-1.728 3.168-2.16 4.896-.288.864-.72 1.728-.72 2.592-.144.864-.432 1.728-.432 2.736v1.872c-.144.72.144 1.008.288 1.44s0 .864 0 1.152c.144.864.432 1.584.864 2.304.288.864 1.008 1.872 1.728 2.448.864 1.008 2.016.72 3.024.144zm17.28-20.304c0-.144-.144 0-.288-.144-.288.144 0 .864.288.144zm3.888 0c.144-.144-.144-.144-.144-.144-.144.288.144.144.144.144zm-2.16.576c.144-.144 0-.288-.144-.432-.144.144-.432.288-.288.288l.432.144zm-10.656 13.392c.144 0 .144-.432.288-.288.288 0 .288.288.432.288.864-.144 1.44-1.872 1.728-2.448.432-.72.864-1.728 1.296-2.304.144-.144.288 0 .432-.288v-.288c.144-.144.144-.432.144-.432.144-.288.432 0 .288-.576.144 0 1.296-2.016.864-2.016l.432-.288c0-.576-.864-.144-1.008-.144-.576.144-.432.288-.864 1.008-.144.432-.432.72-.72 1.296v.288c.576.576-.144 1.44-.288.72.288 0 .288-.288.288-.576-.144.288-.288.288-.288.576-.288.288 0 .432-.144.72 0 .144-.432.432-.576.432-.144.144-.144.432-.288.576l-1.152 2.16c-.144 0-.576.576-.576.576.144.576.432-.144.432 0 .432.144.432.144 0 .432 0 0-1.152.288-.72.576zm3.888-6.48s.288-.432.144-.432l-.144.432zm-2.016 3.6c.144 0 .144 0 .144-.144 0-.432-.288.288-.144.144zm-.144.72c.144-.144.144-.144.144-.288-.144-.432-.288.288-.144.288zm-.576.864c0-.144.144-.144.144-.144-.144-.288-.288.144-.144.144zm-3.024 3.312c.432 0 1.872-1.872 1.584-2.016-.288 0-1.44 2.016-1.584 2.016zm-1.152 1.152c.144.144.432-.288.432-.432-.144-.288-.576.432-.432.432zm21.744-.576c-.144 0-.432-.288-.576-.288h-.432c-.288 0-.288 0-.576-.432 0-.144 0-.432-.144-.576l-.432-.288c-.144-.144.144-.144 0-.144-.72-1.152-.72-3.168-.288-4.32l.288-.72c.144-.144.288-.144.288-.288.144-.288 0-.864.144-1.152.288-1.008 2.592-4.32 2.88-5.472.144-.432.432-.432.72-1.008l.576-1.44c2.016-4.032 4.464-7.92 5.904-12.24.144-.576.288-1.152.576-1.44l.432-.576.288-.576c.288-.144.432-.144.72.144.144 0 .144.288.144.288.144.144.288-.144.432 0l.432.864c.288.288.72.288.864.576.144.144 0 .576 0 .864 0 .432.432.72.288 1.152 0 .576-.288 1.152-.288 1.584l-.144 1.008.144.144c0 .288-.144 0-.432.288-.288.144-.144.144-.288.576l-.288 1.296c0 .432 0 .432.144.72l.144.288c0 .288-.288 0-.288.288s.72-.288.72-.288l.288-.432.432-.288.288-.432c.288-.144.576-.144.72-.288.144 0 .144-.576.288-.576.144-.144.144.144.432 0l.432-.288c0-.288-.144-.432 0-.72l.288-.288c.144-.144.288 0 .432 0 .144-.144.576-.432.72-.72.288-.432.144-.864.576-1.008-.144.144.288.144.432.144s.432-.288.576-.432l.432-.432c.144-.288 0-.576.288-.576 0 .144.288-.144.288-.144h-.288l.72-.576.864-.432c.144-.144.432-.144.576-.144.144-.144.144-.144.144-.288.576-.432 1.44-1.152 2.16-1.44.288 0 .144.288.288.144l.432-.288c.288-.288.576-.288.864-.432.72-.288 1.584-1.296 2.304-.72.288.288.288.432.576.576h.432l.432.432c.288.144.72.144 1.008.432.144.288.144.576.432.864.144.144.576.288.72.432s.432.72.432.864c.432.864-.144 1.872-.432 2.592l-1.584 4.032c-.144.432-.288 1.008-.432 1.296-.288.288-.288.288-.432.576v.576l-.576.864c-.288.576-.576 1.008-.72 1.584 0 .288 0 .72-.144 1.008-.144.144-.288.144-.288.288-.144.144-.144.432-.144.72l-.432 1.152c-.576 1.584-.864 3.312-.576 5.04 0 .576 0 1.296.288 1.728l.432.576c.72.432 2.448-.432 3.168-.72.864-.288 1.728-.72 2.448-1.152l.864-.576c.144-.144.72-.144.864-.288 0 0 0-.288.144-.288.144-.144.288 0 .288-.144l.288-.288.576-.288.864-.72c.576-.288.72-.576 1.152-1.008l.864-.864c.144 0 .72-.576.864-.576.576.144-1.008 1.44-1.296 1.728s-.576.288-.864.432c-.144.144-.432.576-.72.72l-.72.576c-.288.288-.72.288-1.008.432l-.288.432-.432.144-.72.288c.144 0-.144.288-.288.288l-.432.288c-.144.288-.144.432-.432.576-.144.144-.432.144-.576.288.432 0 .72-.144 1.008-.432l.864-.432c.432-.144.288 0 .72-.288l1.44-.72.72-.288.576-.288c.432-.288.72-.864 1.152-.72-.144.288-.72.72 0 .576.144 0 .864-.576 1.008-.864s-.144-.576.144-.864c.144-.144.432-.288.72-.432l.72-.72.864-.576s.144-.288.288-.144c.288.144-.144.288-.144.288l-.288.144a.31.31 0 0 0-.288.288l-.432.432c-.432.432-.72.72-.576 1.296-.432.432-.72.72-1.296 1.152 0 0-.576.144-.432.576s1.872-1.296 2.16-1.44c.288-.288.864-.432 1.152-.864.432-.432 1.008-.576 1.44-1.152.144-.288.288-.72.72-1.008l.864-.432.432-.576-.72.576c-.288.288-.576.288-.864.576l-.72.72-.288-.144c-.144-.288.288-.288.576-.432l.864-1.008c.432-.576 1.152-.864 1.584-1.44l.576-.72c.144-.288.432-.288.72-.432.432-.288.72-.576 1.152-1.008l.432-.432c.288-.288.288-.432.432-.72.288-.144.576-.144.72-.288s0-.432.144-.576c0-.144.288.288.288.144l.288-.432c.144-.288.288-.432.432-.576.432-.432.72-.864 1.296-1.152.432-.144.288-.288.576-.576.144-.144.288 0 .432-.144l.144-.144c.432-.288.432-.72 1.008-.72-.432 0-.864 1.728-1.152 2.016-.432.576-1.008.864-1.44 1.296l-.576.72c-.432.432-.432.864-.864 1.296-.288.288-.576.288-.864.576 0 0-.576.432-.288.288l-.288.432-.576.576-.72.576-.432.576c-.288.432-1.152.576-1.584 1.296-.144.432-.144.72-.432 1.152-.144.288-.576.432-.864.72s-.72.576-.864.864c-.288.432-.432.864-.72 1.152l-.576.864c0 .144.144.288 0 .432s-.144 0-.288.144c-.432.432-1.296 1.008-1.584 1.584-.144.288-.144.576-.288.72-.432.576-.144-.144-.432-.144s-.72.432-.72.72h.144l-1.728 1.584-.864.864c-.432.144-.864.288-1.152.576-.432.288-.864.576-1.296.72l-.72.288-.576.288c-.864.288-1.728.288-2.736.288-.72 0-1.152-.144-1.728-.432-.432-.288-1.152-.144-1.584-.576l-1.728-1.44c-.576-.432-.72-1.008-1.152-1.728-.864-1.152-1.296-2.592-1.584-4.032-.144-.432 0-.864-.144-1.152 0-.288-.288-.576-.288-.864-.144-.144 0-.288-.144-.576 0-1.44-.288-2.736 0-4.176 0-1.152.576-2.16.72-3.168s.576-2.016 1.152-2.736c.432-.72.576-1.584.864-2.304.144-.432 1.008-1.728-.144-1.152-.576.288-.864 1.008-1.44 1.152v-.144c-.72 0-1.152.72-1.584 1.296-.288.144-.72.288-.864.432s-.144.432-.288.576l-.432.288-.72.864a2.48 2.48 0 0 0-.864.864c-.144.432-.432.72-.864 1.152-.144.144-.576.576-.576.72-.144.144 0 .288 0 .432l-.432.864-.432.432c-.144 0-.288 0-.432.144s0 .288-.144.432-.288.144-.432.144c-.288.288-.576.576-.72.864-.288.432-.288.864-.432 1.152-.144.144-.432 0-.576.288 0 .144.144.288 0 .432 0 .144-.144.288-.288.432-.72.864-1.584 1.44-2.16 2.304-.432.576-1.008.72-1.296 1.152-1.728 2.88-1.872 3.312-2.16 3.6l-1.008 1.152c-.288.288-.576.72-1.008 1.008-.288.288-.432.288-.72.72l-.864.72c-.432.576-.288 1.44-1.008 1.728-.288.144-.72.288-1.152 0zm16.272-23.472l.144-.576c.144 0 .432 0 .576-.144 0 0 .864-.72.864-.576 0-.144-.288 0 0-.288l.144-.144c.144-.432.144-.432.576-.72.288-.144.432 0 .72-.288l1.728-1.296c.288-.144.576-.288.864-.576.144-.288 0-.432.432-.432v.144l.432-.432c.144 0 0-.144.144-.288-.144.144.432 0 .432 0l.432-.288c.432-.144.432 0 .432-.576 0 .432-.432.432-.72.432.144-.432.72-.576 1.152-.576l-.288.144s1.152-.144 1.152-.288c.144-.144 0-.288-.144-.288.288-.144.432-.288.576-.432-.576 0-1.008.432-1.584.72-.72.288-1.44.432-2.016.72-.432.288-1.296.864-1.728 1.296-.144.288-.288.576-.576.72-.576.288-1.008.144-1.44.576-.144.288-.288.72-.432.864l-.864.72c-.288.288-.576.576-.72.864l-.144.432s-.72.432-.432.432l.288.144zm-.576-1.584c.288 0 .432-.144.432-.288s-.432.288-.432.288zm6.192.576c.288 0 .432-.288.72-.576-.288.144-.576.144-.72.576zm28.224 1.44l.864-.432c-.288 0-.864.144-.864.432zm1.152-.144c-.288 0 0-.144.144-.288h.288c-.144.144-.144.288-.432.288zm-36.432 1.008c.288-.144 1.44-.864.72-1.008-.288 0-.576.144-.72.432-.144.144 0 .576 0 .576zm32.688 1.152l.144-.144c.288 0 .432-.288.72-.288 0 .288-.864.576-.864.432zm-4.608 5.76c.144 0 1.44-1.296 1.584-1.44.432-.432 1.296-1.584 1.872-1.296-.432 0-.432.576-.72.72 0 0 0 .144-.144.288-.144 0-.144-.288-.432 0-.144 0 0 .432-.144.576s-.432.144-.576.144c-.432.432-.576 1.008-1.296 1.008h-.144zm-.576-1.152c.288 0 1.008-.432.72-.72-.288-.432-.576.576-.72.72zm-.432 2.304c.288 0 .432-.432.144-.432s-.432.432-.144.432z" fill="#fff" fill-rule="evenodd"/></svg>