<?xml version="1.0" encoding="UTF-8"?>
<svg version="1.1" viewBox="0 0 16 16" xmlns="http://www.w3.org/2000/svg">
<title>Artboard</title>
<desc>Created with Sketch.</desc>
<g fill="none" fill-rule="evenodd">
<g fill="#000" fill-rule="nonzero">
<path d="m7.165 2.7043c0 0.020171-0.040334 0.020171-0.060501 0.020171-0.040334 0-0.080668 0-0.121-0.020171 0.020167-0.020171 0.1815-0.020171 0.1815 0zm0.48401 0.10085c0.040334-0.020171 0.16134-0.060513 0.040334-0.080684-0.060501 0-0.080668 0.060513-0.040334 0.080684zm-2.0167 0c0 0.020171-0.020167 0.020171-0.040334 0.020171-0.020167 0-0.040334-0.020171-0.080668-0.060513 0.020167 0 0.121 0.020171 0.121 0.040342zm3.2066 0.4841c-0.080668 0.020171 0.121 0.28239 0.121 0.32273 0 0.020171-0.020167 0.060513-0.040334 0.060513-0.020167 0.060513 0 0.060513-0.040334 0.080684-0.121 0.060513-0.16134-0.10085-0.22184-0.16137-0.10084-0.10085-0.32267-0.12103-0.44368-0.1412-0.20167-0.020171-0.36301-0.060513-0.56468-0.060513-0.16134-0.020171-0.36301-0.020171-0.54451-0.020171-0.1815 0.020171-0.38318 0-0.58485 0.020171-0.060501 0-0.10084 0-0.060501 0.060513 0 0.060513 0.080668 0.12103 0.121 0.16137 0.121 0.12103 0.121 0.24205 0.060501 0.42359-0.20167 0.60513-0.56468 1.2103-0.86719 1.775-0.16134 0.30256-0.32267 0.6253-0.70585 1.1296-0.060501 0.12103-0.080668 0.28239-0.16134 0.42359-0.10084 0.1412-0.1815 0.30256-0.26217 0.46393-0.28234 0.58496-0.60501 1.1497-0.86719 1.7347-0.1815 0.32273-0.32267 0.68581-0.46384 1.0085-0.1815 0.32273-0.34284 0.66564-0.44368 1.0085-0.020167 0.020171-0.040334 0.080684-0.040334 0.10085 0.020167 0.040342 0.020167 0 0.060501 0.020171 0.060501 0.040342 0.060501 0 0.020167 0.060513-0.020167 0.040342-0.040334-0.020171-0.020167 0.040342 0-0.040342 0.080668 0.040342 0.080668 0.040342 0.121 0.040342 0.34284-0.060513 0.44368-0.080684l0.50418-0.060513c0.10084-0.020171 0.22184-0.040342 0.30251-0.040342 0.020167 0 0.1815 0 0.10084-0.060513-0.020167-0.020171-0.16134 0.020171-0.1815 0.020171-0.060501-0.020171-0.060501-0.060513 0-0.10085 0.060501-0.020171 0.1815 0 0.26217 0s0.1815 0 0.26217-0.020171h0.26217c0.10084-0.020171 0.20167 0 0.30251-0.020171 0.080668 0 0.16134-0.020171 0.24201 0 0.10084 0.020171 0.1815 0.020171 0.28234 0.020171 0.14117 0 0.30251 0.020171 0.44368 0.12103 0.14117 0.10085 0.20167 0.28239 0.34284 0.38325 0.020167 0.020171 0.14117 0.10085 0.10084 0.1412s-0.060501-0.060513-0.080668-0.040342c-0.020167 0.040342 0.080668 0.12103 0.080668 0.16137 0.020167 0.060513-0.060501 0.12103-0.121 0.12103-0.10084 0-0.10084-0.060513-0.16134-0.10085-0.040334-0.080684-0.121-0.10085-0.1815-0.12103-0.46384-0.10085-0.96802-0.10085-1.4319-0.040342-0.48401 0.040342-0.96802 0.1412-1.4319 0.18154-0.42351 0.040342-0.86719 0.16137-1.2907 0.28239l-0.66551 0.22188c-0.22184 0.080684-0.38318 0.20171-0.56468 0.28239-0.10084 0.040342-0.20167 0.060513-0.26217 0.10085-0.10084 0.040342-0.10084 0.080684-0.24201 0.060513-0.080668 0-0.14117-0.020171-0.14117-0.10085 0-0.040342 0-0.060513-0.020167-0.10085-0.040334-0.040342-0.080668-0.060513-0.080668-0.12103-0.020167-0.020171-0.020167-0.060513-0.020167-0.10085s-0.040334-0.080684-0.020167-0.12103c0-0.060513 0.121-0.12103 0.16134-0.16137 0.16134-0.12103 0.40334-0.20171 0.60501-0.24205 0.080668-0.020171 0.1815-0.080684 0.26217-0.080684 0.040334 0 0.060501 0.020171 0.10084 0 0.020167 0 0.040334-0.060513 0.080668-0.080684 0.14117-0.080684 0.38318-0.12103 0.54451-0.1412 0.121-0.020171 0.24201-0.060513 0.36301-0.080684 0.10084-0.020171 0.040334-0.040342 0.060501-0.16137 0.040334-0.10085 0.060501-0.22188 0.10084-0.32273 0.020167-0.12103 0.10084-0.22188 0.121-0.32273 0.060501-0.1412 0.121-0.40342 0.22184-0.50427 0.040334-0.040342 0.060501 0.020171 0.080668-0.040342 0.020167-0.060513-0.020167-0.040342-0.040334-0.080684 0-0.040342 0.10084-0.22188 0.121-0.20171s-0.020167 0.060513 0 0.080684c0 0 0.060501-0.080684 0.060501-0.12103 0-0.020171-0.040334 0-0.040334-0.040342 0 0 0.040334-0.060513 0.060501-0.060513 0.040334-0.040342 0.10084-0.040342 0.10084-0.12103 0-0.060513-0.060501 0.060513-0.060501 0.060513 0-0.080684-0.020167-0.10085 0.040334-0.1412 0.020167-0.020171 0.040334 0 0.040334-0.040342 0.020167-0.020171 0.1815-0.22188 0.14117-0.26222-0.040334-0.020171-0.040334 0.10085-0.080668 0.080684-0.020167-0.020171 0.121-0.24205 0.121-0.24205 0.020167-0.060513 0.040334-0.1412 0.080668-0.18154 0.020167-0.020171 0.040334-0.020171 0.080668-0.040342l0.14117-0.24205 0.1815-0.34291c0.080668-0.12103 0.121-0.24205 0.16134-0.34291l0.040334-0.10085c-0.020167-0.020171-0.020167-0.040342-0.020167-0.060513 0.020167 0 0.040334-0.020171 0.060501-0.020171 0.080668-0.080684 0.14117-0.20171 0.1815-0.30256 0.060501-0.10085 0.10084-0.20171 0.10084-0.30256 0.060501 0 0.10084-0.080684 0.121-0.12103 0-0.080684-0.040334-0.020171-0.040334-0.020171-0.020167-0.080684 0.040334-0.080684 0.060501-0.10085 0.080668-0.040342 0.121-0.1412 0.121-0.22188 0.020167-0.020171 0.080668-0.060513 0.080668-0.10085 0-0.040342-0.080668 0.020171-0.040334-0.060513 0.020167-0.020171 0.060501-0.020171 0.10084-0.060513 0.22184-0.22188 0.28234-0.36308 0.26217-0.38325s-0.060501 0.080684-0.060501 0.10085c-0.020167-0.060513 0.060501-0.22188 0.10084-0.28239 0.060501-0.080684 0.16134-0.080684 0.1815-0.20171 0-0.020171-0.040334-0.040342-0.020167-0.040342 0.020167-0.040342 0.080668-0.080684 0.10084-0.10085 0.020167-0.020171 0.040334-0.12103 0.040334-0.1412 0-0.040342-0.020167-0.040342 0-0.10085 0-0.040342 0.040334-0.080684 0.060501-0.12103 0.040334-0.040342 0.040334-0.10085 0.060501-0.1412 0.040334-0.12103 0.121-0.22188 0.16134-0.32273l0.30251-0.60513c0.060501-0.080684 0.080668-0.16137 0.121-0.26222 0.060501-0.10085 0.10084-0.22188 0.16134-0.32273 0.040334-0.12103 0.060501-0.24205 0.121-0.32273 0.020167-0.040342 0.121-0.16137 0.060501-0.22188-0.040334-0.040342-0.22184 0-0.26217 0-0.14117 0.020171-0.26217 0.020171-0.38318 0.060513-0.24201 0.040342-0.48401 0.020171-0.74618 0.080684-0.20167 0.040342-0.46384 0.10085-0.66551 0.20171-0.10084 0.040342-0.20167 0.12103-0.28234 0.12103s-0.14117-0.020171-0.20167-0.020171c-0.060501 0.020171-0.14117 0.060513-0.20167 0.020171-0.080668-0.040342-0.060501-0.12103-0.080668-0.20171 0-0.020171-0.040334-0.040342-0.040334-0.10085 0-0.040342 0.020167-0.12103 0.040334-0.18154 0-0.10085 0.020167-0.12103 0.121-0.16137 0.080668-0.080684 0.20167-0.12103 0.34284-0.16137 0.22184-0.080684 0.48401-0.10085 0.70585-0.18154 0.10084-0.020171 0.20167-0.020171 0.32267-0.040342h0.14117c0.040334 0 0.040334-0.020171 0.080668-0.020171s0.060501 0.020171 0.080668 0.020171c0.040334 0 0.1815-0.040342 0.16134 0-0.040334 0.040342-0.24201 0-0.22184 0.10085 0 0.040342 0.22184 0 0.26217 0 0.060501 0 0.10084-0.040342 0.16134-0.020171h0.040334c0.020167 0 0.020167-0.020171 0.040334-0.020171 0.060501 0 0.060501 0.020171 0.121 0 0.080668-0.020171 0.10084-0.020171 0.1815-0.020171 0.121 0.020171 0.26217 0 0.40334-0.020171h0.42351c0.121 0 0.24201-0.020171 0.36301-0.020171 0.060501 0 0.121 0.040342 0.22184 0.020171l0.16134-0.020171c0.080668 0 0.1815 0.040342 0.30251 0.060513 0.040334 0 0.14117 0.020171 0.1815 0 0.020167-0.040342 0-0.060513 0.040334-0.080684l0.040334 0.020171c0.020167 0 0.040334-0.040342 0.040334-0.040342 0.020167 0 0.10084 0.040342 0.10084 0.040342 0.080668-0.040342 0.121 0 0.1815 0.020171l0.121 0.040342c0.121 0.040342 0.20167 0.22188 0.28234 0.32273 0 0 0.121 0.10085 0.10084 0.12103-0.040334 0.020171-0.060501-0.040342-0.080668-0.040342zm-1.0487-0.18154c0.020167-0.040342-0.040334-0.020171-0.060501-0.040342-0.10084-0.040342-0.1815-0.020171-0.28234-0.020171-0.040334 0-0.36301 0-0.36301 0.020171 0 0.040342 0.121 0.020171 0.14117 0.020171 0.16134 0.020171 0.30251 0.040342 0.44368 0.040342 0.020167 0 0.10084 0 0.121-0.020171zm-1.3109 0.020171c0.020167 0 0.060501-0.040342 0.020167-0.040342-0.020167 0-0.040334 0.020171-0.020167 0.040342zm1.7344 0.040342c0.080668 0.020171 0.080668-0.020171 0-0.040342-0.10084-0.020171-0.24201-0.060513-0.32267-0.020171 0.020167 0.060513 0.121 0.040342 0.16134 0.040342 0.020167 0 0.121 0.040342 0.16134 0.020171zm-3.1662 3.2879c0.020167 0.040342 0.080668-0.020171 0.060501-0.040342-0.020167-0.020171-0.060501 0.040342-0.060501 0.040342zm-0.30251 0.16137v0.020171c-0.020167 0-0.24201 0.22188-0.22184 0.24205 0.020167 0.020171 0.26217-0.24205 0.22184-0.26222zm-0.020167 0.36308c0-0.020171 0.040334-0.040342 0.020167-0.080684-0.040334 0.040342-0.060501 0.10085-0.060501 0.10085-0.10084 0.040342-0.10084 0.28239 0 0.060513v-0.060513c0.020167 0 0.020167-0.020171 0.040334-0.020171zm-0.28234 0.080684c0.020167 0 0 0.020171 0 0.020171l-0.040334 0.040342s0-0.060513 0.040334-0.060513zm0.060501 0.34291c0.040334-0.040342 0.080668-0.16137 0.080668-0.16137-0.020167-0.020171-0.10084 0.1412-0.080668 0.16137zm-0.26217 0.4841c0.040334-0.060513 0.20167-0.26222 0.16134-0.32273-0.020167-0.040342-0.080668 0.080684-0.080668 0.10085-0.040334 0.080684-0.080668 0.1412-0.10084 0.20171-0.060501 0.10085-0.16134 0.24205-0.16134 0.38325v0.020171c-0.10084 0.020171-0.14117 0.16137-0.1815 0.24205-0.060501 0.080684-0.10084 0.16137-0.121 0.26222-0.121 0.22188-0.26217 0.44376-0.38318 0.68581-0.121 0.24205-0.22184 0.50427-0.36301 0.76649l-0.16134 0.38325c-0.020167 0.020171-0.121 0.22188-0.020167 0.1412 0.040334-0.040342 0.080668-0.16137 0.121-0.22188 0.020167-0.10085 0.080668-0.20171 0.121-0.26222 0.080668-0.12103 0.121-0.26222 0.16134-0.38325 0.040334-0.10085 0.121-0.22188 0.16134-0.32273 0.14117-0.24205 0.26217-0.4841 0.38318-0.74632 0.10084-0.22188 0.22184-0.44376 0.36301-0.64547 0.040334-0.080684 0.060501-0.18154 0.10084-0.28239zm-0.121 0.52444c0.020167 0 0.060501-0.080684 0.040334-0.080684s-0.060501 0.080684-0.040334 0.080684zm-0.10084 0.24205c0.020167 0 0.060501-0.12103 0.060501-0.1412-0.020167 0.020171-0.10084 0.12103-0.060501 0.1412zm-0.24201 0.40342s0.040334 0.020171 0.040334-0.020171-0.040334 0.020171-0.040334 0.020171zm-0.080668 0.20171v-0.020171c-0.040334-0.040342-0.060501 0.18154 0 0.020171zm-0.22184 0.36308c0.020167 0 0.060501-0.020171 0.020167-0.040342-0.020167 0-0.020167 0.020171-0.020167 0.040342zm-0.48401 0.24205c0.020167-0.020171 0.040334-0.060513 0.040334-0.080684-0.040334 0.020171-0.040334 0.040342-0.040334 0.080684zm0.32267 0.080684c0.020167 0.020171 0.040334 0 0.060501-0.020171 0-0.040342-0.060501 0-0.060501 0.020171zm-0.020167 0.080684s0.040334 0.040342 0.040334 0c0-0.040342-0.040334 0-0.040334 0zm-0.30251 0.60513c0.020167 0.040342 0.040334-0.020171 0.020167 0h-0.020167zm-0.36301 0.1412c0-0.080684-0.060501 0-0.060501 0s0.040334 0.040342 0.060501 0zm0.020167 0.28239c0.040334 0.060513 0.121-0.16137 0.121-0.20171-0.040334-0.080684-0.14117 0.18154-0.121 0.20171zm-0.10084 0.36308c-0.040334-0.020171 0.040334-0.28239 0.080668-0.30256v-0.020171c0.020167 0.040342-0.060501 0.32273-0.080668 0.32273zm2.2991 0.1412s-0.080668 0.020171-0.060501 0.020171c0.020167 0.020171 0.10084 0.020171 0.10084 0-0.020167-0.020171-0.020167-0.020171-0.040334-0.020171zm-0.26217 0.040342s-0.060501-0.020171-0.020167 0.020171c0.020167 0.020171 0.060501-0.020171 0.080668 0 0 0 0.10084 0 0.060501-0.040342-0.020167-0.020171-0.10084 0-0.121 0.020171zm-0.14117 0.020171c0.020167 0 0.060501 0 0.080668-0.020171 0-0.020171-0.060501-0.020171-0.080668 0.020171zc-9.1e-7 -9e-7 -0.020168-0.020171-0.040334-0.020171-0.020167 0.020171 0.020167 0.040342 0.040334 0.020171zm-0.64535-0.020171c0.060501 0 0.14117-0.020171 0.20167 0 0.080668 0.020171 0.020167 0.040342-0.040334 0.040342-0.040334 0-0.1815 0.040342-0.20167 0.020171-0.060501-0.060513 0.020167-0.060513 0.040334-0.060513zm-0.28234 0.060513c0.040334 0 0.1815-0.060513 0.20167 0 0 0.040342-0.26217 0.060513-0.32267 0.080684-0.040334-0.020171-0.1815 0.020171-0.14117-0.020171 0.060501-0.060513 0.20167-0.040342 0.26217-0.060513zm0.80668 0.060513c-0.10084 0-0.16134-0.020171-0.24201 0.040342 0.080668 0.020171 0.16134-0.020171 0.24201-0.020171 0.10084-0.020171 0.22184-0.020171 0.30251-0.020171s0.20167-0.040342 0.28234-0.040342l-0.040334-0.040342-0.080668 0.020171c-0.080668 0-0.1815 0-0.24201 0.020171-0.080668 0-0.16134 0.020171-0.22184 0.040342zm1.3512-0.040342c-0.040334 0-0.34284-0.040342-0.34284-0.020171 0 0.040342 0.30251 0.060513 0.36301 0.060513 0.10084-0.020171 0.080668-0.040342-0.020167-0.040342zm-0.54451-0.020171c0 0.020171-0.121 0-0.10084 0.020171 0 0.020171 0.20167 0.020171 0.20167 0s-0.10084-0.020171-0.10084-0.020171zm-1.3512 0.10085c-0.020167-0.040342-0.46384 0.060513-0.46384 0.080684s0.040334 0.020171 0.040334 0.020171c0.080668 0 0.1815-0.020171 0.26217-0.040342 0.020167 0 0.20167 0 0.16134-0.060513zm1.1495 0.020171c-0.020167 0-0.020167 0.040342-0.020167 0.040342 0.020167 0.020171 0.060501 0.040342 0.080668 0-0.020167 0-0.040334-0.040342-0.060501-0.040342zm-0.82685 0.080684c0-0.040342-0.060501 0.020171-0.060501 0.020171 0.020167 0 0.040334 0.020171 0.060501-0.020171zm0.10084 0.020171c0.020167-0.020171 0.080668-0.040342 0.020167-0.040342-0.060501 0 0 0.020171-0.020167 0.040342zm-0.98819 0c0.080668-0.020171 0-0.060513-0.040334 0h0.040334zm0.76635 0s-0.040334 0.020171 0 0.020171c0.060501 0-0.020167-0.040342 0-0.020171zm-0.40334 0.040342c0 0.020171 0.040334 0.020171 0.060501 0 0-0.020171-0.080668-0.020171-0.060501 0zm-0.20167 0.060513c0.020167 0 0.080668-0.040342 0-0.040342-0.040334 0.020171-0.020167 0.020171 0 0.040342zm-0.16134-0.020171c-0.060501-0.020171-0.14117 0.040342-0.060501 0.040342 0 0 0.080668-0.020171 0.060501-0.040342zm12.746-7.7255c-0.080668 0.38325-0.26217 0.74632-0.56468 1.0287l-0.26217 0.24205c0.020167 0-0.060501 0.1412-0.121 0.10085l-0.020167 0.020171-0.080668 0.10085v-0.020171l-0.14117 0.12103-0.16134 0.12103c-0.32267 0.30256-0.70585 0.54461-0.96802 0.70598-0.98819 0.52444-1.9965 0.9682-3.0654 1.3313-0.1815 0.060513-0.58485 0.080684-0.62518 0.28239-0.040334 0.18154 0.14117 0.40342 0.22184 0.54461 0.40334 0.86735 0.74618 1.7347 1.21 2.5819 0.36301 0.66564 0.72602 1.3515 1.3714 1.775 0.38318 0.22188 0.68568 0.40342 1.1495 0.44376 0.48401 0.060513 1.0487-0.020171 1.331-0.4841 0.040334-0.080684 0.14117-0.44376 0.28234-0.44376 0.121 0.020171 0 0.36308-0.040334 0.42359-0.24201 0.54461-0.90752 0.82701-1.4722 0.86735-0.121 0-0.20167 0.020171-0.26217 0.020171l0.20167-0.020171c-1.1495 0.080684-2.0772-0.68581-2.6621-1.5935-0.72602-1.1296-1.2504-2.4205-1.815-3.6308-0.080668 0.080684 0 0.26222-0.10084 0.26222 0.040334 0.040342-0.060501 0.080684-0.060501 0.10085h0.080668c0 0.020171-0.1815 0.56479-0.20167 0.60513 0-0.020171 0-0.040342-0.020167-0.060513 0 0.20171-0.080668 0.40342-0.14117 0.6253-0.020167 0.1412-0.080668 0.28239-0.10084 0.40342l0.040334 0.060513-0.060501 0.060513-0.040334 0.24205c-0.060501 0.22188-0.16134 0.42359-0.1815 0.64547-0.020167 0.12103 0 0.22188-0.020167 0.32273-0.060501 0.30256-0.34284 0.10085-0.48401-0.060513-0.24201-0.26222 0.040334-0.94803 0.121-1.2506 0.14117-0.50427 0.28234-1.0287 0.46384-1.533 0.080668-0.22188 0.40334-0.76649 0-0.80684-0.16134-0.020171-0.30251 0-0.48401-0.060513-0.26217-0.10085-0.40334-0.24205-0.58485-0.46393 0.30251 0.080684 0.58485 0.10085 0.88735 0.080684 0.080668 0 0.42351 0 0.46384-0.080684 0.020167-0.060513-0.080668-0.10085-0.080668-0.16137 0-0.10085 0.10084-0.1412 0.1815-0.18154 0.121-0.040342 0.14117 0 0.20167-0.12103 0.040334-0.080684 0.040334-0.20171 0.080668-0.28239 0.16134-0.54461 0.32267-1.1094 0.54451-1.6338 0.22184-0.50427 0.30251-1.0691 0.50418-1.5935 0.040334-0.10085 0.20167-0.32273 0.14117-0.44376-0.121-0.1412-0.38318 0.12103-0.46384 0.18154-0.46384 0.34291-1.0084 0.60513-1.4924 0.92786-0.38318 0.28239-0.78652 0.6253-1.0084 1.0489-0.14117 0.28239-0.36301 0.72615-0.64535 0.30256-0.30251-0.46393 0.121-0.82701 0.44368-1.1497 0.20167-0.20171 0.42351-0.38325 0.66551-0.56479 0.60501-0.40342 1.21-0.76649 1.815-1.1497 0.040334 0 0.060501-0.020171 0.10084 0 0.1815-0.16137 0.90752-0.46393 1.0487-0.50427 1.0285-0.38325 2.1377-0.64547 3.2267-0.46393 0.38318 0.060513 0.74618 0.18154 1.0487 0.40342 0.60501 0.44376 0.72602 1.0691 0.60501 1.775zm-3.9931-1.8557c-0.38318 0.080684-0.76635 0.24205-1.1294 0.38325 0.16134-0.060513 0.020167 0.020171 0.020167 0 0 0.020171 0.020167 0.020171 0.040334 0.020171 0.16134 0.060513 0.44368-0.10085 0.56468-0.16137 0.28234-0.10085 0.56468-0.20171 0.86719-0.28239 0.30251-0.080684 0.64535-0.12103 0.96802-0.16137 0.24201-0.020171 0.64535 0.080684 0.86719-0.040342-0.14117-0.12103-0.44368-0.020171-0.62518-0.020171-0.121 0.020171-0.24201 0.020171-0.36301 0.020171-0.080668 0.020171-0.24201 0.080684-0.30251 0.020171 0.040334 0.10085-0.38318 0.080684-0.42351 0.080684-0.16134 0.020171-0.32267 0.10085-0.48401 0.1412zm0.76635-0.30256c-0.040334 0-0.121 0.020171-0.121 0.040342 0.040334 0 0.14117 0 0.121-0.040342zm-0.56468 0.1412c-0.040334-0.020171-0.080668 0.040342-0.060501 0.020171 0.020167 0 0.060501-0.020171 0.060501-0.020171zm-0.36301 0.10085c0-0.020171-0.14117 0.040342-0.14117 0.040342 0.040334 0 0.121 0.020171 0.14117-0.040342zm-1.0285 2.6827c-0.080668 0.36308-0.22184 0.70598-0.32267 1.0489l-0.10084 0.26222c0 0.040342 0 0.10085-0.020167 0.12103-0.080668 0.080684-0.040334 0-0.121 0 0.020167 0.10085-0.020167 0.060513-0.080668 0.080684l0.040334 0.040342-0.040334 0.060513c0.020167-0.020171 0.060501-0.040342 0.10084-0.040342 0 0.080684-0.14117 0.72615-0.26217 0.72615 0.040334-0.080684 0.080668-0.16137 0.080668-0.30256l-0.020167 0.060513c-0.10084-0.040342 0.14117-0.20171 0.040334-0.32273-0.121 0.040342-0.10084 0.28239-0.121 0.36308-0.020167 0.080684-0.14117 0.26222-0.060501 0.28239-0.121 0.080684-0.020167 0.1412 0.040334 0.1412 0.020167 0.020171 0 0.060513 0 0.080684h0.020167c0.10084 0.020171 0.32267-0.080684 0.42351-0.12103l0.38318-0.18154c0.28234-0.10085 0.54451-0.22188 0.82685-0.32273 0.56468-0.20171 1.089-0.52444 1.5932-0.82701 0.80668-0.4841 1.7545-1.1296 2.178-2.0171 0.16134-0.34291 0.26217-0.78667 0.10084-1.1497-0.20167-0.38325-0.74618-0.4841-1.1495-0.52444-0.52434-0.060513-1.0487 0.040342-1.5529 0.1412-0.28234 0.040342-0.56468 0.12103-0.84702 0.22188-0.14117 0.040342-0.34284 0.060513-0.48401 0.1412-0.20167 0.1412-0.10084 0.38325-0.14117 0.60513-0.040334 0.24205-0.121 0.4841-0.22184 0.70598-0.060501 0.20171-0.16134 0.42359-0.22184 0.58496 0 0.020171-0.040334 0.12103-0.060501 0.16137v-0.020171zm0.24201-2.4407s-0.080668 0.020171-0.060501 0.040342 0.10084-0.020171 0.060501-0.040342zm-0.42351 0.20171c-0.040334-0.020171-0.10084 0.040342-0.121 0.060513l0.121-0.060513zm-0.22184 0.32273c0.121-0.060513 0.28234-0.080684 0.34284-0.22188-0.32267 0.1412-0.66551 0.28239-0.98819 0.46393-0.22184 0.12103-0.44368 0.26222-0.66551 0.42359-0.080668 0.040342-0.88735 0.54461-0.92769 0.66564-0.020167-0.040342-0.060501-0.060513 0 0.020171 0-0.12103 0.76635-0.52444 0.86719-0.58496 0.26217-0.16137 0.50418-0.30256 0.76635-0.44376l0.60501-0.32273zm4.6989 2.1583c0.040334-0.040342 0.10084-0.040342 0.14117-0.080684 0.121-0.12103 0.20167-0.28239 0.32267-0.42359 0.060501-0.080684 0.14117-0.26222 0.22184-0.24205 0.040334-0.080684 0.14117-0.32273 0.14117-0.44376-0.10084-0.020171-0.14117 0.32273-0.22184 0.36308-0.16134 0.080684 0.020167-0.26222-0.040334-0.32273-0.040334-0.040342-0.22184 0.40342-0.30251 0.52444 0.080668-0.020171 0.24201-0.080684 0.22184-0.060513-0.20167 0.10085-0.30251 0.36308-0.44368 0.50427-0.040334 0.020171-0.14117 0.16137-0.20167 0.1412-0.040334-0.040342 0.10084-0.12103 0.10084-0.18154-0.16134-0.020171-0.34284 0.28239-0.44368 0.38325-0.20167 0.16137-0.40334 0.32273-0.62518 0.46393-0.44368 0.28239-0.90752 0.58496-1.3714 0.80684-0.54451 0.26222-1.089 0.50427-1.6335 0.72615-0.26217 0.12103-0.52434 0.20171-0.78652 0.30256-0.080668 0.040342-0.30251 0.20171-0.38318 0.1412 0.040334 0.040342 0.44368 0.060513 0.44368 0.020171 0.020167 0.040342-0.34284 0.080684-0.34284 0.1412s0.121 0.020171 0.121 0.020171c0.020167-0.020171 0.060501-0.020171 0.10084-0.040342 0 0.020171 0.020167 0.020171 0 0.040342 0.020167-0.020171 0.14117-0.040342 0.040334-0.060513 0.60501-0.26222 2.0974-0.74632 2.3192-0.86735 0.30251-0.16137 0.62518-0.34291 0.94785-0.50427 0.080668-0.040342 0.30251-0.10085 0.34284-0.20171 0.020167-0.060513 0.24201-0.12103 0.30251-0.18154 0.020167 0 0.20167-0.22188 0.14117-0.22188 0 0-0.46384 0.30256-0.46384 0.28239 0.020167-0.060513 0.040334-0.10085 0.040334-0.16137 0.20167-0.18154 0.38318-0.30256 0.46384-0.30256-0.040334 0 0.080668 0.12103 0.080668 0.080684 0 0.10085-0.10084 0.020171-0.14117 0.060513 0.1815 0.12103 0.32267-0.060513 0.44368-0.18154 0.080668-0.060513 0.28234-0.18154 0.28234-0.30256l-0.10084 0.040342c-0.080668-0.020171 0.20167-0.12103 0.1815-0.10085 0.040334-0.040342 0.060501-0.10085 0.10084-0.16137zm0.30251-0.82701c0.060501-0.020171 0.16134-0.24205 0.14117-0.30256-0.060501 0.060513-0.16134 0.20171-0.14117 0.30256zm-5.6065 2.1179c-0.080668 0.24205-0.28234 0.64547-0.22184 0.90769 0.020167-0.040342 0.22184-0.30256 0.22184-0.34291 0 0.12103-0.020167 0.24205-0.040334 0.36308l0.121-0.28239c0.020167-0.020171 0.040334-0.060513 0.020167-0.060513l0.060501-0.32273c0.060501-0.060513 0.10084-0.16137 0.060501-0.24205 0 0.020171-0.060501 0.020171-0.080668 0-0.020167-0.020171-0.020167-0.060513 0-0.10085 0.020167-0.10085 0.060501-0.20171 0.10084-0.28239l0.040334 0.18154c0.080668-0.040342 0.020167-0.16137 0-0.26222 0-0.040342 0.020167-0.080684 0.020167-0.12103l0.30251-0.94803c0.060501-0.24205 0.24201-0.54461 0.20167-0.80684-0.14117 0-0.44368 1.3111-0.52434 1.4725-0.10084 0.28239-0.20167 0.56479-0.28234 0.84718zm5.5661-1.9969c-0.020167-0.040342-0.040334 0-0.040334 0.020171 0.020167 0.020171 0.020167 0 0.040334-0.020171zm-7.3812 0.040342c0.020167 0.020171 0.040334-0.060513 0.020167-0.020171 0 0-0.040334 0.020171-0.020167 0.020171zm7.0182 0.26222c0.020167-0.040342 0.080668-0.060513 0.060501-0.080684 0 0.020171-0.060501 0.060513-0.060501 0.080684zm0.16134 0.020171s0.060501-0.060513 0.040334-0.080684c-0.060501 0-0.080668 0.060513-0.040334 0.080684zm-0.080668 0.040342c-0.10084 0-0.020167 0.10085 0 0.060513 0.020167-0.040342 0.040334-0.060513 0-0.060513zm0.16134 0.46393c0.040334 0 0.14117-0.040342 0.121-0.10085 0-0.040342-0.10084 0.10085-0.121 0.10085zm-0.42351-0.060513s-0.040334 0.040342 0 0.040342c0.080668 0 0-0.060513 0-0.040342zm0.14117 0.060513s0.080668-0.020171 0.060501-0.040342-0.14117 0.020171-0.060501 0.040342zm-0.34284 0.080684c-0.020167 0-0.060501 0.080684-0.040334 0.080684 0.040334 0 0.080668-0.060513 0.040334-0.080684zm-4.3158 0.18154c0.060501 0 0.040334-0.12103 0.040334-0.12103-0.040334 0-0.040334 0.10085-0.040334 0.12103zm4.1746-0.060513c0 0.020171 0.020167 0.060513 0.040334 0.020171 0 0-0.020167-0.040342-0.040334-0.020171zm0.16134 0.10085c0.040334 0 0.060501-0.020171 0.040334-0.040342-0.040334 0-0.060501 0-0.040334 0.040342zm-0.10084 0.080684c0.020167 0 0.040334-0.020171 0.040334-0.020171 0-0.040342-0.080668 0.020171-0.040334 0.020171zm-4.3158 0.18154c-0.040334 0-0.080668 0.12103-0.040334 0.12103 0.040334-0.020171 0.040334-0.10085 0.040334-0.12103zm4.1948 0.16137c0 0.020171 0.10084-0.080684 0.14117-0.12103-0.040334 0.020171-0.14117 0.080684-0.14117 0.12103zm-0.88735 0.20171c0.121-0.040342 0.14117 0.060513 0.080668 0.12103-0.020167 0.040342-0.080668 0.020171-0.121 0.020171-0.020167 0.020171-0.040334 0.060513-0.060501 0.060513-0.10084 0.060513-0.36301 0.26222-0.50418 0.24205h-0.020167c0-0.020171-0.020167-0.020171-0.020167-0.020171v-0.020171c0.020167-0.10085 0.24201-0.20171 0.32267-0.20171 0.080668-0.020171 0.14117 0 0.20167-0.060513 0.040334-0.020171 0.080668-0.12103 0.121-0.1412zm-3.4486 0.18154c0.020167 0 0.040334-0.060513 0.020167-0.080684l-0.020167 0.080684zm3.3881 0c0.020167 0.020171 0.060501 0.060513 0.080668 0.040342 0-0.040342-0.060501-0.060513-0.080668-0.040342zm0 0.060513c-0.020167 0-0.020167-0.020171-0.040334-0.020171 0 0.020171-0.020167 0.060513 0.040334 0.020171zm-3.6502 0.4841c-0.040334 0-0.040334-0.16137 0.020167-0.16137h-0.040334c0-0.040342 0.060501-0.28239 0.121-0.28239 0.040334 0-0.040334 0.44376-0.10084 0.44376zm0.34284-0.38325l-0.060501 0.080684c0.040334 0 0.060501-0.080684 0.10084-0.080684h-0.040334zm2.4201 0.28239c0.080668 0 0.10084-0.10085 0.121-0.12103-0.040334 0-0.20167 0.10085-0.121 0.12103zm-0.54451-0.040342c-0.040334-0.020171-0.24201 0.080684-0.22184 0.080684 0.040334 0 0.1815-0.040342 0.22184-0.080684zm0.46384 0.040342c0 0.020171 0 0.040342 0.020167 0.020171 0.020167-0.020171-0.020167-0.040342-0.020167-0.020171zm-0.16134 0.080684c0.020167 0.040342 0.10084 0.020171 0.121 0 0.040334-0.10085-0.121 0-0.121 0zm-0.68568 0.040342c0-0.040342-0.060501 0.040342-0.080668 0.040342 0.020167 0 0.080668 0 0.080668-0.040342zm0.52434 0.020171c-0.020167 0.060513 0.080668-0.020171 0.121-0.020171-0.040334-0.020171-0.121 0-0.121 0.020171zm-0.080668 0.040342c0.080668 0 0.020167 0.060513-0.040334 0.10085-0.060501 0.040342-0.1815 0.020171-0.26217 0.020171 0.060501-0.020171 0.24201-0.1412 0.30251-0.12103zm-2.2184 0.080684c0-0.020171-0.020167-0.060513 0.020167-0.060513 0 0.020171-0.020167 0.040342-0.020167 0.060513zm1.573 0.080684s0.060501-0.020171 0.040334-0.040342c-0.020167 0-0.060501 0.020171-0.040334 0.040342zm-1.452 0.080684c0-0.020171-0.020167-0.040342-0.020167-0.060513 0 0.040342-0.020167 0.080684 0.020167 0.060513zm1.6537-0.060513c-0.060501 0.060513 0.040334 0.040342 0.040334 0.040342 0-0.020171 0-0.040342-0.040334-0.040342zm-0.28234 0.080684s0.121 0 0.10084 0.040342c-0.020167 0.020171-0.060501 0.020171-0.080668 0s0.020167 0-0.020167-0.040342zm-1.4117 0.12103c0.040334 0 0.040334-0.040342 0.020167-0.060513-0.020167 0.020171-0.040334 0.040342-0.020167 0.060513zm1.2705 0c-0.020167 0-0.040334 0.040342-0.020167 0.060513 0.040334 0 0.040334-0.060513 0.020167-0.060513zm-0.36301 0.1412c-0.040334 0 0.020167 0.020171 0.040334 0 0-0.020171-0.020167-0.020171-0.040334 0zm-0.22184 0.10085c0.020167 0 0.040334 0 0.060501-0.020171-0.080668-0.12103-0.16134 0.020171-0.060501 0.020171zm-0.121 0c0.020167 0.020171 0.060501 0.060513 0.060501 0.020171 0 0-0.060501-0.040342-0.060501-0.020171zm0.28234 0.020171c0.040334 0.020171 0.040334 0.020171 0.060501-0.020171-0.020167 0.020171-0.040334 0-0.060501 0.020171zm-0.48401 0.080684c0.020167 0 0.1815-0.020171 0.1815-0.060513-0.080668-0.020171-0.121 0.020171-0.1815 0.060513zm0.080668 0.080684c-0.020167-0.020171 0.040334 0.060513 0.040334 0.020171 0-0.040342-0.020167-0.040342-0.040334-0.020171zm-0.040334 0c0.020167-0.020171-0.040334 0-0.020167 0 0 0.020171 0.020167 0 0.020167 0zm-0.24201 0.080684c0-0.020171 0-0.020171 0.040334-0.020171-0.020167 0-0.020167 0.020171-0.040334 0.020171zm-1.2705 0.16137s0.20167-0.040342 0.22184-0.10085c0-0.040342-0.64535 0.040342-0.70585 0.040342 0.040334 0.1412 0.34284-0.040342 0.44368 0.040342l0.040334 0.020171zm0.28234 0.78667c0.040334-0.10085 0.10084-0.22188 0.14117-0.36308 0.060501-0.22188-0.040334-0.26222-0.14117-0.040342-0.121 0.28239-0.1815 0.58496-0.26217 0.88752-0.10084 0.36308-0.1815 0.72615-0.30251 1.0892-0.060501 0.18154-0.10084 0.36308-0.14117 0.56479-0.020167 0.12103-0.080668 0.26222-0.080668 0.40342 0-0.060513 0.040334-0.060513 0.020167 0.020171 0.14117-0.28239 0.14117-0.66564 0.24201-0.94803 0.10084-0.36308 0.26217-0.70598 0.36301-1.0691 0.060501-0.18154 0.060501-0.36308 0.16134-0.54461zm0.22184-0.32273c0.020167-0.020171 0.020167-0.060513 0.020167-0.060513 0 0.020171-0.040334 0.080684-0.020167 0.060513zm-0.080668 0.24205c0-0.020171 0.060501-0.080684 0.020167-0.10085 0 0.040342-0.080668 0.060513-0.020167 0.10085zm0.90752 0.90769l-0.22184-0.50427c-0.080668-0.16137-0.16134-0.30256-0.26217-0.46393 0.48401 0.9682 0.84702 1.9969 1.3714 2.945 0.040334 0.060513 0.88735 1.3918 1.2705 1.6742-0.040334 0.020171 0.040334 0.080684 0.10084 0.060513-0.020167 0-0.060501-0.020171-0.10084-0.060513l0.080668 0.020171c-0.22184-0.10085-0.36301-0.34291-0.52434-0.54461-0.040334-0.040342-0.38318-0.6253-0.40334-0.6253l0.040334-0.020171c-0.14117-0.040342-0.24201-0.32273-0.32267-0.44376-0.10084-0.16137-0.14117-0.32273-0.24201-0.50427-0.121-0.24205-0.22184-0.46393-0.32267-0.70598-0.060501-0.16137-0.1815-0.26222-0.24201-0.40342-0.040334-0.060513-0.020167-0.12103-0.040334-0.20171-0.040334-0.080684-0.14117-0.1412-0.1815-0.22188zm-1.2705-0.70598c0.060501 0-0.040334-0.080684-0.020167-0.020171 0 0 0 0.020171 0.020167 0.020171zm-0.060501 0.16137c-0.020167-0.020171-0.040334 0.060513-0.020167 0.060513 0-0.020171 0-0.040342 0.020167-0.060513zm-0.10084 0.32273c-0.020167 0.020171-0.040334 0.040342-0.020167 0.060513 0.020167 0 0.020167-0.040342 0.020167-0.060513zm-0.060501 0.28239s-0.040334-0.020171-0.020167 0.040342c0.020167-0.020171 0.020167-0.020171 0.020167-0.040342zm2.4604 1.5733c-0.20167-0.42359-0.36301-0.86735-0.64535-1.2708 0.14117 0.28239 0.22184 0.56479 0.36301 0.82701l0.24201 0.40342c-0.040334-0.10085-0.121-0.28239 0.040334 0.040342zm0.121 0.24205c0-0.020171-0.020167-0.080684-0.060501-0.060513l0.060501 0.060513zm0.10084 0.1412c0.020167-0.020171-0.020167-0.060513-0.040334-0.080684 0.020167 0.020171 0.020167 0.060513 0.040334 0.080684zm0.121 0.18154c-0.060501 0-0.060501-0.12103-0.10084-0.16137 0.040334 0.1412 0.080668 0.38325 0.20167 0.46393h0.020167c0.121 0.060513-0.080668-0.36308-0.121-0.36308v0.060513zm0.52434 0.70598c-0.080668-0.10085-0.20167-0.16137-0.26217-0.28239 0.080668 0.16137 0.28234 0.6253 0.48401 0.64547-0.060501 0.020171-0.080668 0.040342 0.040334 0h0.020167c-0.080668 0-0.080668-0.1412-0.121-0.1412v0.020171l-0.16134-0.24205zm0.52434 0.60513c0-0.060513-0.1815-0.16137-0.22184-0.10085 0.10084 0 0.121 0.16137 0.22184 0.10085z"/>
</g>
</g>
</svg>
