<svg xmlns="http://www.w3.org/2000/svg" width="494" height="165"><path d="M47.466 87.055zm0 0L35.95 82.592c-6.192-2.88-10.944-8.496-10.656-15.552.576-15.264 30.24-27.504 41.328-17.856 1.008 1.008 5.04 5.472 3.168 6.768-.288.288-4.176-2.448-4.752-2.592-5.76-2.592-12.24-1.296-18.144.576-6.624 2.16-19.152 7.92-18.576 16.56.576 7.632 14.688 10.8 20.016 13.248 10.08 4.32 31.392 19.728 13.536 29.664.144 0 .288.144.864-.144-.144.288-.576.432-1.008.432-.144.288-.576.72-.576.576s-7.92 6.048-9.216 5.904c-.576.288-1.584.864-3.024 1.44.144-.144.288-.288.288-.432-.288-.288-2.016.432-1.44.576h.576c-6.912 2.592-21.6 6.048-23.184 6.336-6.336 1.008-15.552 2.016-20.592-3.024-1.728-1.44-2.304-3.456-3.024-5.184-.144-.432-1.008-4.896-.72-5.76l-.144-.144v-.144c0 .144-.432.432-.576.432-.288-.144.144-1.44.432-1.584 0 .288.144.72.288.864l.864-1.296c-.28.422-.15.843-.01.997-1.084-1.2 8.953-11.375 14.266-14.965-.72.144-1.008.288-1.008.288-.144-.144 7.92-4.032 8.496-4.032-.144.288-2.448 1.584-4.608 2.448.144 0 .144.144.144.144.576 1.296 1.584-.288 4.032-.72-.72.864-10.224 5.76-10.224 5.76.144 0 .144 0 .288-.144.144 0 .144 0 .288.144 0 .144-1.152 1.008-1.296.576v-.144c-.72 1.008-5.328 3.744-5.328 5.616 0-.144.576.432.576.432.432-.576 6.192-6.048 8.064-6.912 1.296-2.16 3.456.288-.576 1.872 0 0 .288-.432.144-.576-.144 0-1.152.864-1.152 1.152.144-.288.432-.432.72-.432-5.616 5.472-17.568 18.144-2.592 19.584 4.32.432 8.64-.144 12.96-.864 4.608-.864 11.952-4.32 16.416-3.888-3.744 2.448-10.368 3.168-14.688 4.032-1.152.144-14.832 1.584-14.832 1.44-.432 2.016 14.832-.72 14.976-.432.144 1.44-16.128 2.016-16.128 1.728 0 1.152 12.096 0 16.416-.576.144-.432 3.024-1.008 3.888-1.008-.432 0 3.888-.72 3.888-.72-.144-.144-.288-.144-.432-.144 1.728-1.584 6.624-1.728 8.928-2.448s6.48-3.744 8.928-3.312c-.864.72-10.08 5.328-13.248 6.192.144.288-.576.144-.72.288-.288.576 2.016-.288 2.016-.288s0-.144-.144-.144c3.024-.864 13.248-5.328 13.968-5.472h-.432c.144-.288 2.592-1.872 2.736-1.872-.432-.288 2.304-1.728 3.312-2.16-.288-.144-.72-.432 0-.864-.144-.864 2.016-1.44 2.016-2.16 0 0-.576-.288-.576-.432 0-.72 1.44-.864 1.44-1.584 0-.432-1.296.288-1.296.288.144-.144 3.744-3.888 3.168-4.176 0 0-6.48 7.632-6.912 7.488-.43 1.15-6.59 4.733-7.624 4.038.4-.032 9.06-5.635 8.776-6.486-.144-.144.144-1.296.576-.864.144 0-.432.576-.432.576l1.008-1.008c-.288.144-.432 0 .144-.288.432-.576 1.152-1.296 1.728-1.728-.144-.432 1.44-1.728 1.44-1.584.144-.288 2.016-2.592 1.872-2.88-1.296-2.448-1.296-4.464-4.32-7.2-.864-.576-9.648-5.184-9.648-6.192.288-.144-.72.144-1.152-.288.288-.144-2.16-.576-2.736-1.008-.144 0 .288-.144.288-.288l-.005-.002zm12.245 25.778a.18.18 0 0 0 .072.018c-.036.1-.072-.018-.072-.018zm-58.042.42zM51.07 47.6c-1.584 0 1.584 1.008 1.44.144 0-.144-1.152 0-1.44-.144zm-2.88 1.152c.72.144.864 0 1.152-.576-.288-.432-1.584.432-1.152.576zm-3.024.576c.144.576 2.592-.576 1.152-.576-.72-.144-1.152.144-1.152.576zm-2.592.72c-1.296.432 1.152.72 1.008 0 0-.144-1.296-.144-1.008 0zM40.703 51.2c.432 0 .864-.288 1.152-.576-.288 0-1.008.432-1.152.576zm-7.488 3.744c0-.144 6.624-3.168 6.624-3.456 0-.576-2.592.72-2.448.72 0 0-4.32 2.304-4.176 2.736zm3.312 1.152c.72-.144 1.728-1.296 2.016-1.296-.432 0-1.584 1.008-2.016 1.296zm-4.608 3.456c.576-.288 3.456-2.016 3.168-2.736-.144-.288-3.024 2.592-3.168 2.736zm-2.016-1.872c-.144.288-.432.864 0 .288.144-.144.576-.72 0-.288zm-1.584 6.192c.288-.576 2.016-2.88 1.872-3.024-.432-.288-1.584 2.448-1.872 3.024zm32.976 30.384c-.144-.144-.144 0-.144 0h.144zm1.44 1.296c-.288-.288-1.008-1.152-1.152-1.008.288-.144 2.88 3.888 3.312 4.032.144-1.152-2.016-2.88-2.016-2.88l-.144-.144zm-46.512 3.456c-.432 0-4.176 1.872-3.888 2.88.288.288 4.752-2.448 5.04-3.024-.432-.144-.72 0-1.008.432-.72 0 1.152-.864 1.008-1.008-.144-.432-1.152.72-1.152.72zm-1.584-.288c-.432-.576-2.304.72-4.32 2.88 1.872-1.728 4.032-3.168 4.32-2.88zm-4.32 2.88c-2.304 2.016-4.896 4.752-6.48 7.2 1.008-2.016 2.016-3.6 2.448-4.032.288-.144 2.016-1.728 4.032-3.168zm-1.728 3.456c-.72-.432-3.888 4.32-3.888 4.32 0 .144 4.032-4.176 3.888-4.32zm-6.912 7.2c.432-.864 1.296-2.304 2.16-3.456-1.152 1.44-2.016 2.592-2.16 3.456zm59.5-3.168c-.018.036-.018.072-.018.144a.51.51 0 0 0 .126-.198l-.108.054zm0 0a.68.68 0 0 1 .126-.144s0 .036-.018.1l-.108.054zm-.45.288c.288-.144.432-.288.432-.144h-.144c0 .144 0 .144-.288.288 0 .144-.864 1.152-1.008 1.008-.288-.288 1.008-1.296 1.008-1.152zm-55.296.576c.288-.144.432-.432.432-.72-.144-.144-.288.432-.432.72zm51.696.72s.864-.288 1.008-.432c-.432-.576-1.008.432-1.008.432zm-7.488 5.904c-.288-.576-1.152.432-1.152.432.144 0 1.44 0 1.152-.432zm-1.584.864c.288-.432-.576-.144-.72 0 .144 0 .576.288.72 0zm2.016 3.168c.432-.144 1.008-.144 1.296-.432-.144 0-1.152.288-1.296.432zm-14.256.864c.144 0 2.016-.144 1.872-.432 0-.144-1.872.144-1.872.432zm-11.52 2.016c0 .288 2.88-.432 1.44-.432 0 0-1.584.288-1.44.432zm15.264-.144c.288 0 .432 0 .576-.144-.144-.144-.288 0-.576.144zm-3.744.432a2.36 2.36 0 0 0 1.728-.288c-.144 0-2.736 0-2.736.432.144.288 1.008 0 1.008-.144zm-4.752 1.152c.288.432 3.456-.288 3.456-.72 0 .288-2.448.144-3.024-.288 0 0-.288 0-.432-.144-.288.288-.576.72 0 1.152zm-2.448-.288c0-.144-.432 0-.72.144.432-.144.72-.144.72-.144zm1.296.432c.288-.144.432-.144.576-.288l-.576.288zm-3.6.72c-.432.144 4.032.432 4.032-.288 0-.144-.72.144-.72-.144v-.288c-.72.432-1.728.864-2.16.72 0 0-.576-.288-1.152 0zm-1.584 1.296c.144 0 .288-.864.144-.864-.576 0-3.024 0-2.88.432 0 .288 2.304.432 2.736.432zm-4.608-.144s1.008.288.864-.144-.864-.144-.864.144zm-2.592 0c-.144 0 1.728.288 1.728 0-.288-.288-.864-.432-1.296-.144 0-.144-1.296.144-.432.144zm-.864.864c.144-.72-.864-.144-1.008 0 .144 0 1.008.288 1.008 0zm95.184-14.688c-2.448 0-3.888-.864-5.472-2.304-3.744-3.456-5.184-8.208-5.184-13.104 0-1.008.144-1.872.144-2.592-1.152.72-2.16 2.016-3.024 3.168-2.304 3.024-3.744 4.176-6.768 6.624l-.72.576c-1.728 1.872-4.32 2.736-6.624 3.312-2.736.72-5.04.288-6.912-1.728a10.98 10.98 0 0 1-2.448-4.608c-.288-1.296.144-2.592.576-3.6.864-1.872 1.872-3.744 3.024-5.328.576-1.296 1.872-2.016 2.592-3.024 1.296-1.728 1.152-1.44 2.592-3.024s2.592-2.88 4.464-4.32l3.456-2.88c1.584-1.296 3.744-1.872 4.608-2.304 2.736-1.44 5.184-2.304 8.064-2.592 2.592-.288 4.752.432 6.912 1.584l.576.432c1.152 1.008 1.152 1.44-.288 2.16l-.576.432c-.144.144 0 .144-.288.144-.144 0 0-.288 0-.288l.144-.288c.288-.432.72-.864.432-1.152-.432-.432-.864 0-1.296 0l-.576.144c-3.888.144-7.344 1.584-10.8 3.312-2.592 1.296-5.184 3.024-7.344 5.184-2.304 2.304-3.312 3.024-5.328 5.472-1.584 2.016-3.168 4.32-4.752 6.624-.72 1.008-1.584 2.736-1.584 3.744 0 .144-.144.72-.144 1.296 0 1.008.288 1.008 1.152.864 1.008-.144 2.016-.288 2.88-1.008 1.152-.864 2.304-1.44 3.6-2.016.864-.432 2.16-.72 3.168-1.44l1.296-1.008c.72-.288 0-.432.72.288.144.144.144-.288.288-.432.144.72-.144 1.008-.576 1.44-.144.144-.288.432 0 .432.144 0 .288-.144.432-.144.288 0 .432-.576 1.008-.576v.144c1.152-.144 1.44-1.296 2.16-1.872.432-.288.72-1.296 1.584-.72.432.288.72-.432 1.008-.864l2.304-3.024c.288-.288.576-.576 1.008-.72.432-.576.576-1.152.576-1.872 0-.432 0-.864.288-1.152.144-.144.432-.576 0-.576-.144 0-.288.144-.576.288 0-.288.288-.432.432-.72.864-1.728 1.296-3.024 2.016-4.752.72-1.872 1.008-1.872 2.592-1.296l2.448.72c.864.288 1.296 1.728.72 2.736-.72 1.296-1.296 2.592-1.872 3.888-1.728 3.888-2.448 7.92-2.016 12.24.288 2.736 1.584 5.184 2.592 5.904.72.432 1.584 1.152 2.304 1.584.576.288 1.872.72 3.168.72.72 0-.72 1.152-2.16 1.872zM95.423 78.992l.432-.288c0-.144-.288-.144-.432-.144a.31.31 0 0 0-.288.288c0 .288.144.144.288.144zm5.472 12.384l.864-1.008c-.864-.144-.864.288-.864 1.008zM99.6 92.528c.576-.288.864-.72 1.296-1.152-.864 0-1.152.576-1.296 1.152zm1.296.144c-.288-.288 0-.288 0-.432l.432-.576c.144.432 0 .576-.288.864 0 0 0 .288-.144.144zm-2.592.576a1.07 1.07 0 0 0 1.296-.72c-.432.288-.864.576-1.296.72zm-20.016 2.448c.288-.432.576-.72.72-1.152-.432.288-.576.72-.72 1.152zm16.848.144l.144-.288c.144-.144.288-.288.432-.144.288.288 0 .144-.144.288s-.288.144-.432.144zm-1.584 1.728c.288 0 .576-.144.576-.576a1.12 1.12 0 0 0-.576.576zm40.934-19.18a.54.54 0 0 1-.038.028l.038-.028zm0 0c.5-.358-.33.604-.47.604s-.288.288-.432.576c-.288.576-1.872 1.728-2.016 2.304l-1.008 1.152-1.152 1.296c-.144.144-.288.72-.576 1.008-.432.864-.864 1.44-1.44 2.16s-.864 1.44-1.44 2.16c-.576 1.152-1.008 2.16-2.16 3.168-.288.288-.576 1.152-.72 1.584-.72 1.44-3.312 8.064-4.032 9.504-.576 1.152-1.008 2.304-1.152 3.6-.288.432-.432 1.008-.576 1.584l-.432.288c-.288-.144-.576-.288-.72 0-.144.144-.288.288-.576.144l-.576-.432c-.432-.144-.864-.432-1.296-.72-.288-.144-.432-.288-.432-.432-.288-.288-.576-1.008-.72-1.44 0-.144 0-.432.144-.576.432-1.728.72-3.168 3.312-9.936l.432-1.44c.144-.576.432-1.008.288-1.44 0-.576.144-.864.288-1.152 0-.144.288-1.008.432-1.296v-.576l.576-2.448c0-.576.144-1.008.288-1.728v-.288c.432-.864.72-2.16.72-3.024l.72-2.016c.144-1.728.576-3.456.576-5.184-.144-.288 0-.72 0-1.296s.288-.72.72-.72l1.296.432c.288 0 .432.144 1.008.144.288 0 .576 0 .576.432l.432.432c.72.72 1.008 1.584.864 2.736.144.72.144 1.872 0 2.88-.144.72-.864 1.296-.864 2.592 0 .144-.144.72-.288.864-.288.576-.576 2.016-.72 2.592v.144h.144c.288-.288.432-.576.432-.864.432-.432 1.296-1.872 1.872-2.304.144.144 0 .288-.144.432-.288.72-1.152 2.16-1.44 2.736-.144.576 0 .576-.144 1.008 0 .144-.144.144 0 .288 0 0 .144 0 .144-.144.576-.432 1.296-1.44 1.728-2.448 0 0 0-.144.144-.144.864-.864 1.44-2.016 2.304-3.024.864-.864.288.144 1.008-.72l.864-1.296c-.144-.432.144-.72.288-.864l.288-.288h.144c.288.144 0 0 0 .432 0 .144-.144.432-.576.576v.144c.144.144.288.144.288 0h.144c-.144-.288 1.152-2.016 1.584-2.016.144-.288.432-.864.432-1.008.144-.288.144-.288.288-.288v.144l.72-1.296c.576-.864 1.152-1.008 1.296-1.584 0-.144 1.152-1.152 1.152-1.152.288-.288.288-.576 1.296-1.152.432-.144.72-.144 1.152.144.144.144.288.288.432.144.72-.144 1.44 1.44 1.584 1.728v1.584c-.144.72-.72 1.584-1.152 2.16-.72-.432-.72-.72-.72-1.296 0-.288-.144-1.728-.432-1.728-.864 0-2.016 1.008-2.448 2.016-.56.14-1.12 1.502-1.546 1.844zm-5.078 1.18c-.432.144-.432 0-.288 0 .72-1.008 1.44-1.872 2.448-2.88 0-.144.288-.288.432-.576l.432-.288c.432-.576 1.296-1.296 1.584-1.44.144.144.576-.288.288.288l-1.44 1.152c-.432.576-1.44 1.44-2.016 2.16l-.864.864v.144l-.576.576zm2.448-1.872c-.144 0-.144 0-.288.144l-.72 1.152h-.144c.72-1.584 3.024-3.6 2.304-2.736l-.144.288c-.288.432-.432.72-1.008 1.152zm1.008 1.152c.432-.144 1.296-1.44 1.008-1.152-.288.432-.72.864-1.008 1.152zm.576-1.152c.144-.144 0-.144-.288 0v.144c0 .144-.432.576-.576.72h-.144c0 .144 0 .144.144.288l.864-1.152zm-5.328 3.744c-.72.576-1.008 1.44-1.728 2.016h-.288v-.288s.144-.144.288-.144c.576-1.008 1.296-2.016 2.16-2.88l.432-.288c-.288.288-.432 1.008-.864 1.584zm.144 2.592c.432-.288.72-.72 1.152-1.152l1.296-1.872.144-.144h-.144c-.432.864 0-.576-.576.288-.144.288-.144.432-.432.72 0 0-.144 0-.288.288 0 .432-.432.576-.576.72-.144.432-.432.72-.72 1.152v.144c.144 0 .144 0 .144-.144zm44.496 29.088c-2.448 0-3.888-.864-5.472-2.304-3.744-3.456-5.184-8.208-5.184-13.104 0-1.008.144-1.872.144-2.592-1.152.72-2.16 2.016-3.024 3.168-2.304 3.024-3.744 4.176-6.768 6.624l-.72.576c-1.728 1.872-4.32 2.736-6.624 3.312-2.736.72-5.04.288-6.912-1.728a10.98 10.98 0 0 1-2.448-4.608c-.288-1.296.144-2.592.576-3.6.864-1.872 1.872-3.744 3.024-5.328.576-1.296 1.872-2.016 2.592-3.024 1.296-1.728 1.152-1.44 2.592-3.024s2.592-2.88 4.464-4.32l3.456-2.88c1.584-1.296 3.744-1.872 4.608-2.304 2.736-1.44 5.184-2.304 8.064-2.592 2.592-.288 4.752.432 6.912 1.584l.576.432c1.152 1.008 1.152 1.44-.288 2.16l-.576.432c-.144.144 0 .144-.288.144-.144 0 0-.288 0-.288l.144-.288c.288-.432.72-.864.432-1.152-.432-.432-.864 0-1.296 0l-.576.144c-3.888.144-7.344 1.584-10.8 3.312-2.592 1.296-5.184 3.024-7.344 5.184-2.304 2.304-3.312 3.024-5.328 5.472-1.584 2.016-3.168 4.32-4.752 6.624-.72 1.008-1.584 2.736-1.584 3.744 0 .144-.144.72-.144 1.296 0 1.008.288 1.008 1.152.864 1.008-.144 2.016-.288 2.88-1.008 1.152-.864 2.304-1.44 3.6-2.016.864-.432 2.16-.72 3.168-1.44l1.296-1.008c.72-.288 0-.432.72.288.144.144.144-.288.288-.432.144.72-.144 1.008-.576 1.44-.144.144-.288.432 0 .432.144 0 .288-.144.432-.144.288 0 .432-.576 1.008-.576v.144c1.152-.144 1.44-1.296 2.16-1.872.432-.288.72-1.296 1.584-.72.432.288.72-.432 1.008-.864l2.304-3.024c.288-.288.576-.576 1.008-.72.432-.576.576-1.152.576-1.872 0-.432 0-.864.288-1.152.144-.144.432-.576 0-.576-.144 0-.288.144-.576.288 0-.288.288-.432.432-.72.864-1.728 1.296-3.024 2.016-4.752.72-1.872 1.008-1.872 2.592-1.296l2.448.72c.864.288 1.296 1.728.72 2.736-.72 1.296-1.296 2.592-1.872 3.888-1.728 3.888-2.448 7.92-2.016 12.24.288 2.736 1.584 5.184 2.592 5.904.72.432 1.584 1.152 2.304 1.584.576.288 1.872.72 3.168.72.72 0-.72 1.152-2.16 1.872zm-16.416-34.128l.432-.288c0-.144-.288-.144-.432-.144a.31.31 0 0 0-.288.288c0 .288.144.144.288.144zm5.472 12.384l.864-1.008c-.864-.144-.864.288-.864 1.008zm-1.296 1.152c.576-.288.864-.72 1.296-1.152-.864 0-1.152.576-1.296 1.152zm1.296.144c-.288-.288 0-.288 0-.432l.432-.576c.144.432 0 .576-.288.864 0 0 0 .288-.144.144zm-2.592.576a1.07 1.07 0 0 0 1.296-.72c-.432.288-.864.576-1.296.72zM139.2 95.696c.288-.432.576-.72.72-1.152-.432.288-.576.72-.72 1.152zm16.848.144l.144-.288c.144-.144.288-.288.432-.144.288.288 0 .144-.144.288s-.288.144-.432.144zm-1.584 1.728c.288 0 .576-.144.576-.576a1.12 1.12 0 0 0-.576.576zM247.63 2.384c4.896 4.32-2.16 12.384-5.184 16.128-6.624 8.064-12.096 15.696-19.296 22.752-4.32 4.176-8.784 8.208-13.248 12.096-2.592 2.304-5.04 4.752-7.776 7.056-2.16 1.728-4.32 3.312-6.048 5.472-4.032 5.472-7.056 12.384-9.792 18.432-.864 1.872-1.728 3.744-2.736 5.616 0 .144-1.44 4.032-.72 3.312.144-.144.72-1.008 1.152-1.152l.144-.144h-.432c.144-.144.288-.288.576-.288v.144l1.296-1.152c1.872-1.872 3.6-3.6 5.616-5.04.576-.432 8.64-7.92 8.352-8.208-.432-.432-2.592 1.728-2.88 2.016-.144-.432 3.168-3.312 3.6-3.6 1.584-.576 4.752 0 5.472 1.584 1.008 2.304-2.304 6.192-3.312 8.64-1.296 3.024-1.872 6.048-2.448 9.216-.72 4.176-2.304 9.792 0 13.68 1.44 2.448 1.296 1.584 2.448 1.296 1.44-.288 2.016-1.008 2.88-1.872 1.296-1.728.576.288 2.16-1.296 1.008-1.008 2.448-1.872 3.168-2.448 1.296-1.152.72 1.296.288 1.584-3.168 3.456-2.736 6.336-8.064 6.912-7.92.864-8.352-7.056-8.64-12.672s.864-10.512 2.448-15.696c-.432-.432-6.336 5.04-6.48 5.184-3.312 3.168-6.768 6.192-9.36 10.08-1.728 2.592-3.024 5.184-4.32 7.92-1.008 2.16-3.168 1.872-4.896 1.872-2.304 0-.432-5.328 1.008-8.064.576-1.584 1.152-3.168 1.872-4.752 1.152-2.16 2.016-4.032 2.88-6.048 1.008-2.304 3.024-4.752 3.456-7.2-.288.288-.288.288-.288-.144 1.296-.144 1.44-2.736 1.872-3.456 1.008-2.016 8.208-15.264 9.648-17.28.72-1.44 1.872-2.448 2.592-3.888l1.008-1.872c-.432 1.008 1.296-2.16 1.152-2.016.72-.864.864-1.008.72-1.44l.288-.72h.144l.72-1.008c.288-.288.432-1.152.576-1.44 0-.288.576-.864.864-.864.864-1.584 2.16-3.456 3.168-5.04.72-1.152 2.736-3.168 2.88-4.608.144-.432-.864.288-.864.288.72-1.584 3.312-3.168 3.168-4.752.576.576-1.584 3.024-1.728 3.6 1.152-1.872 2.592-3.6 3.744-5.472l.432-1.44c2.736-3.312 5.04-7.056 7.632-10.512 4.32-5.76 9.36-11.376 14.544-16.272 4.32-4.176 8.784-8.064 14.544-3.024zm-1.296 8.64c.72 0 2.016-3.312 2.016-4.032-.72.144-.72 1.584-1.152 2.016 0-.288 0-.432-.144-.576-.432 0-2.448 5.472-2.448 2.88 0-.576 1.44-2.304 1.728-3.024.72-1.44 1.152-2.88.432-4.608-3.456-7.344-14.4 6.912-16.992 9.648C217.68 26 209.76 42.416 200.543 57.104c.288-.288 1.008-.72 1.44-.576-1.008-.288-2.304 2.88-2.592 3.312 1.728-.288 5.184-4.032 6.336-4.896 2.16-2.016 4.464-3.888 6.48-5.76L225.31 36.8c4.464-4.464 8.496-9.216 12.384-13.824 2.016-2.448 3.744-4.896 5.76-7.2.72-.864 1.872-1.728 2.16-3.024.144-.576.864-1.296.288-1.008-.864.432.432-1.296.576-1.296-.144.144-.144.288-.144.576zm-2.16 1.296c.288.144.288.288.288.288v.288c0-.144 0-.144-.144-.288 0 .144-.144.144-.288.144s.144-.432.144-.432zm-17.424.432s-.432.432-.576.432c.288 0 .576-.144.576-.432zm16.848 1.296c.144-.144.288-.144-.144.144 0-.144 0-.288-.432-.288.144-.144.864-.288.576.144zm-1.008.864c.288 0 .576.144.576-.288-.144 0-.864.144-.576.288zm-18 .432c.432-.432-.288-1.008-.144.144 0-.144.144-.144.144-.144zm16.128 1.872c.288-.432.576-.864 1.008-1.152 0 .432-.144.72-.288 1.008-.144.144-.144.288-.288.288l-.144-.144h-.288zM221.567 18.8c-.432.144-1.008.576-1.008 1.008a1.74 1.74 0 0 0 1.008-1.008zm16.848 1.584c.432 0 .576-.432.72-.72-.288.144-.432.432-.72.72zm-.72.864h-.144c0-.144.144-.432.288-.576 0 .288 0 .432-.144.576zm-.576.864a1.12 1.12 0 0 0 .576-.576c-.288 0-.432.432-.576.576zm-.72.288c.144 0 .576-.144.288-.432-.144.144-.288.288-.288.432zm-21.744 5.328c-.288 0-.72.576-.576.72 0 0 .144-.144.288-.144 0-.144.144-.432.288-.576zm-2.88 3.888c-.144 0-.432.144-.288.288.144 0 .288.144.288-.288zm13.968 2.88s.144-.288.576-.288c-.288.144-.288.288-.432.288 0 .144 0 .144-.144.144v-.144zM223.15 36.8c.288 0 .576.144.576-.144 0 .144-.72 0-.576.144zm-15.84 3.024c-.144 0-.288.144-.432.288l.432-.288zm-3.456 2.88c.288-.432.576-.576.576-1.008-.288.144-.432.432-.576 1.008zm2.016-.72c-.432.144-.576.288-.576.72 0 0 .576-.288.576-.72zm-.867 1.2c.045-.03.096-.048.147-.048-.052 0-.104 0-.156.013l.01.034zm-1.31 2.382c.018-.018.018-.054.018-.126.288-.144.432-.432.288-.72-.288.144-.432.288-.432.576l.144.144c0 .072-.036.108-.072.126h.054zm-1.7.162l.432-.576c-.576 0-.288.144-.432.576zm9.936 1.872c-.288 0-1.44 1.44-1.584 1.728.432-.144 1.872-1.728 1.584-1.728zm-9.792.288c-.72.432-1.152 1.152-1.296 2.016.432-.576.864-1.296 1.296-2.016zm-.288 2.304a2.24 2.24 0 0 0-.864 1.152c.288 0 .864-.864.864-1.152zm-2.73 2.304c.43-.016 1.003-1.443 1.433-2.016-.432.432-1.296 1.296-1.44 1.872 0 0 .14.14.007.144zm0 0zm7.625-.288c1.008-.288 1.584-1.152 2.304-1.728-.576.144-2.016 1.152-2.304 1.728zm-6.48.432c-.288.432-.864 1.008-.72 1.44.288-.144.72-1.008.72-1.44zm-2.016 1.584c.288-.144.576-.72.432-.864l-.432.864zm4.608 1.584c.144-.144 1.296-.72 3.168-2.304-.576.432-2.88.864-3.168 2.304zm-5.472-.432c.144 0 .432-.144.432-.432-.288.144-.288.288-.432.432zm-3.15 6.102c-.018.054-.018.1-.018.1a.51.51 0 0 0 .126-.198l-.108.108zm-.882 1.386c.144-.288.576-1.008.432-1.008-.288.288-.576.576-.576 1.008h.144c-.144.144-.144.288-.144.288.144-.144.144-.144.144-.288zm.576 0c.144 0 .432-.144.72-.432 0-.144-.288-.144-.72.432zm-7.632 12.528c.288-.144.576-.432.432-.864-.144.432-.288.72-.432.864zm.576.72c.144-.144.288-.288.288-.576-.432 0-.288.576-.288.576zm-2.16 1.872c.432-.144.432 0 .432-.576-.288 0-.288.432-.432.576zM195.647 80c.576-.144.72-.432 1.008-.576-.288 0-.72.144-1.008.576zm-11.088.864s.288-.864.288-1.152c0 .288-.432 1.008-.288 1.152zm10.512-.288c-.432.432-.72.576-.864.864.288 0 .576-.288.864-.864zm-12.24 1.296c0-.288.144-.144.144 0 .144-.144.576-.432.576-.864-.432 0-.72.288-.72.864zm10.8-.144c-.288.144-.576.288-.576.72.288 0 .576-.432.576-.72zm-1.008 1.152c.288 0 .432-.144.432-.432-.288 0-.288.144-.432.432zm-9.504.432c.432 0 .72-.144.432-.72-.144.144-.432.432-.432.72zm8.928.144c.432 0 .288-.432.576-.576-.144 0-1.008.576-.576.576zm-1.424 1.007zm0 0c.158-.01.56-.154.56-.43-.282 0-.288.415-.56.43h-.001zm-9.232.29c.288 0 .288-.432.288-.576-.432 0-.144.432-.288.576zm9.216.864c0 .144.432-.288.144-.288-.144 0 0 .288-.144.288zm-9.935.833a.51.51 0 0 0-.001.031c0-.01 0-.02.001-.032zm7.055.895c.288 0 .288-.288.288-.432-.144.144-.432.144-.288.432zm-8.064 1.008c.576.864.288-.864.288-.72-.288.288-.288.432-.288.72zm-.576 1.008s.72-.288.288-.432-.144.288-.288.432zm6.48 1.008c.144 0 .432-.288.288-.432s-.288.432-.288.432zm-7.056.288c.144 0 .432-.288.432-.576-.288.144-.72.576-.432.576zm6.336.144c-.576.144-.576.72-.576.864.288-.144.576-.432.576-.864zm-6.768.72c.288 0 .432 0 .288-.432-.144.144-.288.288-.288.432zm-.576 1.584c.144-.144.144-.72.288-.864-.144.144-.72.864-.288.864zm-.864 1.584c.432-.288.288-.576.288-.72 0 .144-.288.432-.288.72zM175.343 98c.144-.144.144-.432.144-.576-.288.144-.144.288-.144.576zm34.56 4.752c-.288.288-1.152 1.152-1.296 1.44.72-.144 1.296-.864 1.296-1.44zm-1.728 1.728c-.432 0-.288.288-.432.432.144 0 .432-.144.432-.432zm-.72.72c-.144 0-.864.576-.864.72.576 0 .576-.288.864-.72zm1.872 1.728c1.008-.144-.288-1.008-.144-.144l.144.144zm41.616 26.64l-1.44-.432c-.288.144-.72.144-1.152.144-1.008 0-2.304-.576-3.6-1.152-3.744-2.016-7.488-6.192-9.072-10.368-1.584-4.608-.576-9.792.432-13.68s2.304-7.344 3.744-10.944c2.016-3.312 3.6-6.624 5.472-9.792 4.032-6.768 8.352-13.104 13.104-19.008l8.352-10.512 3.456-4.32 1.584-2.448c.144-.144 1.296-1.008.576-1.008 0-.72.576-1.296.72-1.728 0-.144.72-1.728.72-.864l-.144.144c.288-.144.288-.72.432-1.152s.72-1.008 1.008-1.152c.144-.576.576-1.152 1.008-1.584.288-.432.432-.576.576-1.44.432-.72 1.008-2.304 1.872-1.872.576 0 1.296.864 1.728 1.152.72.72.864 1.008 1.584 1.584.432.432.72.288 1.008.864.576.864.576 1.44.432 2.16-.288.864-1.008 2.304-1.872 3.168-1.872 1.872-3.168 4.032-5.04 6.048s-3.744 4.032-5.328 6.48l-5.616 6.768c-3.456 4.032-6.48 8.208-9.504 12.384 0 .144 0 .288-.144.288s-.288.432-.288.576c0 .576-.288 1.008-.864 1.296-.576 1.296-1.44 2.448-2.448 3.744l-2.304 3.744c-.432.432-.288 1.008-.72 1.584l-1.152 1.296c0 .288-.432 1.008-.576 1.296-.576 1.152-1.152 2.304-1.584 3.312l-2.88 6.768c-.72 1.008-1.008 2.016-1.296 3.312l-.72 2.88c-.576 2.16-1.152 4.896-1.152 7.056-.144 2.448 0 5.76 1.728 8.208.432.864 1.44 1.872 2.304 1.872.288 0 .288-.144.432-.288.288.144.72.144.864.288.72 0 1.584 0 2.16-.288 4.896-.144 9.504-2.16 13.824-4.032 2.304-1.008 4.608-2.304 6.912-3.312l3.456-1.872c.576-.288 2.16-1.296 2.736-1.152-.144-.576 1.584-.864 2.16-1.152.576-.432 1.584-.72 2.304-1.008 1.296-1.008 3.312-1.296 4.896-2.016.864-.144 1.296-.864 2.448-.576l2.88.576c.432.144 1.008.144 1.296.288.576.288.288.288.72.72s1.296 1.296 1.296 2.016c.288.864-.576 1.152-1.44 1.296-1.152.144-2.16 0-3.024.576-2.016.72-3.744 1.584-5.616 2.448l-1.296.576c-.432.144-.72 0-1.152.576s-1.44.72-2.16 1.008c-1.584 1.152-3.6 2.016-5.616 2.448-.144-.288-3.6 2.16-4.032 2.16-.864.432-1.584.288-2.016 1.008-.288.288-.864.72-1.44.576l-.144.288c-.288.144-.72-.144-1.008.144-.864.288-1.44.72-2.16.72-1.872.288-3.456 1.584-5.472 2.16-.72.288-1.44.72-2.448.72-.864.144-1.296.72-2.304.432zm21.024-83.376c.144.144.288 0 .288 0-.144 0-.432-.432-.288 0zm-.324.432c.036-.072.108-.144.18-.144.072.144.036.252-.018.306l-.162-.162zm0 0c-.036.072-.036.144.036.144 0 .072.072.072.126.018l-.162-.162zm-4.284 8.784c.288.144.72-.864.72-1.008.144-.288-.576.864-.72 1.008zm-.72.432c-.144.288.432-.144.288-.288l-.288.288zm-4.032 6.048c.288-.144.576-1.008.72-1.296.288-.288.432-.288.72-.576s.432-.576.432-.72c.576-.576 2.016-1.728 2.16-2.448-.432-.432-2.448 2.016-2.592 2.448-.576.576-1.008.864-1.44 1.584 0 .144-.576 1.296 0 1.008zm-5.616 6.48c.432.432 4.752-5.328 5.184-5.76h-.144c-.864-.576-2.304 2.16-2.592 2.448s-2.736 3.024-2.448 3.312zm-20.88 47.376c-.144 0 .432-6.048.576-6.768.144-2.16.72-4.032 1.296-6.192.72-1.584 1.296-3.456 1.872-5.04 1.008-1.728 1.44-3.888 2.448-5.616.72-1.296 1.584-2.736 2.016-4.176.72-1.584 1.872-2.736 2.736-4.176 1.008-1.44 1.728-2.88 2.592-4.032 1.008-1.44 1.584-3.024 2.592-4.176.72-.576 1.008-1.152 1.584-2.016.288-.864 1.152-1.152 1.296-2.016.288-.288.432-.864.576-1.008.288-.144.576-.144.576-.72.144-.72-.864.144-.72.72-.864.288-1.296 1.584-1.872 2.304-.432.864-1.296 1.584-2.016 2.448-.864 1.872-2.016 3.744-3.456 5.616-2.16 2.736-3.744 6.048-5.616 9.216-2.16 3.6-3.456 7.776-4.752 11.664-.72 2.16-1.296 4.608-1.728 6.768.144.864-.576 7.2 0 7.2zm16.992-39.024c.144 0 .72-.864.72-1.008-.144-.576-.864 1.008-.72 1.008zm-.396.828c.036 0 .036-.036-.036-.108 0-.144-.108-.216-.18-.216l.216.324zm-1.548 2.16c.036-.072.072-.18.072-.252 0 .072-.072.108-.126.144l.054.108zm-3.96 6.084c.144 0 .144-.432-.144-.432-.144-.144 0 .288.144.432zm-3.312 5.472s.576 0 .288-.288c-.288-.144-.576.432-.288.288zm.468 2.502c.036-.054.036-.126-.036-.198-.144-.144-.216-.036-.234.1l.27.108zm-1.908.954c.144.288.144-.432.144-.576-.144.144-.432.432-.144.576zm1.44 0c.144 0 .144-.576 0-.432 0 0-.144.576 0 .432zm-2.16 1.728c.288.288.144-.144.144-.288l-.144-.288c.72.144.144-.576 0-.288 0 0-.144.72 0 .864zm-1.314 7.2c.018-.036.018-.072.018-.144-.144-.216-.18-.144-.18-.018l.162.162zm-1.854 1.152c-.144-.144 0-1.152.288-1.152.288.144 0 .864-.288.864v.288zm-1.44 7.2c0 .288.144-.432 0-.432 0 .144-.144.288 0 .432zm34.416 4.464c.288.288 1.728-.864 2.016-1.008l1.584-.72c.432-.288.864-.72 1.296-.864.576-.432 1.872-1.152 2.88-.72-.288-.576.864-.72 1.008-1.152.144-.576-1.728.288-2.016.432-1.152.576-2.016 1.296-3.312 1.584l-1.296.864c-.144 0-.576 0-.72.144 0 0-.144.144-.144.288-.288.144-1.728.72-1.296 1.152zm14.112-3.6c.432-.144 1.296 0 1.584-.72-.288.144-1.872.576-1.584.72zm-4.752 2.016c0 .288 1.152-.288 1.296-.432.288-.288 1.584 0 1.584-.72-.144-.288-3.168.144-2.88 1.152zm-.437-.137zm.437.857c.144-.144.72-.288.432-.288-.144 0-.288.144-.432.288zm-3.168 1.296l.72-.144c.288-.288.288-.432.432-.72.288-.144.144.144.288.144.432 0 .864-.288.864-.576-.144-.288-2.88.432-2.304 1.296zm2.736-.576s.576.144.288-.144c-.144-.144-.144.144-.288.144zm-17.136 4.176c.72.144 1.44-.72 1.872-.864.288 0 .432-.144.72-.432l.864-.288c1.008-.288 1.44-.864 2.16-1.296s1.872-.432 2.16-1.152c-.72-.288-1.584.432-2.016.72-.72.576-1.584.576-2.16 1.152-.576.288-1.296.72-1.872.864-.144.144-2.304 1.008-1.728 1.296zm3.744 1.584c.144.432 1.584-.144 1.872-.288.144-.432 2.016-2.304 2.304-1.728-.144 0-.288.288-.144.144 1.008.144 1.872-.576 2.448-1.152.288 0 2.448-1.44 2.304-1.584l-1.872.576c-.576 0-.864.432-1.152.72-.576 0-1.008 0-1.296.288l-1.872.864c0 .144-.144.288-.144.576-.144-.144-.288 0-.432-.144-.144 0-2.304.72-2.016 1.008 0 0 .144-.144.432 0 0 .144-.576.432-.432.72zm-3.888 2.016c.144-.288.576-.144.72-.144.72.144.288-.576.72-.864.144 0 .288 0 .288.288.432.144.576 0 .864-.144s1.872-1.152.576-1.584c-.144 0-.72.72-.864.72-.288.144-.72.288-1.152.576-.288.144-1.152.72-1.152 1.152zm31.968-59.76c.144-.432-.72.144-.72-.72v-.288c0-1.44 0-1.584 1.008-3.024.288-.432.288-.432.864-.432.144 0 .288 0 .432.144.72.72 1.296.864 2.016 1.296l.576.288c.144 0 .288 0 .432.288.432.288.72.576 1.296.432.432-.144.432 0 0 .288 0 1.008-1.008 1.872-1.008 2.592-.144.144-1.296.72-1.296.72 0 .288-.576.288-.576.864-1.152 0-1.584-.576-1.872-1.152-.432.144-.288-.864-.576-.72-.576.432-.576 0-.576-.576zm17.28 21.888l.288 2.16c0 .144-.144.432-.576.576-.144 0-.288-.144-.432-.432 0 0 0-.144.288 0l.576-.576-.72.288c-.432.288-1.152.864-1.296 1.296-.432.576-.72.864-1.296 1.152-.576.864-.864 1.44-1.584 1.728-.576.288-.864.864-1.296 1.152-.288.576-.576 1.008-1.008 1.44-.72.288-1.44 1.152-1.872 1.584l.144.432c.432-.432.576-.432.72-.72l.432-.576c.288-.432.72-.288 1.008 0-.288.432-.576 1.008-1.44 1.296-.144 0-.144.144-.144.288l-.288.432c-.432-.432-.72.288-.72.432-.576.72-1.152 1.008-1.296 1.584-.432.144-.864.288-1.152.576-.144.576-.72.864-1.008 1.152-.864.144-1.584.864-2.16 1.584-.864.576-1.728 1.152-2.88 1.296l-1.296.432c-.576.288-1.296.288-1.872.576-.432.144-1.152 0-1.584-.288-.576-.144-1.008-.576-1.584-.288l-.864-.432c-1.008-.72-2.016-1.44-2.88-2.304-.432-.144-.576-.864-1.008-1.44-.144-.432-.432-.72-.864-.864.144-.288-.144-.288 0-.432-.288-1.008-.144-2.16 0-3.168l.144-.144c-.144.144 0 .144 0 .144 0 .432.432 0 .576.432h.144c0-.288.288-.72.432-.864.144-1.008.72-2.448.864-3.456.288-.864.864-1.584.864-2.448l.72-.864c.144-.576.432-1.008.576-1.44-.144-.72.288-1.44.432-1.872.144-.576.432-1.152.288-1.584.576-.432.864-1.296 1.008-1.44.432-.864.576-1.44.72-2.16 0-.432.432-.864.432-1.296-.432.432-.576 1.152-.72 1.728l-.288.144-.144-.288s0-.144-.144-.144l-.144.144c-.144 0-.288.432-.432.576-.288 0-.144-.288-.144-.576.432-.288.576-1.152 1.008-1.728v-.72c0-.432.576-.864 1.296-.864 0-.288 0-.432-.288-.432-.288-.144-.288-.144-.144-.288.288 0 .288-.288.288-.288.144-.144.144-.288.144-.432v-.288c0-.144 0-.144.144-.288.432-.432.72-.576 1.008-1.008-.144-.432 0-.432.144-.432s.432 0 .288-.144c.144-.144 0-.288-.288-.288s-.144-.288-.144-.432c.576-.864 1.008-1.728 1.008-1.584.288.144.288-.144 1.008 0 0 .144 1.728.72 1.728.576 0 .144 1.584 1.008 1.584.864.144.144 0 .144 0 .288l-.288 1.44c-.576 1.728-1.152 4.752-1.44 5.04v.144c0 .432 0 1.008-.432 1.152-.144 0-.288.288-.288.432-.432 1.584-.864 3.168-1.728 4.752-.288.576-.432 1.296-1.008 1.728v.72c-.576 1.296-.864 2.736-1.296 4.176l-.864 2.016v.144c-.72 1.152-.576 2.448-1.008 3.6 0 .576-.288 1.008-.144 1.584.144.288.144.72.576.288.864-.144 1.872-.72 2.736-1.296.432-.144.864-.432 1.296-.432.288 0 .144-.144.144-.144.288-.288.432-.72.72-.72.432 0 .576.288.72.576 0 .576.288.576.576.288.144-.576.864-.72 1.296-1.008l2.736-2.592 1.584-1.296c.288-.288.432-.288.576.144.288.288.288.576 0 .72l-1.296 1.44c-.144.144-.432.144-.72.288s-.864.72-.432.72c.144 0-.288.288-.144.288.144.144.432.144.432-.144.288-.576.72-.288 1.008-.576.72-.144.864-.432 1.296-.72.72-.288 1.008-1.008 1.44-1.584.144-.144.432-.576.72-.432.432.144.432-.144.72-.576 0 0 .288-.144.288-.288.288-.288.72-1.152 1.584-1.728.144.144.432.144.432-.144.288-.864 1.008-1.152 1.728-1.296.144.144.432 0 .576 0 0 .432-.432.432-.576.72-.144.144-.144.288 0 .288 0 .288.144 0 .144 0 .72-.72 1.296-1.584 2.304-2.304.288-.288.144-.144 0-.288 0 0-.144 0-.288.144-.432.288-.72.432-1.008.864-.144.144-.288.576-.576.576 0-.432 0-.432-.432-.144l.576-.864c.144 0 0 .144.144.144l.72-.432c.144-.432.432-.576.72-.72.144 0 .144-.144.144-.144.144-.576.432-.864.576-1.152.144 0 .288-.144.432-.144.144-.288 0-.576.288-.432s0 .576 0 .72c.288-.144.432-.288.432-.576zM290.4 78.992c.144-.432 0 .144 0 .432h-.144l.144-.432zm1.296.288c-.432.288-.432.432-.288.576 0 0-.144.288 0 .288.288 0 .576-.144.432-.432 0 0 0-.288-.144-.432zm-1.44.288v-.144.144zm0 0v.288-.288zm0 .288V80l-.144.144.144-.288zm-2.304 5.904c.144-.144.432-.288.144-.432.288 0 .432-.288.576-.144.288-.144.144.144 0 .144 0 .144-.144.288-.144.576-.288.144-.432-.144-.576-.144zm.144.72c.144.576-.432 1.008-.288 1.584l-.72 1.728s.144.144 0 .144a.87.87 0 0 1-.576.72c0-.432-.144-.576-.288-.72v-.288c.576-1.152.72-2.016 1.152-2.88 0-.144.144-.288.144-.288 0-.144.288-.288.432-.144.432 0 .144.144.144.144zm21.888 2.88c-.432.432-.576 1.008-.864 1.152.144-.576.288-1.008.864-1.152zm2.448.432c-.144.144-.288 0 0-.144v.144zm0 0v.432c.144-.144.144-.288.144-.432h-.144zm-3.312.72c-.72.144-1.152.864-1.44 1.152-.432.432-.432.288-.288.72v-.144l1.728-1.728zm-23.904 1.872c.144-.144-.288-.144-.144-.288s.432-.432.576-.432h.144l-.144.576s-.144.144-.432.144zm22.176 0h-.144l-.576.288.288.144c.144-.144.432-.288.432-.432zm1.728.288l-.144.144v.144l.288-.288h-.144zm2.448.432c-.144-.144-.288 0-.432.288l-.144.576c.144-.144.288-.144.288-.288.144-.288.432-.288.288-.432.288-.288.288-.288 0-.144zm-5.328.432c.144 0 .144-.288.144-.288l.144-.144s-.144-.144-.288.144l-.144.144c-.144 0-.288.144-.144.288 0 0 .288 0 .288-.144zm2.016.432s0-.144.144-.144l-.144.144zm-2.448 5.747c-.006-.42-.286-.42-.144-.563 0-.288.144-.144.576-.144v-.144c-.144-.72.432-.864.864-1.296.432-.144.72-.144 1.008-.288v-.144c.288-1.008.432-1.296 1.152-1.584.432-.144.576-.288.576-.576s0-.432.144-.432c.144-.144.288-.144.432 0v.288c-.288.432-.576.864-.864 1.008a16.57 16.57 0 0 1-3.456 3.6s-.262 0-.286.25l-.002.025zm-.864-4.595l-.144-.288c0-.144-.288 0-.288 0 0 .432 0 .288-.288.576-.144.144-.144.144-.144.288.144 0 .144 0 .288-.144.288-.288.432-.144.576-.432zm1.872 1.584l-.288.144c-.144-.144-.144-.144.144-.288v-.288c-.432-.576.144-.72.288-.72v-.144c.144 0 .432-.432.576 0 0 0 .144 0 .144-.144.144.144.144.144.144.288-.288.144-.864.72-1.008 1.152zm-4.608.864c-.144.144-.144.144-.288.144-.144-.144.144-.288.144-.288l.288-.432c.288-.144.432-.144 0-.144-.144-.144.144-.576.288-.72.288-.288.144.288.288.288l.144.144c0 .432-.432.72-.864 1.008zm1.296-1.296c0-.144-.144 0-.144 0-.288.144-.288.144-.288.288.288 0 .288 0 .432-.144 0 0 .144 0 0-.144zm-19.008 0v.144c-.288.144-.432.288-.72.288 0-.288.576-.288.72-.432zm-1.152 2.448s0 .144-.144.144l.144-.72c.144-.288 0-.576.144-.432.288.144.144.144 0 .432l-.144.576zm12.672 2.304c-.144-.144-.144-.144-.144-.288s.288-.144.576-.144c0 .288-.144.72-.432.432zm-12.564.522c-.036-.054-.108-.1-.108-.1s.288-.144.288-.288c0 0-.144-.288-.144 0-.288-.144-.288-.144 0 .144l-.144.144c-.072 0-.108.036-.108.1h.216zm10.98.054c0-.144.144-.144.144-.144.288 0 .432 0 .432.432l-.288.144c-.288-.144-.144-.432-.288-.432zm9.936 2.304c-.144 0-.432-.288-.576-.288h-.432c-.288 0-.288 0-.576-.432 0-.144 0-.432-.144-.576l-.432-.288c-.144-.144.144-.144 0-.144-.72-1.152-.72-3.168-.288-4.32l.288-.72c.144-.144.288-.144.288-.288.144-.288 0-.864.144-1.152.288-1.008 2.592-4.32 2.88-5.472.144-.432.432-.432.72-1.008l.576-1.44c2.016-4.032 4.464-7.92 5.904-12.24.144-.576.288-1.152.576-1.44l.432-.576.288-.576c.288-.144.432-.144.72.144.144 0 .144.288.144.288.144.144.288-.144.432 0l.432.864c.288.288.72.288.864.576.144.144 0 .576 0 .864 0 .432.432.72.288 1.152 0 .576-.288 1.152-.288 1.584l-.144 1.008.144.144c0 .288-.144 0-.432.288-.288.144-.144.144-.288.576l-.288 1.296c0 .432 0 .432.144.72l.144.288c0 .288-.288 0-.288.288s.72-.288.72-.288l.288-.432.432-.288.288-.432c.288-.144.576-.144.72-.288.144 0 .144-.576.288-.576.144-.144.144.144.432 0l.432-.288c0-.288-.144-.432 0-.72l.288-.288c.144-.144.288 0 .432 0 .144-.144.576-.432.72-.72.288-.432.144-.864.576-1.008-.144.144.288.144.432.144s.432-.288.576-.432l.432-.432c.144-.288 0-.576.288-.576 0 .144.288-.144.288-.144h-.288l.72-.576.864-.432c.144-.144.432-.144.576-.144.144-.144.144-.144.144-.288.576-.432 1.44-1.152 2.16-1.44.288 0 .144.288.288.144l.432-.288c.288-.288.576-.288.864-.432.72-.288 1.584-1.296 2.304-.72.288.288.288.432.576.576h.432l.432.432c.288.144.72.144 1.008.432.144.288.144.576.432.864.144.144.576.288.72.432s.432.72.432.864c.432.864-.144 1.872-.432 2.592l-1.584 4.032c-.144.432-.288 1.008-.432 1.296-.288.288-.288.288-.432.576v.576l-.576.864c-.288.576-.576 1.008-.72 1.584 0 .288 0 .72-.144 1.008-.144.144-.288.144-.288.288-.144.144-.144.432-.144.72l-.432 1.152c-.576 1.584-.864 3.312-.576 5.04 0 .576 0 1.296.288 1.728l.432.576c.72.432 2.448-.432 3.168-.72.864-.288 1.728-.72 2.448-1.152l.864-.576c.144-.144.72-.144.864-.288 0 0 0-.288.144-.288.144-.144.288 0 .288-.144l.288-.288.576-.288.864-.72c.576-.288.72-.576 1.152-1.008l.864-.864c.144 0 .72-.576.864-.576.576.144-1.008 1.44-1.296 1.728s-.576.288-.864.432c-.144.144-.432.576-.72.72l-.72.576c-.288.288-.72.288-1.008.432l-.288.432-.432.144-.72.288c.144 0-.144.288-.288.288l-.432.288c-.144.288-.144.432-.432.576-.144.144-.432.144-.576.288.432 0 .72-.144 1.008-.432l.864-.432c.432-.144.288 0 .72-.288l1.44-.72.72-.288.576-.288c.432-.288.72-.864 1.152-.72-.144.288-.72.72 0 .576.144 0 .864-.576 1.008-.864s-.144-.576.144-.864c.144-.144.432-.288.72-.432l.72-.72.864-.576s.144-.288.288-.144c.288.144-.144.288-.144.288l-.288.144a.31.31 0 0 0-.288.288l-.432.432c-.432.432-.72.72-.576 1.296-.432.432-.72.72-1.296 1.152 0 0-.576.144-.432.576s1.872-1.296 2.16-1.44c.288-.288.864-.432 1.152-.864.432-.432 1.008-.576 1.44-1.152.144-.288.288-.72.72-1.008l.864-.432.432-.576-.72.576c-.288.288-.576.288-.864.576l-.72.72-.288-.144c-.144-.288.288-.288.576-.432l.864-1.008c.432-.576 1.152-.864 1.584-1.44l.576-.72c.144-.288.432-.288.72-.432.432-.288.72-.576 1.152-1.008l.432-.432c.288-.288.288-.432.432-.72.288-.144.576-.144.72-.288s0-.432.144-.576c0-.144.288.288.288.144l.288-.432c.144-.288.288-.432.432-.576.432-.432.72-.864 1.296-1.152.432-.144.288-.288.576-.576.144-.144.288 0 .432-.144l.144-.144c.432-.288.432-.72 1.008-.72-.432 0-.864 1.728-1.152 2.016-.432.576-1.008.864-1.44 1.296l-.576.72c-.432.432-.432.864-.864 1.296-.288.288-.576.288-.864.576 0 0-.576.432-.288.288l-.288.432-.576.576-.72.576-.432.576c-.288.432-1.152.576-1.584 1.296-.144.432-.144.72-.432 1.152-.144.288-.576.432-.864.72s-.72.576-.864.864c-.288.432-.432.864-.72 1.152l-.576.864c0 .144.144.288 0 .432s-.144 0-.288.144c-.432.432-1.296 1.008-1.584 1.584-.144.288-.144.576-.288.72-.432.576-.144-.144-.432-.144s-.72.432-.72.72h.144l-1.728 1.584-.864.864c-.432.144-.864.288-1.152.576-.432.288-.864.576-1.296.72l-.72.288-.576.288c-.864.288-1.728.288-2.736.288-.72 0-1.152-.144-1.728-.432-.432-.288-1.152-.144-1.584-.576l-1.728-1.44c-.576-.432-.72-1.008-1.152-1.728-.864-1.152-1.296-2.592-1.584-4.032-.144-.432 0-.864-.144-1.152 0-.288-.288-.576-.288-.864-.144-.144 0-.288-.144-.576 0-1.44-.288-2.736 0-4.176 0-1.152.576-2.16.72-3.168s.576-2.016 1.152-2.736c.432-.72.576-1.584.864-2.304.144-.432 1.008-1.728-.144-1.152-.576.288-.864 1.008-1.44 1.152v-.144c-.72 0-1.152.72-1.584 1.296-.288.144-.72.288-.864.432s-.144.432-.288.576l-.432.288-.72.864a2.48 2.48 0 0 0-.864.864c-.144.432-.432.72-.864 1.152-.144.144-.576.576-.576.72-.144.144 0 .288 0 .432l-.432.864-.432.432c-.144 0-.288 0-.432.144s0 .288-.144.432-.288.144-.432.144c-.288.288-.576.576-.72.864-.288.432-.288.864-.432 1.152-.144.144-.432 0-.576.288 0 .144.144.288 0 .432 0 .144-.144.288-.288.432-.72.864-1.584 1.44-2.16 2.304-.432.576-1.008.72-1.296 1.152-1.728 2.88-1.872 3.312-2.16 3.6l-1.008 1.152c-.288.288-.576.72-1.008 1.008-.288.288-.432.288-.72.72l-.864.72c-.432.576-.288 1.44-1.008 1.728-.288.144-.72.288-1.152 0zm16.272-23.472l.144-.576c.144 0 .432 0 .576-.144 0 0 .864-.72.864-.576 0-.144-.288 0 0-.288l.144-.144c.144-.432.144-.432.576-.72.288-.144.432 0 .72-.288l1.728-1.296c.288-.144.576-.288.864-.576.144-.288 0-.432.432-.432v.144l.432-.432c.144 0 0-.144.144-.288-.144.144.432 0 .432 0l.432-.288c.432-.144.432 0 .432-.576 0 .432-.432.432-.72.432.144-.432.72-.576 1.152-.576l-.288.144s1.152-.144 1.152-.288c.144-.144 0-.288-.144-.288.288-.144.432-.288.576-.432-.576 0-1.008.432-1.584.72-.72.288-1.44.432-2.016.72-.432.288-1.296.864-1.728 1.296-.144.288-.288.576-.576.72-.576.288-1.008.144-1.44.576-.144.288-.288.72-.432.864l-.864.72c-.288.288-.576.576-.72.864l-.144.432s-.72.432-.432.432l.288.144zm-.576-1.584c.288 0 .432-.144.432-.288s-.432.288-.432.288zm6.192.576c.288 0 .432-.288.72-.576-.288.144-.576.144-.72.576zm28.224 1.44c0-.288.576-.432.864-.432l-.864.432zm1.152-.144c.288 0 .288-.144.432-.288h-.288c-.144.144-.432.288-.144.288zM319.2 81.728c.288-.144 1.44-.864.72-1.008-.288 0-.576.144-.72.432-.144.144 0 .576 0 .576zm32.688 1.152c0 .144.864-.144.864-.432-.288 0-.432.288-.72.288l-.144.144zm-4.608 5.76h.144c.72 0 .864-.576 1.296-1.008.144 0 .432 0 .576-.144s0-.576.144-.576c.288-.288.288 0 .432 0 .144-.144.144-.288.144-.288.288-.144.288-.72.72-.72-.576-.288-1.44.864-1.872 1.296-.144.144-1.44 1.44-1.584 1.44zm-.576-1.152c.144-.144.432-1.152.72-.72.288.288-.432.72-.72.72zm-.432 2.304c-.288 0-.144-.432.144-.432s.144.432-.144.432zm66.672-68.832c.576.576.864 1.152.432 2.016l-1.296 2.592c-.288.288-.432.72-.72 1.008-.288.72-.432 1.44-.864 2.016-.288.288-.864 1.728-1.008 2.016-.288.72-.864 1.296-1.152 1.872-.576.576-.576 1.44-1.008 2.16-.288.576-1.152 2.736-1.728 3.312-.288.288-.576.432-.72.72 0 .288-.144.432-.144.576-.288.576-.576 1.152-.72 1.728-.432.72-.576 1.44-1.008 2.16-.432.576-1.152 2.448-1.44 2.88-.288.288-.576.576-.72.864l-1.008 1.872c-.576 1.44-1.296 2.88-2.304 4.32-.72 1.008-3.024 5.76-3.6 6.192s-.576.864-.864 1.584l-.576.864-.432 1.008c-.432.72-.864 1.296-1.44 2.016-.288.576-.432 1.296-.864 1.728-1.152 1.008-1.44 2.448-2.304 3.744-.432.72-1.152 1.296-1.44 2.016s-.72 1.296-1.152 1.872-.72 1.296-1.296 1.872c-.432.288-.432.576-.72 1.008-.576.864-1.296 1.728-2.016 2.592-.432.576-.864 1.152-1.296 1.584-.72.864-1.008 1.728-1.728 2.448-.432.576-.864 1.008-1.296 1.44-.288.288-.288.576-.576.864s-.576.432-1.008.864c-.144.288-.288.432-.288.72-.288.288-.432.432-.432.864-.288 2.016-.432 4.464-.288 6.624 0 .72.288 1.44.288 2.304 0 .72 0 1.296.144 2.016.144 1.584.432 3.168 1.008 4.752.576 2.304 1.584 4.608 3.312 6.336 1.152 1.152 1.872 3.168 3.6 3.6.72.288 2.304 1.008 1.728 1.872-.288.288-1.152.864-1.584.864-.576 0-1.008-.432-1.44-.576-1.152 0-2.592-1.296-3.312-2.016-2.016-1.728-4.032-3.456-5.328-5.616-.432-1.008-.864-2.16-1.152-3.168-.432-.864-.72-1.584-1.008-2.304-.72-1.872-1.008-3.888-1.44-5.904l-.432-1.728c-.144-.72-.576-.576-1.152-.144-.432.576-.864 1.008-1.296 1.44s-1.152.864-1.584 1.44c-.864 1.584-2.448 2.592-3.888 3.744l-1.152.864c-.72.864-1.584 1.296-2.448 2.016-.432.288-1.008.576-1.584.864s-.864.72-1.296 1.008c-1.152.72-2.448.864-3.6.72-1.296-.144-2.448-.72-3.6-1.44-.576-.288-1.008-.72-1.584-1.152-.288-.432-.432-.864-.72-1.152-.432-.432-.72-.576-.864-1.008l-.432-1.584c-.432-1.44-.576-2.88-.288-4.32.864-4.032 2.592-7.92 4.896-11.232.72-1.152 1.44-2.448 2.304-3.6l2.736-3.024c.432-.432.864-1.152 1.296-1.584.432-.576 1.008-1.008 1.44-1.44l2.88-2.592c1.008-1.008 2.16-1.728 3.024-2.736.432-.432.864-.864 1.44-1.152 1.008-.72 2.016-1.44 3.024-2.016 2.016-1.152 4.464-1.44 6.624-.864.576.144 1.008.432 1.44.144l.72-.864c.144-.144.288 0 .576-.288.144-.144.144-.288.288-.576.432-.864 1.008-1.728 1.44-2.736.432-.576.72-1.152 1.008-1.728 0-.144.144-.288.144-.288.144-.144 0-.144.144-.288.288-.432.72-.576.72-1.152 0-1.152 1.152-2.16 1.296-2.304.288-.432.576-1.152.72-1.728.144-.432.288-.576.72-1.008.144-.144.288-.432.432-.72.432-.576.72-1.296 1.296-1.872.432-.432 1.152-1.728 1.44-2.16.288-.72 2.16-2.304 2.448-2.88l.864-1.152 1.296-1.584.288-.432c.144-.288.288-.576.576-.72 0-.144 0-.288.144-.432.144 0 .144-.144.144-.288s.144-.576.288-.576h.432c.144 0 .288 0 .432-.144.288-.288.144-.576-.288-.576l.432-.288c.144-.144.144 0 .288-.144v-.432c0-.432.864-1.296.864-1.296h.144c0-.432.144-.864.576-1.152.144-.144 1.728-1.008 1.728-1.44.144-.72 0-.72.432-1.296.144-.288.432-.432.576-.72l1.44-1.44c.288-.288.432-.576.72-.72.288-.432.288-.576.576-1.152.288-.72 1.152-1.152 1.584-1.728l.864-.864c1.008-1.008 1.872-2.16 2.88-3.312.864-.864 1.728-1.584 2.448-2.592.432-.576.864-1.584 1.728-1.584h.72c.288-.144.864-.288 1.728 0 .864-.144 1.296.288 1.728 1.008zm-5.904 10.656c.144-.576.576-1.152.72-1.728-.72 1.008-2.016 1.584-2.88 2.592-.288.288-.288.576-.576.864-.432.432-.72.864-1.008 1.296s-.72.864-1.152 1.152l-.864.864c-.288.288-.432.72-.864 1.152-.288.288-.576.72-.864 1.152-.576.864-1.152 1.44-1.728 2.16-.576.864-1.44 1.44-1.872 2.304-.288.432-.432.72-.864 1.008-.432.432-.72.864-1.008 1.296-.576.72-1.008 1.584-1.584 2.304s-1.296 1.44-1.728 2.16c-.72.864-2.736 3.888-3.168 4.464s-.72 1.296-1.152 1.872c-.288.864-.864 1.44-1.44 2.16l-2.448 4.32c-1.008 1.728-1.728 3.6-2.592 5.328-.288.576-.432.864-.576 1.44l-.432 1.008c-.432.864-.72 1.728-1.008 2.592-.576 1.44-1.44 2.88-2.016 4.32-.288.72-.432 1.584-.432 2.304v.72c0 .144-.288.432-.144.576.144.432.144.576.144.72-.288.144-.72.864-.144 1.008.144 0 .288-.288.432-.432.432-.432.576-.144.144.288s-.72 1.152-1.152 1.728c-.144.288-.144.576-.144 1.008 0 0 .576-.432.432-.432.432-.144.576-.576.864-.864.144-.144.432-.432.72-.576.144-.144.432-.288.576-.576s0-.288.144-.432c.288-.576 1.008-.72 1.296-1.008s0-.576.144-.864.288-.576.576-.864c.144-.288.432-.576.72-.864l1.152-1.296c.288-.432.432-.864.72-1.152.72-.864 1.44-1.584 2.016-2.592.72-.864 1.296-1.872 2.016-2.88.432-.72 1.008-1.296 1.44-2.16.288-.576.432-1.152.72-1.872.288-.432.72-.864 1.008-1.44.576-1.152 1.152-2.304 1.872-3.312.576-1.008 1.152-1.872 1.728-2.736.864-1.296 1.44-2.736 2.304-4.032.288-.288.576-.576.72-1.008.432-.864.72-1.584 1.152-2.304l.864-1.872c.432-.576 1.008-1.296 1.008-1.872-.432.144-.576.432-.72.864v.432c0 .144-.144.144-.144.288-.432.432-.864 1.584-1.584 1.584 0-.576.576-1.296.864-1.872l.72-1.584c.288-.432 1.008-1.584 1.008-.576.72-.576.864-1.008 1.296-1.872.288-.576.576-1.152.864-1.584.432-.576.864-1.152 1.152-1.728.576-1.728 1.728-3.6 2.736-5.184-.432.144-.72.576-1.152.864.144-.576.288-1.152.576-1.728l.432-1.152c.144-.576.432-.432.864-.864v.72c.144 0 .288-.144.432-.432s.144-.576.432-.72c.144-.288.432-.432.576-.72 0 0-.144-.144 0-.144 0-.288-.288-.432-.432-.288.144-.432.144-.864.288-1.296zm-4.176 8.352c-.288 0-.864 1.296-.72 1.44.288 0 1.008-1.296.72-1.44zm-11.52 2.592c-.432 0-.576.432-.144.432.288 0 .72 0 1.008-.144-.432 0-.576-.288-.864-.288zm-1.872 2.016c-.288.288-.432.432-.432.864.144-.144 2.016-1.44 1.008-1.44-.144 0-.576.432-.576.576zm-2.448 3.168c-.144.144-1.008.864-.576 1.008.144.144.576-.144.72-.288 0 .144.144.144.144.144.144-.144.144-.432.144-.576.144-.144.288-.432.288-.576 0-.72-.432 0-.72.288zm.144 1.728c0 .288-1.008-.288-1.152-.288 0 .144 0 1.008.288.72s.864 0 .864-.432zm-3.888 3.744c-.144.144-.864 1.152-.72 1.296.288.288 1.152-1.584 1.152-1.584l.432-.432.288-.432c.144-.288.288-.576.72-.576 0 .144 0 .288-.144.432-.144.288-.432.288-.144.72.576-.288.864-.864 1.152-1.296.144-.144.432-.288.432-.576 0-.576-.288 0-.432 0-.144.144-.432.144-.576.288-.432 0-.432.144-.72.288-.576.576-1.008 1.152-1.44 1.872zm10.944 2.592c.432-.72.864-1.296 1.152-2.016.144.144-.144.864-.288 1.008-.144.432-.288 1.008-.864 1.008zM384 54.368c-.576 0-.576.288-.576.72.288-.288.288-.576.576-.72zm-6.624 8.784c0 .288-.576.432-.576.864.576 0 .432-.72.72-1.008.144-.144.432 0 .72 0-.288.288-.432.72-.72 1.152-.144.288-.576 1.44-.144 1.728.432 0 .144-.432.144-.72 0-.432.144-.576.432-.864l.864-1.296c.144-.432.432-.576.576-.864.288-.432.144-.864-.288-.432l-.864 1.296c0-1.152.432-1.728 1.008-2.592.432-.432.144-.864.72-1.44.288-.288.432-.288 1.008-.288.576-.144.72-.576 1.008-1.008.288-.576.576-1.008.864-1.44-.288 0-1.008.72-1.152 0l.432-.576s.288-.576-.144-.576c-.288.432-1.44 1.872-1.44 2.16.144.432.864.144.432.864-.432.432-.576.144-1.008.144-.576.144-.432 1.008-.72 1.44l-1.008 1.296-.576.864c-.144.288-.144.576-.288.72 0 .144-.144.288-.144.432s.144.144.144.144zm15.264-4.32c.576-1.008.72-2.304 1.728-3.024 0 .864-.576 1.296-1.008 1.872-.144.432-.432.72-.72 1.152zm-3.168 4.464c0-.144.72-.864.864-.576 0 .288-.432.576-.576.72-.144.288-.288 1.008-.72 1.008-.144-.432.288-1.008.432-1.152zm-.432-.432c.144-.144 0-.288.288-.144-.144.144-.288.576-.432.72h-.144c0-.144.288-.576.288-.576zm-12.816 2.16c-.288.144-.288.72 0 .72.576 0 .288-.864 0-.72zm11.232 2.304c.288-.576.72-1.008.576-1.584-.432.288-.432.864-.576 1.584zm-17.136 8.64c.288-1.152 1.008-2.304 1.44-3.312.288-.72.432-1.296.72-1.872.144-.72.576-1.44.72-2.304.144-1.296-2.448-.144-2.88.144-.288.144-.432.288-.432.576-.144.288.144.288-.144.576s-.864.576-1.296.72c-.576.288-1.008.72-1.44 1.152-.576.432-1.152.864-1.584 1.296-.864.864-1.728 1.872-2.736 2.592-.72.432-1.44.864-2.016 1.584-1.296 1.296-2.592 2.592-3.744 4.032-1.008 1.152-1.728 2.448-2.592 3.6-.72 1.008-1.584 2.16-2.304 3.312-1.584 2.448-2.736 5.184-3.888 7.92-.432 1.44-1.008 2.88-1.008 4.32 0 .72 0 3.456 1.152 3.168 0 0 .576-.288.144 0 .576-.288 1.152-.288 1.584-.432.72-.144 1.152-.432 1.728-.72l3.024-1.872c1.008-.576 2.016-1.008 3.024-1.728.576-.288 1.008-.72 1.44-1.008s.864-.576 1.152-1.008c0 1.008 1.296 0 1.584-.288.432-.432.864-.576 1.152-1.008.72-1.008 2.304-1.44 2.592-2.736 0 .432 1.008-1.152 1.44-1.872.432-.576 1.728-1.872.288-1.872 0-.288.432-.576.576-.864.432-.864.576-2.448.576-2.592 0-1.152.432-2.304.432-3.456 0-.576.288-1.008.288-1.584.144-.432.144-.864.144-1.152a1.1 1.1 0 0 1 .288-.72c.432-.864.432-1.584.576-2.592zm15.552-6.912c.144 0 .72-.864.864-1.008 0 .432-.576.72-.576 1.152-.144 0-.288 0-.288-.144zm-.288.72c-.144 0-.72.576-.576.864.144-.144 1.152-.72.576-.864zm-2.016 2.88c.576 0 1.584-2.16 1.44-2.016s-1.728 1.584-1.44 2.016zm-11.376 1.008c.864-.432.864-1.296 1.152-2.016-.576.72-1.008 1.296-1.152 2.016zm10.656 0c-.288.432-.72.72-.864 1.296.288-.432.864-.72.864-1.296zm-2.304 2.88c.144-.144.72-.864.864-.864.144.144-1.152 1.872-1.296 1.872-.288.72-.72 1.152-1.152 1.728-.144.288-.432 1.008-.864 1.008s.144-.864.288-1.152l.864-.72c.432-.576.72-1.296 1.296-1.872zm-9.504.864c.144-.144.864-1.152 0-.864-.144 0-.288.432-.288.432-.288.432-.288.864-.288 1.296-.144.576-.144 1.152-.288 1.584-.144.288-.432.72-.144.864h.144l.144-.72c0-.432.288-.72.288-1.152.144-.432.144-.864.432-1.44zm3.6 8.208l.432-.432s-.432.288-.432.432zm-11.808 8.352c.432-.432 2.592-2.592 2.736-2.448s-1.152 1.152-1.296 1.296c-.432.288-.864 1.152-1.44 1.152zm63.36-11.808c1.152.576.72 1.44.288 1.872a21.09 21.09 0 0 1-4.32 1.584c-1.152.144-2.304.576-3.456 1.008-1.008.288-2.304.576-3.312 1.152-1.152.432-2.16.72-3.168 1.008s-2.16 1.008-3.168 1.296c-1.296.576-2.16.864-3.024 1.44l-.864.72c-.432 0-.864.432-1.296.576-.432 0-.72 0-1.008.288-.144 0-.144.432-.288.576h-.288c-.432 0-.576-.144-1.008.144l-.432.432c-.288.144-.576.576-.864.864.144-.144.432-.144.288.288-.432.72.432 1.872.72 2.592 1.872 4.464 3.312 9.216 1.728 14.112-.864 2.304-1.728 4.464-3.168 6.48-1.296 1.44-2.736 2.592-4.176 4.032-1.728 1.584-3.6 3.024-5.328 4.464-2.016 1.296-4.032 2.16-5.904 3.456-2.016 1.008-4.032 2.304-6.048 3.312-2.16 1.008-4.32 2.016-6.48 3.168-3.888 2.016-8.496 4.176-13.104 5.04-2.016.288-4.608 0-5.904-1.728-.72-1.008-1.152-2.304-.72-3.312.144-.432.72-2.304 1.296-2.448.144.432-.144 2.016.288 2.16.288-.144 1.008-2.016 1.008-2.448.576-.576 1.152-1.872 1.728-2.448l1.008-.432c.288-.288.432-.72.576-.72.144-.288.576-.576.864-.288s-.432.288-.576.576c-.144.144-1.152 1.44-.576 1.44.432.144.432-.72.432-.864l1.008-.72c.576-.576.864-1.152.432-1.728 1.152-.144 1.872-1.008 2.16-1.872.288-.576.288-.72.576-.864a.63.63 0 0 0 .432.144c.144-.288.432-.576.576-.576.432-.576.576-.864.864-1.44.432-.288 1.008-.864 1.44-1.152l1.728-1.44c.288-.576.432-.864.72-1.152 0 0 .288 0 .432-.144l.72-.288c.144-.144.576 0 .576 0 .288-.288 0-.72.288-.72.288-.576.72-.432 1.152-.576l1.584-1.296c1.152-.864 2.016-1.872 3.024-2.88.288-.288.576-.864 1.152-1.152.288-.288.72-.432.72-.864 0-.288.288-.72.432-.576.144-.144.432-.144.576-.288.288-.144.144-.432.288-.576.144-.288.432-.144.576-.432s.144-.432.432-.864c.288-.576 1.152-.72 1.728-1.152l.432-.432c0-.432-.432-.576.144-.72.144-.288.144.288.432.288.432.144 0 0 .576-.288.864-.432 1.584-1.008 1.872-2.16l.144-.144 1.008.144c.576-.432 0-.432 0-.576.144-.576-.288-.144.288-.576l1.296-.72c-.144.288-.144.288.144.432.144-.144.432-.432.432-.72-.144.144-.432.144-.576.144.144-.72.72-.72 1.296-1.008.144-.144 1.872-.72 1.296-1.008.72-.144 1.008-1.584 1.872-1.44 1.008.144-.288.576-.72 1.008l-1.728 1.728c-.72.576-1.44 1.296-2.016 2.016-.288.144-1.584 1.152-1.152 1.44.288.144 1.008-.576.144.432-.432.144-1.008.864-1.296 1.008-.432-.144-.144-.432-.144-.432.288-.144 1.152-.72.864-.864-.432-.432-.864 0-.864.432s-1.008.576-1.296.864c-.288 0-.576.72-1.008.864-.72.864-1.584 1.44-2.448 2.304-.432.144-1.008.432-1.44.72l-.72 1.152c-1.872 1.584-3.744 3.168-5.472 5.04-.144.144-.864.72-.864 1.152.144.288 1.008-.72 1.152-.72l1.44-1.152c.144-.432.576-1.152 1.152-1.008-.144.72-.72 1.152-1.296 1.584l-1.872 1.728c-.72.432-1.296 1.296-1.872 1.728-.72.432-1.152 1.008-1.728 1.44-.72.432-.432-.144 0-.576.144-.144 1.152-.864.72-.864-.288-.288-1.44.864-1.584 1.152-.72.864 0 .432.288.864 0 .288-1.584 1.728-1.872 2.016-.576.72-1.44 1.44-2.16 2.304l-1.44 1.728c-.864.576-1.152 1.296-1.728 2.016-1.152 1.296-2.304 2.736-3.312 4.32-.432.576-1.008 1.584-.864 2.304 0 .864.864.432 1.584.144 3.744-1.008 7.2-2.736 10.944-4.464 3.312-1.728 6.336-4.032 9.936-5.328.432.72-6.48 4.176-7.488 4.608-1.44.864-3.168 1.584-4.752 2.448-.432 0-3.744 1.44-3.456 1.728 0 .288 6.624-2.88 7.344-3.168 1.152-.576 2.16-1.152 3.168-1.584 1.296-.864 2.448-1.296 3.744-2.16.432-.432 1.152-1.008 1.872-1.296.432-.144 1.008-.432 1.44-.864 1.152-.576 2.304-1.44 3.456-2.304 1.008-.576 2.448-1.296 3.312-2.016-.144-.144.144-.432 0-.576l.72-.576c.432-.288 1.008-.576 1.296-1.008 1.008-.72 1.872-1.584 2.736-2.448l2.448-2.736c.288-.432 1.152-1.152 1.296-1.584s-.144-.576.288-1.008c0-.288.576-.864.864-1.296l.72-1.584c.864-2.736 1.296-5.472.864-8.208-.144-1.44-.864-2.736-1.296-3.888-.288-.576-.288-1.008-.72-1.44-.576-.576-.72-.144-1.008.144-.72.288-1.008.864-1.44 1.296-.144.144-.432.144-.576.432-.288 0-.432.288-.576.432h-.864c-.288-.288-.288-.288 0-.72.72-.72 1.872-1.008 2.736-2.016.432-.432.864-1.008.576-1.44h-1.152c.144-.576.576-.576.288-1.152-.288-.72-.864-1.296-1.296-1.728-1.008-1.44-1.728-2.736-2.448-4.176-1.296-2.88-1.584-5.904.144-8.784 1.296-2.016 3.456-4.032 5.328-5.472 2.16-1.584 4.608-3.024 7.344-3.6.72 0 1.296-.432 2.016-.288.576-.144.864 0 1.44.144 1.152.432 2.016.576 2.736 1.296.432.288 1.152.864 1.008 1.44.144.432-.72.72-1.008 1.008.288-.144-1.584.864-2.448.288-.432-.288-2.592.72-3.744 1.44-1.296.576-2.448 1.44-3.6 2.304-1.008.576-2.16 1.296-2.88 2.16-.864.72-1.584 1.728-2.16 2.736-.576 1.152-.72 2.592-.576 3.744 1.152 4.608 2.016 5.04 2.88 6.336.144 0 1.584-.72 2.736-1.296.864-.144 2.16.432 2.736 0 .144-.288.288-.432.576-.72.288-.144.72-.144 1.008-.288.288 0 .72 0 1.008-.144l.576-.72c.288-.432.576-.432.72-.864.432-.144.432-.432.864-.576-.576.576.432 0 1.152-.576 0 .144.144.432.432.144.144 0 .144-.288.144-.288.576-.432.576 0 .864 0 .576.288.72.288 1.44 0 .288-.144.576-.576.864-.432.432-.144.864-.144 1.296-.288 1.872-.576 3.744-1.44 5.472-2.016.288-.144 2.88-.576 2.88-.864-.144-.432-1.872 0-2.016.288-.864 0-1.872 1.008-2.448.576-.72-.288 1.152-.72 1.44-.864.144-.144 2.736-.576 2.88-.864-.144-.576-1.728.144-2.16.144.576-.576 1.728-.432 2.448-.72l1.44-.432c.432 0 .432-.576.72-.576.432-.144.864.288 1.008.432zm-11.376 3.312c-.144.144-.432 0-.432 0h-.144c0-.144 2.016-.576 2.16-.72.144.144-1.008.432-1.584.72zm2.88-.288c.288.144-.288.288-.288.288h-.864c.144-.144 1.008-.576 1.152-.288zm-1.152.288c-.288 0-1.296 0-1.44.144.288 0 1.152.432 1.44-.144zm-3.024 1.296c.288-.144.288-.288.576-.288-.288-.432-1.008.144-.576.288zm-2.304 0c-.144-.288-.864.144-.432.144-.144.144.576 0 .432-.144zm1.296.288c-.144 0-.288.144-.288 0s.288-.576.288-.288c.144.144.144.288 0 .288zm-4.752 1.152c.144.144.288-.288.432-.432-.288.288-.576.288-.432.432zm.288 1.008c0-.144.144-.144.144-.144 0-.288-.288.144-.144.144zm-2.448.72c.144 0 .288-.144.288-.144.144-.144-.144-.144-.288.144zm-4.176 1.152s.576.144.432 0c.432.144-.144-.432-.432 0zm-6.336 7.632c-.144 0-.576.576-.576.576.288.144.432-.432.576-.576zm-1.584.432c.144 0-.432-.144 0 .288v-.288zm-6.768 2.88c-.144.144-.144.144-.144 0-.288-.288 2.88-2.448 3.312-2.448-1.008.864-2.016 1.728-3.168 2.448zm7.344-2.304l.144-.144s-.432.288-.144.144zm-2.16 1.728c-.144.144.144.144.144 0 0-.288 0-.288-.144 0zm-8.118 2.88c-.054.072-.1.144-.1.144.072.072.144 0 .198-.1l-.108-.054zm0 0c.054-.072.126-.144.198-.144 0 0-.036.108-.1.198l-.108-.054zm-2.538 2.448s.432-.576.288-.576c-.144-.144-.864.432-.288.576zm-1.44 1.008s-.72.288-.72.576c.144-.144.576-.144.72-.576zm3.744 1.152s.432-.576.576-.288-.576.576-.72.576l.144-.288zm-2.016 1.728c.576-.576.576-.144.288.432l-1.44 1.152c-.432.288-.72 0-.144-.432.288-.432 1.008-.576 1.296-1.152zm-5.904.864c.144-.288-.288.288-.576.288.288.144.576 0 .576-.288zm-7.056 6.624c-.144.144 0-.432 0-.432 0-.144.432-.576.576-.72l2.016-1.728a11.51 11.51 0 0 1 1.872-1.872c.144-.144 1.152-1.152 1.296-1.008.144 0-1.584 1.872-1.872 2.16l-.432.576s.144 0 .144.144l-.432.432c-.288.144-.576.72-.864.72-.432.288-.576-.144-.864.288-.288.288-.288.432-.432.72-.288.288-.72.432-1.008.72zm29.952-4.896c0-.288.288-.576.144-.576-.144-.288-.432.576-.144.576zm-19.584-.144c-.288.576-.288.288-.144 0h.144zm-1.728 1.584c.144.432.864-.72 1.152-.72-.432 0-1.44.576-1.152.72zm-1.008 1.44c-.144.144-.288.144-.432 0 .144-.144.72-1.152 1.152-1.008s-.432.72-.72 1.008zm-2.304-.288c-.144 0-.72.576-.432.576.432.144.576-.864.432-.576zm-2.16 1.728c.288.144.72 0 .864-.288.432-.288-.72.144-.864.288zm-13.248 11.088c-.144 0 .432-.576.432-.72l1.44-1.728c.864-1.296 2.016-2.592 3.168-3.6 1.008-1.008 1.728-2.16 2.88-3.024.576-.576 1.008-.864 1.584-.864.576-.144.432-.144.432.432-.432 1.008-1.728 1.296-2.304 2.16-.72.864-1.728 2.016-2.448 2.736-.576.432-1.008.864-1.584 1.008l-.432.432c-.144 0 0 .288-.144.288-.288.576-1.152 1.008-1.44 1.44l-1.44 1.584c-.144.144-.144 0-.144-.144zm34.992-8.64c.144-.288-.432.432-.144.144.144 0 .144 0 .144-.144zm-26.352 3.6c-.144.432.576-.288.288-.144-.144 0-.144.144-.288.144zm17.712 4.608c.432-.144 0-.288-.288-.288-.576.432 0 .432.288.288zm-29.52 3.024c-.144-.288-.72.432-.576.576.144-.144.576-.432.576-.576zm23.328.72c.144 0-.576-.144-.576.144-.144.288.576 0 .576-.144zm-24.606.882c-.018.126-.018.27-.018.27s.072-.072.126-.162l-.108-.108zm0 0c.018-.126.054-.234.126-.162s.036.18-.018.27l-.108-.108zm-.882 1.7l.288-.288c0-.432-.288.144-.288.288zm7.488 4.032c.576-.288-.864-.576-1.152-.144-.432.576.864.288 1.152.144zm-2.628.594c0-.018-.036-.018-.108-.018-.072-.072-.144-.072-.162-.036l.27.054zm89.172-26.082c-2.448 0-3.888-.864-5.472-2.304-3.744-3.456-5.184-8.208-5.184-13.104 0-1.008.144-1.872.144-2.592-1.152.72-2.16 2.016-3.024 3.168-2.304 3.024-3.744 4.176-6.768 6.624l-.72.576c-1.728 1.872-4.32 2.736-6.624 3.312-2.736.72-5.04.288-6.912-1.728a10.98 10.98 0 0 1-2.448-4.608c-.288-1.296.144-2.592.576-3.6.864-1.872 1.872-3.744 3.024-5.328.576-1.296 1.872-2.016 2.592-3.024 1.296-1.728 1.152-1.44 2.592-3.024s2.592-2.88 4.464-4.32l3.456-2.88c1.584-1.296 3.744-1.872 4.608-2.304 2.736-1.44 5.184-2.304 8.064-2.592 2.592-.288 4.752.432 6.912 1.584l.576.432c1.152 1.008 1.152 1.44-.288 2.16l-.576.432c-.144.144 0 .144-.288.144-.144 0 0-.288 0-.288l.144-.288c.288-.432.72-.864.432-1.152-.432-.432-.864 0-1.296 0l-.576.144c-3.888.144-7.344 1.584-10.8 3.312-2.592 1.296-5.184 3.024-7.344 5.184-2.304 2.304-3.312 3.024-5.328 5.472-1.584 2.016-3.168 4.32-4.752 6.624-.72 1.008-1.584 2.736-1.584 3.744 0 .144-.144.72-.144 1.296 0 1.008.288 1.008 1.152.864 1.008-.144 2.016-.288 2.88-1.008 1.152-.864 2.304-1.44 3.6-2.016.864-.432 2.16-.72 3.168-1.44l1.296-1.008c.72-.288 0-.432.72.288.144.144.144-.288.288-.432.144.72-.144 1.008-.576 1.44-.144.144-.288.432 0 .432.144 0 .288-.144.432-.144.288 0 .432-.576 1.008-.576v.144c1.152-.144 1.44-1.296 2.16-1.872.432-.288.72-1.296 1.584-.72.432.288.72-.432 1.008-.864l2.304-3.024c.288-.288.576-.576 1.008-.72.432-.576.576-1.152.576-1.872 0-.432 0-.864.288-1.152.144-.144.432-.576 0-.576-.144 0-.288.144-.576.288 0-.288.288-.432.432-.72.864-1.728 1.296-3.024 2.016-4.752.72-1.872 1.008-1.872 2.592-1.296l2.448.72c.864.288 1.296 1.728.72 2.736-.72 1.296-1.296 2.592-1.872 3.888-1.728 3.888-2.448 7.92-2.016 12.24.288 2.736 1.584 5.184 2.592 5.904.72.432 1.584 1.152 2.304 1.584.576.288 1.872.72 3.168.72.72 0-.72 1.152-2.16 1.872zM430.8 78.992l.432-.288c0-.144-.288-.144-.432-.144a.31.31 0 0 0-.288.288c0 .288.144.144.288.144zm5.472 12.384l.864-1.008c-.864-.144-.864.288-.864 1.008zm-1.296 1.152c.576-.288.864-.72 1.296-1.152-.864 0-1.152.576-1.296 1.152zm1.296.144c-.288-.288 0-.288 0-.432l.432-.576c.144.432 0 .576-.288.864 0 0 0 .288-.144.144zm-2.592.576a1.07 1.07 0 0 0 1.296-.72c-.432.288-.864.576-1.296.72zm-20.016 2.448c.288-.432.576-.72.72-1.152-.432.288-.576.72-.72 1.152zm16.848.144l.144-.288c.144-.144.288-.288.432-.144.288.288 0 .144-.144.288s-.288.144-.432.144zm-1.584 1.728c.288 0 .576-.144.576-.576a1.12 1.12 0 0 0-.576.576zm49.536 7.92c-.288.72-.72.72-1.44 1.008-1.296 1.152-2.736 2.592-3.6 3.888-.432.576-.864 1.008-.864 1.728-.144.288-.576 1.44 0 1.584l.864-1.008h1.152c.144-.288 1.008-1.296 1.152-1.296.72.288-1.008 1.728-1.152 1.728l-.864.864c-.288.288-.864.576-.864 1.008-.288 0-.288.288-.288.288-.576.144-1.872 1.008-1.584 1.44.144.144 1.44-1.152 1.872-1.728 1.008-.432-.288.864-.432 1.008-.576.432-1.008.864-1.44 1.296l-.864.432c-.432.576-.864 1.44-1.44 1.872-.72.864-1.152 1.872-1.728 3.024-1.296 1.584-2.16 3.312-3.312 5.04l-2.016 2.736c-.144.864-.864 1.296-1.152 1.872-.72.576-.864 1.44-1.296 2.304-.72.432-1.152.864-1.44 1.44-.432.864-1.152 1.728-1.728 2.592l-1.44 2.16c-2.448 2.88-4.896 5.472-7.056 8.64-2.448 3.168-5.184 6.624-8.208 9.648-1.296 1.296-2.304 2.592-3.744 3.744-.864.864-1.296 1.296-2.592 1.296-.864 0-1.44-.144-2.016-.864-.288-.432-.864-.864-.864-1.44l-.288-1.008c-.144-.432-.144-.72-.144-1.296.144-.864.864-1.872 1.008-3.024.288-.144.864-1.872 1.008-1.44.288.72-2.016 4.032-1.008 4.032.864 0 1.296-1.728 1.296-2.304.144-.864.576-1.872 1.008-2.736 1.872-3.456 4.464-6.624 6.768-9.648l3.744-4.752 2.016-2.016c.432-.432 1.152-1.584 1.872-1.584-1.152 1.296-2.016 2.736-3.168 4.032-.72.864-1.44 1.584-2.16 2.304-.576.72-1.008 1.44-1.728 2.16-.576.576-1.152 1.008-1.44 1.872-.144.432-.432.72-.432 1.152v.576c-.144.432-2.448 3.744-2.304 4.032.432.144 1.728-1.728 1.872-1.872 0-.288.432-.72.72-.864v-.864c.144-.288.72-.576 1.008-.72s.576-.576 1.008-.72c.72-.432.72-.288 1.152-.864l.576-.864.864-.72c.864-.72-.432-.72 0-1.584 0-.288.432-.288.576-.432.432.144.432.144.432-.288l.288-.144c1.008-.864.144 0 .576.432.432.144 2.304-3.168 2.736-3.456.864-1.008 1.872-2.448 3.168-3.168 0 1.152-1.296 1.584-1.872 2.448-.864 1.152-2.016 2.16-3.024 3.456l-2.736 3.168c-.144.72-1.008 1.584-1.152 2.016-.288.576 0 .72-.432 1.152.144.432-.288.72-.288 1.152 1.44-1.152 2.592-2.736 3.888-4.32l3.744-4.752 1.44-2.16c.432-.432.432-1.296.864-1.728l.576-.432c.288-.144.288-.288.432-.576 0-.144 1.296-1.296 1.152-1.44-.288 0-1.584 1.728-2.16 1.44.288-.576.864-1.008 1.296-1.44l1.008-1.152c.288-.288 2.16-3.456 2.592-3.456.432.144-1.152 1.152-.864 1.44.576.432 3.024-4.176 3.312-4.608s.72-.72.864-.864l.72-1.296c.288-.432 1.584-2.16 1.152-2.304l-.864.432c-.576.432-1.008.864-1.44 1.44l-4.032 4.032s-1.152 1.296-1.152.864 1.152-1.44 1.44-1.728l3.312-3.6c1.296-1.296 2.592-2.448 3.6-3.744 1.152-1.152 2.736-1.728 3.456-3.024.144-.576.144-1.44.432-2.016l.576-.432c.144-.432.288-.864.576-1.296s2.16-4.608 1.728-4.608c-.144-.288-.144.432-.432.144-.144 0 .864-2.88 1.008-3.168.864-1.872 0 0-.288 0 1.44-5.184 3.456-10.368 4.176-15.84 0-1.584-.288-1.008-.864 0-.432 1.152-1.296 2.16-1.872 3.024l-1.872 3.168c-.864.576-1.296 1.44-1.728 2.304l-3.6 4.608c-.432.864-1.296 1.728-1.872 2.304l-1.728 1.728c-.864.864-1.872 1.44-2.736 1.872-.864.864-1.728 1.152-2.736 1.152-2.304 0-3.744-1.152-5.04-2.88-3.024-3.888-1.296-9.072.144-13.248 1.584-4.464 3.024-8.784 4.896-13.104.576-1.152 1.44-5.04 3.168-4.32.432.144.576.72 1.008.864l1.296.576c.576.576.432 2.16 0 2.88-.864 2.16-1.872 4.032-2.448 6.192-.432 2.16-1.296 4.464-2.16 6.336-1.008 2.016-1.44 4.464-2.16 6.48-.144 1.152-.432 1.872-.432 3.024 0 .432-.432 1.872 0 2.304.864 1.008 4.464-2.16 5.04-2.736l2.592-2.592c.576-.576 1.008-1.584 2.16-1.872 0 1.008-4.752 4.896-4.464 5.328.432.432 5.472-4.896 5.904-5.328l1.44-1.728c.432-.432.432-.576.864-.864.144 0 .432.288.576-.144 1.296-.864-.144-.144-.144-.144-.576-.432 1.44-2.016 1.728-2.16 1.008-.576 1.872-2.16 2.448-3.168 1.296-2.304 3.024-4.896 3.6-7.632.288-1.296.288-2.736.432-4.176.288-.576.288-1.296.288-1.872 0-.288 0-.864.144-1.296.144-.144.576 0 .864.144.144 0 .144.288.432.432h.576c1.008 0 1.728.432 2.16 1.584s-.144 2.736-.288 4.176l-.576 4.176-.576 7.056c-.432 2.016-.72 4.32-1.296 6.48l-1.872 7.2c-.288.576-.864 1.872-.432 2.304.144.144-.288.432.144.432.288 0 1.296-.864 1.44-1.152.864-.576 1.584-1.44 2.592-2.016.576-.432.864-.864 1.44-1.152h.288c-.864.432-1.296 1.152-2.016 1.728zm-12.096-12.672c-.288 0-.288.288-.288.288 0 .144.432 0 .288-.288zm-2.736 3.888c-.432 0-.432.576-.864.576-.288-.144.864-1.44 1.008-1.296.144 0-.144.432-.144.72zm29.52 2.016c.288.72-.864 1.008-1.296 1.296-.72.144-1.44.864-2.304 1.296-1.584.864-3.6 1.872-5.04 3.168-.864.576-1.296 1.008-2.16 1.44l-.864.576c-.144.144-.288.432-.576.576l-.576.576c-.144.144-.144.144-.144 0-.288.144-.432.288-.576.432-.288.144-.72.576-1.152.864-.144.144-.144.576-.288.576-1.152.864-.288-.432 0-.576l1.872-1.872-.144-.144c0-.144.144-.144.288-.144a1.1 1.1 0 0 1 .288-.72l.576-.432v-.144h.144l.576-.432c.288-.144.288 0 .432-.432 0-.144-.144-.432 0-.576.576 1.008 2.592-1.584 2.736-1.728 0 0 0-.144.288-.432.144-.144 0 .288.144.288.432-.288.432-.432.864-.72.144-.144.432 0 .576-.432l1.44-1.296c.864-.72 0-.288-.576-.288.288-.864 1.872-.72 1.872-1.296l.72-.432h1.008c.576.144 1.728.144 1.872 1.008zm-7.344 1.584s.144 0 .144-.144c.72-.144 1.152-.72 1.728-.72-.144.144-2.88 2.016-3.168 1.872 0-.288 1.008-.72 1.296-1.008zm-3.024 2.16l.432-.144c.288-.144-.576.144-.432.144zm-24.768.576c.432 0-.144-.432-.144-.432s-.432.432.144.432zm11.322 2.268c-.1.072-.162.18-.1.18.144.144.216.108.252.036l-.162-.216zm0 0c.1-.072.198-.108.198.036 0 0 0 .108-.036.18l-.162-.216zm-1.386 3.204c.432-.288.432-.432.432-.72 0-.144-.432.432-.432.72zm8.64 2.304c.288 0 .288-.288.288-.288.432-.432-.432.288-.288.288zm-.144 1.008c-.288 0-.432.432-.288.576.288 0 .72-.576.288-.576zm-.864.864c-.144 0-.864.864-.576.864.144 0 .72-.864.576-.864zm-11.376 3.744c.576 0-.432 1.152-.432 1.152 0 .144 0 .144-.144.144 0-.144.576-1.296.576-1.296zm.432 2.304c.144-.576-.432-.144-.72.432-.576 1.152.432.432.72-.432zm-1.728 1.584c.288 0 .432-.288.288-.432-.288-.288-.72.576-.72.864-.144 0-.576.432-.432.432.288 0 .432-.288.432-.432.288-.288.432-.288.432-.432zm-9.216 8.64c-.288 0-.432.432-.432.576.144.288.864-.576.432-.576zm-1.152.864c.432-.432.432.144.432.144 0 .144-.576.864-.864.864-.288.432-1.152 1.872-1.872 1.872-.576 0 .432-1.008.72-1.008.432-.72 1.152-1.296 1.584-1.872zm5.76 1.44c.432-.288.576-.864.864-1.296-.72 0-1.152 1.008-1.296 1.44.432 0 .432-.144.432-.144zm-3.456 1.008c-.144.288-.288.288-.288.432s0 0 .144.144c0 0 .432-.288.144-.576zm-1.584.576c0-.576-.72 0-.72.288 0 .432.72 0 .72-.288zm2.304.432c.144 0 .432-.432.576-.576 0-.144-.864.144-.576.576zm-6.192.72c-.72.576-1.152 1.44-2.016 1.872.432-1.008 1.008-1.44 1.872-2.16.864-.864 1.008-.432.144.288zm5.328.576c-.144-.144-.576.288-.576.576.144-.144.72-.576.576-.576zm.864.864v-.432c-.432 0-1.584 1.584-2.304 2.736-.288 0-.72-.432-.864-.144-.288.432-.576.576-.864 1.008-.432.432-.864 1.008-1.008 1.728-.288 0-.432.144-.432.432.144 0 .288-.144.432-.432.576-.432 1.008-1.152 1.008-1.728.576 0 .864-.864 1.728-.864-.432.72-.864 1.296-.864 1.44-.576 1.152-1.584 1.872-2.16 2.736s-1.584 2.016-2.016 2.736c-.864.72-1.296 1.584-1.728 2.16-.288.288-1.44 1.44-1.44 1.728.144 1.008 2.304-2.16 2.448-2.592.288-.432.432-.576.72-1.296 1.44-.72 2.592-2.448 3.6-3.888l3.744-5.328zm-5.472.432v.144c-.288.72.432-.144 0-.144zm3.168.864c-.288 0-.432.144-.432.432 0 .144.432-.432.432-.432zm-5.904 2.304l.144-.288c0-.144 0-.144.288-.144 0 .144-.432.576-.432.432zm1.008 1.296c.432.144 1.296-1.296 1.008-1.584-.144.288-1.152 1.584-1.008 1.584zm-4.464.864c-.432 0-.432.432-.576.576 0 0 .432-.144.576-.576zm5.04.72l-1.008 1.296 1.008-.864v-.432c.288 0 .576 0 .432-.288s-.144.144-.432.288zm-3.024 1.584c.288.144.576-.864.288-.864l-.288.864zm-1.584-.72c-.144.288-.432.72-.144.72.144.144.432-.288.144-.72zm-1.584 4.752c0 .144 2.448-3.024 2.736-3.6-.432-.288-3.168 3.312-2.736 3.6zm-2.16-2.592c.432-.432-.432 1.008 0 .576-.288.288-.864 1.152-1.296 1.152 0-.432 1.008-1.44 1.296-1.728zm.432 1.296c.288.432 1.008-.864 1.008-.864-.144 0-1.296.432-1.008.864zm3.168 4.176c.144-.144.144-.576.144-.864-.576.432-1.296 1.008-1.44 1.728.432-.288.864-.432 1.296-.864zm-11.376 2.736c-.288-.144-.144-.72.144-.864l.72-.576c-.288.432-.432 1.008-.864 1.44zm9.504-1.008v-.288c-.288.288-1.728 1.584-1.584 1.872.288.288 1.584-1.44 1.584-1.584zm-6.192.576c.288-.432-1.296.288-.864 1.008.432-.288.576-.576.864-1.008zm-4.176 1.872s.432-.432-.288 0c-.144-.144.72-1.152.864-1.44 0 .576-.144 1.008-.576 1.44zm6.48.288s.72-.72.432-.72c-.432-.144-.432.72-.432.72z" fill="#fff" fill-rule="evenodd"/></svg>