<svg xmlns="http://www.w3.org/2000/svg" width="227" height="19"><path d="M10.158.807c.09.3.173.78.246 1.408l.164 2.188a2.86 2.86 0 0 1-.055.533l-.137.04-.984-.068-.164-.027c-.4-1.203-.802-2.02-1.203-2.447-.693-.73-1.508-1.094-2.447-1.094-.893 0-1.602.235-2.126.704s-.786 1.05-.786 1.743c0 .583.26 1.144.78 1.682.5.538 1.595 1.053 3.254 1.545.556.164 1.228.428 2.017.793s1.388.76 1.798 1.19c.547.565.923 1.1 1.128 1.634s.308 1.178.308 1.962c0 .857-.16 1.7-.48 2.53a3.78 3.78 0 0 1-.834 1.244c-.273.273-.697.595-1.27.964s-1.17.636-1.784.8-1.406.246-2.372.246c-.638 0-1.4-.09-2.283-.273l-1.64-.48c-.456-.128-.743-.242-.86-.342-.046-.036-.087-.123-.123-.26v-.15l-.068-1.873-.027-1.258v-.52l1.258-.027.848 1.832c.283.465.595.84.937 1.128s.75.515 1.224.684.99.253 1.545.253c.492 0 1.035-.105 1.627-.314a2.99 2.99 0 0 0 1.429-1.032c.36-.48.54-.99.54-1.538 0-.674-.314-1.3-.943-1.873-.383-.355-1.413-.83-3.1-1.422S2.74 9.79 2.092 9.324.934 8.237.56 7.458 0 5.93 0 5.21c0-1.45.52-2.68 1.56-3.69S4.13 0 6.152 0c.438 0 1.085.077 1.94.232m4.448 17.87l.027-.93c.173-.055.48-.123.916-.205.702-.137 1.128-.26 1.278-.37s.335-.374.554-.793L21.32.068l.86.014h.615l.123.246 2.38 5.633 1.45 3.48 1.107 2.755.752 1.928c.164.465.415 1.048.752 1.75.182.383.32.606.4.67.164.137.43.228.8.273s.768.15 1.196.314l.068.67-.014.3c-.674 0-1.417-.032-2.23-.096l-2.187-.096-1.56.027-2.324.123-.67.027.04-.916 1.518-.328c.456-.118.72-.2.793-.273.09-.09.137-.196.137-.314s-.023-.242-.068-.37l-.547-1.34-1.08-2.68-5.223-.014c-.19.438-.588 1.508-1.19 3.213-.173.483-.26.81-.26.984 0 .237.064.406.19.506.2.173.61.296 1.203.37.082.018.406.068.97.15l.014.684c0 .1-.01.205-.027.314-.565 0-1.914-.077-4.047-.232l-.56.096c-.674.11-1.317.164-1.928.164m6.18-7.684l3.773.04.342-.014-1.066-2.837L20.95 5.14m11.476 12.127c.237-.128.588-.22 1.053-.28a5.79 5.79 0 0 0 1.258-.294l.082-.396c.018-.128.027-.565.027-1.312l-.014-3.05.055-1.64-.027-1.27.027-.738.04-2.79-.068-3.637-.807-.164-1.477-.137-.027-.82.055-.15c.456-.073.875-.11 1.258-.11l1.27-.014L36.2.547l.725-.04 1.71-.082C39.7.314 40.825.26 42 .26c1.868 0 3.354.476 4.457 1.43s1.654 2.044 1.654 3.274c0 .92-.298 1.757-.896 2.51S45.71 8.79 44.47 9.174a8.1 8.1 0 0 0 .438.67l.93 1.395 2.188 3.54 1.073 1.647c.17.16.517.335 1.046.526.4.155.725.3.943.465.055.155.082.292.082.4l-.014.314h-.37l-.273.014-.71-.096h-.56c-.292-.046-.652-.068-1.08-.068l-1.367-.014c-.1 0-.42.032-.957.096l-.588.068-.465-.902-.807-1.53-2.064-4.225c-.456-.893-.775-1.4-.957-1.518-.273-.19-.743-.287-1.408-.287l-.93.027a9.33 9.33 0 0 0-.041.943l.055 3.035-.068 2.57c.255.155.588.273.998.355.71.146 1.322.32 1.832.52 0 .447-.018.784-.055 1.012l-.328-.014-.56.027-3.486-.26-.506.014-1.887.123L33 18.13h-.588l-.027-.437m6.193-9.27l.957.027c1.55 0 2.648-.278 3.295-.834s.97-1.3.97-2.23c0-.574-.08-1.114-.24-1.62s-.358-.882-.595-1.128c-.337-.355-.78-.624-1.326-.807-.4-.137-1.044-.205-1.928-.205-.42 0-.78.023-1.08.068l-.014.26.014 1.846-.027 1.12.014 1.5-.04 1.627m11.886 10.063l.027-.93c.173-.055.48-.123.916-.205.702-.137 1.128-.26 1.278-.37s.335-.374.554-.793L59.242.068l.86.014h.615l.123.246 2.38 5.633 1.45 3.48 1.107 2.755.752 1.928c.164.465.415 1.048.752 1.75.182.383.32.606.4.67.164.137.43.228.8.273s.768.15 1.196.314l.068.67-.014.3c-.674 0-1.417-.032-2.23-.096l-2.187-.096-1.56.027-2.324.123-.67.027.04-.916 1.518-.328c.456-.118.72-.2.793-.273.09-.09.137-.196.137-.314s-.023-.242-.068-.37l-.547-1.34-1.08-2.68-5.223-.014c-.19.438-.588 1.508-1.19 3.213-.173.483-.26.81-.26.984 0 .237.064.406.19.506.2.173.61.296 1.203.37.082.018.406.068.97.15l.014.684c0 .1-.01.205-.027.314-.565 0-1.914-.077-4.047-.232l-.56.096c-.674.11-1.317.164-1.928.164m6.18-7.684l3.773.04.342-.014-1.066-2.837-1.066-2.468m11.202 12.92c0-.273.027-.597.082-.97l1.71-.3c.2-.046.46-.118.752-.22l.178-3.418-.055-2.762.014-.328c.027-.374.04-1.312.04-2.816l-.027-.396.027-1.148-.014-1.19v-.588c0-.53-.04-1.148-.123-1.86-.01-.064-.046-.173-.11-.328-.073-.027-.153-.046-.24-.055l-.267-.04c-.355-.064-.734-.11-1.135-.137l-.205-.055c-.246-.027-.433-.064-.56-.11l-.04-.506a1.76 1.76 0 0 1 .082-.451c.182-.036.437-.055.766-.055l.684-.014 2.475.19.745.02.663.02c.3 0 1.034-.046 2.2-.137.19-.046.4-.068.63-.068.337 0 .62.018.848.055l.014.4c0 .146-.018.324-.055.533l-2.406.383c-.2.09-.3.223-.3.396l.04.506.014.22-.014.602-.027.465v.11l.014.26-.014 1.736.014.37a9.93 9.93 0 0 1-.027.438l-.014.45.04.97.643.082 2.023.04h.984l2.46.014 2.393-.068c.3 0 .638-.032.984-.096l.04-2.283.027-.615-.082-2.324-.096-.957c-.027-.064-.09-.123-.19-.178-.32-.182-.957-.387-1.914-.615a3.88 3.88 0 0 1-.492-.137c.018-.32.055-.58.11-.78l.37-.014 1.326.014a20.17 20.17 0 0 0 2.584.164l.48-.014L89.9.424l.48-.027a4.65 4.65 0 0 1 1.012-.109l.957.04-.068.97-1.647.376c-.26.077-.522.185-.786.32l-.082.273v.232l.014.355-.014.178-.027.438v.342l.014.684v1.736l.014 1.313-.027 1.736.04 2.46v1.94l.027 1.613-.027 1.094.533.137c.857.182 1.504.37 1.94.56l.04.957-.643.014a15.81 15.81 0 0 1-1.504-.082c-.747-.082-1.95-.123-3.61-.123-.747 0-1.714.06-2.898.178-.128 0-.283-.027-.465-.082.01-.42.032-.715.068-.89l1.053-.246 1.107-.178.424-.123c.1-.738.155-1.964.164-3.678l.014-1.162c-.055-.483-.082-1.062-.082-1.736l-1.094-.055-6.344-.068-.123-.014-.096-.014c-.064 0-.137.005-.22.014l-.602.014h-.383c-.173 0-.37.032-.588.096l-.055 1.025v.178l.027.48v4.238a6.56 6.56 0 0 0 .041.725l.137.082 2 .314a1.43 1.43 0 0 0 .232.068c.118.027.22.068.3.123l.04.424c0 .118-.018.283-.055.492l-.834.014c-.2 0-.387-.005-.56-.014-.082 0-.16-.005-.232-.014l-1.928-.082c-.456-.046-1.094-.068-1.914-.068l-.287.014-.67.04m28.324-.97c.283-.082.68-.162 1.196-.24l.91-.116c.355-.01.592-.068.71-.178.055-.22.082-.4.082-.547l-.027-1.75.082-1.777v-1.135l.014-1.34-.027-1.422.055-3.05.014-1.38v-.19c-.064-.957-.125-1.483-.185-1.58s-.32-.216-.786-.362l-.52-.205c-.228-.09-.433-.155-.615-.19-.32-.082-.542-.178-.67-.287l-.027-.547.014-.328c.082-.046.17-.068.26-.068l2.38.11 1.955-.014 1.45.027c.63 0 1.436-.04 2.42-.123l.506-.04c.137 0 .232.036.287.11.073.1.11.283.11.547 0 .2-.05.37-.15.48-.055.064-.255.118-.602.164l-1.695.396c-.046.018-.123.055-.232.11-.036.064-.064.118-.082.164l-.014.383-.04.86v.246l.014.15c0 .046-.014.296-.04.752l-.014.355.027.738.04 1.436-.04 1.627-.014.89-.055 6.48c0 .273.046.45.137.533l1.3.055.807-.014.86.027c1.467 0 2.62-.17 3.46-.506.63-.255 1.04-.5 1.23-.766.3-.273.563-.57.76-.89s.417-.848.663-1.586h.438a5.64 5.64 0 0 1 .738.055v.383c0 .656-.082 1.805-.246 3.445-.064.656-.128 1.057-.19 1.203l-.396.055h-.506l-.71.014c-.082 0-.624-.036-1.627-.11l-2.61-.096-4.58-.082-2.79.082-3.02.15h-.205a3.79 3.79 0 0 1-.26-.014c-.018-.1-.027-.187-.027-.26m18.38.3v-.984l.902-.232c.592-.146 1.035-.296 1.326-.45.164-.283.246-.674.246-1.176l-.014-1.613.027-3.117-.014-.738.096-2.79-.027-1.818.04-.738-.068-1.56-.014-.588c-.01-.09-.04-.237-.096-.437-.374-.173-.98-.283-1.818-.328l-.48-.04-.04-1.203 3.9.164.902.027 2.584-.11L128.058.3l.014.438-.027.602c-.365.128-.782.248-1.25.362s-.854.23-1.155.35c-.055.237-.082.58-.082 1.025l.04.957-.04 3.555.014 3.61-.04 1.832.027 2.734-.014.52c0 .073.018.178.055.314l1.518.246.834.11a5.34 5.34 0 0 1 .055.684l-.014.465-.273.014-.506.027a2.76 2.76 0 0 1-.355-.041l-1.818-.19-2.42-.027c-.483 0-1.185.046-2.105.137m8.946-16.53l-.055-.957h1.162l.396-.014 1.135-.04.957.027.3.014 1.695-.055.424.014 3.432 3.295c.884.92 4.11 4.143 9.68 9.666v-.342l-.055-1.586a42.85 42.85 0 0 0-.109-2.208c-.046-.542-.073-1.19-.082-1.94s-.04-1.433-.096-2.044l-.164-2.064c-.01-.592-.073-.952-.19-1.08-.19-.2-.63-.35-1.312-.45-.5-.082-.875-.187-1.12-.314l.014-.807.355-.04 2.693-.082 3.008-.082c.2-.01.392-.014.574-.014l.014.89c-.2.11-.424.19-.643.246-.583.137-.92.232-1.012.287-.465.264-.715.424-.752.48-.082.11-.123.278-.123.506a18.47 18.47 0 0 0 .027.574 28.2 28.2 0 0 1 .014 1.148c.01 1.322.046 2.365.11 3.13a18.93 18.93 0 0 1 .041.834l.15 4.8.014.71v1.682l.04.71-.04.738c.036.374.055.597.055.67v.725l-1.572.055-1.627-1.682-3.322-3.295-2.324-2.324-1.71-1.75c-1.112-1.094-2.124-2.055-3.035-2.885l-2.23-2 .123 5.086a32.57 32.57 0 0 1 .014.957l-.014.97.082 1.79c.027.747.077 1.56.15 2.434.018.237.04.403.068.5s.082.235.164.417c.355.128 1.13.223 2.324.287.082.018.2.05.355.096l.055 1.107-.533.014c-.292 0-1.212-.068-2.762-.205-1.45.018-2.415.046-2.898.082l-.793.055c-.11 0-.26-.018-.45-.055-.018-.2-.027-.392-.027-.547 0-.1.005-.264.014-.492a3.72 3.72 0 0 1 .629-.068c.055 0 .232.01.533.027.766 0 1.22-.057 1.36-.17s.22-.422.24-.923l.096-2.652v-.752l.027-4.443-.04-2.775c-.01-1.057-.077-1.79-.205-2.2-.055-.2-.16-.392-.314-.547a3.21 3.21 0 0 0-1.066-.738m22.33 15.12c.137-.036.42-.09.848-.164.848-.146 1.404-.342 1.668-.588.164-.155.27-.45.314-.89.01-.11.04-1.5.096-4.17l-.014-1.504.014-1.818-.055-4.662.014-.547c0-.237-.064-.42-.19-.547-.064-.064-.242-.096-.533-.096a4.79 4.79 0 0 0-.82.082c-.4.018-.76.055-1.08.11l-.26.04-.014-1.203c.538-.173 1.308-.342 2.31-.506 1.66-.273 3.7-.4 6.125-.4 2.023 0 3.505.114 4.443.342 1.422.355 2.58.884 3.473 1.586 1.194.94 2.1 2.026 2.687 3.26s.896 2.582.896 4.04c0 1.84-.4 3.42-1.203 4.737s-1.955 2.372-3.46 3.165c-1.057.565-2.493.848-4.307.848l-2.803-.123-.82-.04-1.107.027-.328-.027-1.148.027-1.518-.014c-.055 0-.52.032-1.395.096-.292.018-.674.032-1.148.04-.292 0-.5.005-.656.014m6.604-16.338c-.027.283-.04.483-.04.602l.04 2.324-.027 2.023a42.03 42.03 0 0 1 .041 1.723l-.014 1.3.027 2.174-.027 1.34c0 1.25.232 2.096.697 2.543.674.638 1.604.957 2.79.957.902 0 1.568-.087 1.996-.26.893-.346 1.602-.807 2.126-1.38s.923-1.388 1.196-2.44.4-2.14.4-3.26c0-1.84-.294-3.345-.882-4.512s-1.392-2.044-2.413-2.632-2.192-.882-3.514-.882M186.37.807c.09.3.173.78.246 1.408.11.94.164 1.668.164 2.188a2.86 2.86 0 0 1-.055.533l-.137.04-.984-.068-.164-.027c-.4-1.203-.802-2.02-1.203-2.447-.693-.73-1.508-1.094-2.447-1.094-.893 0-1.602.235-2.126.704s-.786 1.05-.786 1.743c0 .583.26 1.144.78 1.682.5.538 1.595 1.053 3.254 1.545.556.164 1.228.428 2.017.793s1.388.76 1.798 1.19c.547.565.923 1.1 1.128 1.634s.308 1.178.308 1.962c0 .857-.16 1.7-.48 2.53a3.78 3.78 0 0 1-.834 1.244c-.273.273-.697.595-1.27.964s-1.17.636-1.784.8-1.406.246-2.372.246c-.638 0-1.4-.09-2.283-.273l-1.64-.48c-.456-.128-.743-.242-.86-.342-.046-.036-.087-.123-.123-.26v-.15c0-.1-.023-.725-.068-1.873l-.027-1.258v-.52l1.258-.027c.438 1.012.72 1.622.848 1.832.283.465.595.84.937 1.128s.75.515 1.224.684.99.253 1.545.253c.492 0 1.035-.105 1.627-.314a2.99 2.99 0 0 0 1.429-1.032c.36-.48.54-.99.54-1.538 0-.674-.314-1.3-.943-1.873-.383-.355-1.413-.83-3.1-1.422s-2.84-1.12-3.486-1.586-1.158-1.087-1.53-1.866-.56-1.53-.56-2.25c0-1.45.52-2.68 1.56-3.69S180.34 0 182.364 0c.438 0 1.085.077 1.94.232m4.448 17.87l.027-.93c.173-.055.48-.123.916-.205.702-.137 1.128-.26 1.278-.37s.335-.374.554-.793L197.532.068l.86.014h.615l.123.246 2.38 5.633c.538 1.194 1.02 2.354 1.45 3.48s.798 2.044 1.107 2.755c.182.428.433 1.07.752 1.928.164.465.415 1.048.752 1.75.182.383.32.606.4.67.164.137.43.228.8.273s.768.15 1.196.314c.046.3.068.524.068.67 0 .064-.005.164-.014.3-.674 0-1.417-.032-2.23-.096s-1.54-.096-2.187-.096c-.72 0-1.24.01-1.56.027l-2.324.123-.67.027a9.82 9.82 0 0 1 .041-.916l1.518-.328c.456-.118.72-.2.793-.273.09-.09.137-.196.137-.314s-.023-.242-.068-.37l-.547-1.34-1.08-2.68-5.223-.014c-.19.438-.588 1.508-1.19 3.213-.173.483-.26.81-.26.984 0 .237.064.406.19.506.2.173.61.296 1.203.37.082.018.406.068.97.15l.014.684c0 .1-.01.205-.027.314-.565 0-1.914-.077-4.047-.232l-.56.096c-.674.11-1.317.164-1.928.164m6.18-7.684l3.773.04.342-.014c-.273-.81-.63-1.757-1.066-2.837s-.793-1.903-1.066-2.468m9.575-4.635c.246-.073.816-.11 1.71-.11l.137.027c.228.036.387.055.48.055l.137-.014c.137.018.5.05 1.12.096 1.13.082 2.028.123 2.693.123a15.16 15.16 0 0 0 2.146-.15c.1-.018.173-.027.22-.027l.11.014c.046.118.068.2.068.273l-.014.71c-.2.082-.46.146-.752.19l-.615.11c-.228.046-.533.096-.916.15l-.082.055-.027.178c.3.647.94 1.654 1.914 3.02.255.438.5.848.766 1.23.073.1.333.524.78 1.27.046.082.096.164.15.246.082.128.164.25.246.37l.3.45c.182.292.337.515.465.67l1.422-1.996c.465-.602 1.07-1.477 1.818-2.625l.055-.068 1.162-2.064c.182-.264.273-.46.273-.588a1.12 1.12 0 0 0-.041-.232c-.137-.09-.25-.146-.342-.164-.036-.018-.228-.036-.574-.055-.19-.036-.374-.068-.547-.096s-.314-.055-.424-.082c-.018-.118-.046-.456-.082-1.012l2.803.15a4.94 4.94 0 0 1 .342.055h.656l.232-.014c.292-.046.67-.082 1.135-.11.137-.01.27-.023.396-.04l-.014 1.025-.178.055c-.766.128-1.3.296-1.572.506-.4.3-.962 1.057-1.654 2.242L220.86 7c-1.066 1.45-1.755 2.438-2.064 2.967-.082.128-.15.287-.205.48v.424l-.014 1.19v.328a6.44 6.44 0 0 0-.041.738l.055 3.5c.036.073.087.123.15.15.128.036.42.082.875.137.875.09 1.363.17 1.463.232.073.046.11.137.11.273a2.61 2.61 0 0 1-.027.328c0 .082-.005.2-.014.383l-1.572-.027-1.463-.123-1.012-.068-1.518.055h-1.135c-.128-.01-.333.01-.615.055-.456.073-.798.11-1.025.11l-.943-.014a9.95 9.95 0 0 1-.014-.437 10.87 10.87 0 0 1 .014-.451l2.516-.52a1.93 1.93 0 0 0 .314-.137l.014-.78-.027-2.85-.027-.882v-.314c0-.574-.3-1.235-.902-1.982-.255-.32-.415-.53-.48-.63l-2.68-4.074-1.258-2.023c-.046-.073-.328-.447-.848-1.12-.164-.146-.324-.246-.48-.3-.09-.036-.506-.132-1.244-.287-.046-.082-.068-.155-.068-.22a2.11 2.11 0 0 1 .014-.212" fill="#fff" fill-rule="evenodd"/></svg>