<svg enable-background="new 0 0 24 24" viewBox="0 0 24 24" xmlns="http://www.w3.org/2000/svg"><path d="m21.818 0h-7.644c-.574 0-1.125.226-1.534.629l-12.001 11.823c-.852.853-.852 2.234 0 3.087l7.823 7.823c.852.852 2.234.852 3.087 0l11.822-12.002c.403-.409.629-.96.629-1.534v-7.644c0-1.205-.977-2.182-2.182-2.182zm-3.818 8c-1.104 0-2-.896-2-2s.896-2 2-2 2 .896 2 2-.896 2-2 2z" fill="#46a046"/><path d="m14.25 15.29-1.929.031-.031 1.929c-.013.782-1.042 1.057-1.444.387l-.991-1.655-1.686.938c-.683.38-1.437-.374-1.057-1.057l.938-1.686-1.655-.991c-.671-.402-.395-1.432.387-1.444l1.928-.032.031-1.929c.014-.781 1.042-1.057 1.444-.386l.991 1.655 1.686-.937c.683-.38 1.437.374 1.057 1.057l-.937 1.686 1.655.992c.671.4.395 1.43-.387 1.442z" fill="#8cbe3c"/></svg>